<svg width="512" height="512" xml:space="preserve" xmlns:xlink="http://www.w3.org/1999/xlink" xmlns="http://www.w3.org/2000/svg"><defs><linearGradient id="d"><stop style="stop-color:#1d7dd7;stop-opacity:1" offset="0"/><stop style="stop-color:#73cdff;stop-opacity:.02285714" offset="1"/></linearGradient><linearGradient id="c"><stop style="stop-color:#9fdffe;stop-opacity:.99601603" offset="0"/><stop style="stop-color:#009de6;stop-opacity:1" offset="1"/></linearGradient><linearGradient id="b"><stop style="stop-color:#fff;stop-opacity:1" offset="0"/><stop style="stop-color:#cecece;stop-opacity:1" offset="1"/></linearGradient><linearGradient id="a"><stop style="stop-color:#6eaeff;stop-opacity:.99601603" offset="0"/><stop style="stop-color:#36c3ff;stop-opacity:1" offset="1"/></linearGradient><linearGradient id="e"><stop style="stop-color:#1d7dd7;stop-opacity:1" offset="0"/><stop style="stop-color:#73cdff;stop-opacity:1" offset="1"/></linearGradient><linearGradient xlink:href="#a" id="f" x1="284.569" y1="110.836" x2="291.472" y2="311.798" gradientUnits="userSpaceOnUse" gradientTransform="matrix(1.00437 0 0 1.48644 78.518 -15.33)"/><linearGradient xlink:href="#b" id="h" x1="372.777" y1="132.009" x2="374.312" y2="451.094" gradientUnits="userSpaceOnUse" gradientTransform="matrix(1.36477 0 0 1.36477 2.625 31.559)"/><linearGradient xlink:href="#d" id="j" x1="206.018" y1="310.24" x2="209.978" y2="369.673" gradientUnits="userSpaceOnUse" gradientTransform="matrix(1.82802 0 0 1.82802 -93.378 -91.316)"/><linearGradient xlink:href="#d" id="k" gradientUnits="userSpaceOnUse" gradientTransform="matrix(1.33875 0 0 1.33875 91.812 238.044)" x1="206.018" y1="310.24" x2="209.978" y2="369.673"/><linearGradient xlink:href="#d" id="l" gradientUnits="userSpaceOnUse" gradientTransform="matrix(1.92723 0 0 1.92723 260.078 -39.715)" x1="206.018" y1="310.24" x2="209.978" y2="369.673"/><linearGradient xlink:href="#d" id="m" gradientUnits="userSpaceOnUse" gradientTransform="matrix(1.85666 0 0 1.85666 140.12 -78.937)" x1="206.018" y1="310.24" x2="209.978" y2="369.673"/><linearGradient xlink:href="#d" id="n" gradientUnits="userSpaceOnUse" gradientTransform="matrix(1.7264 0 0 1.7264 -129.538 37.3)" x1="206.018" y1="310.24" x2="209.978" y2="369.673"/><linearGradient xlink:href="#e" id="i" gradientUnits="userSpaceOnUse" gradientTransform="matrix(.98235 0 0 1.58754 94.3 -40.528)" x1="263.092" y1="560.316" x2="263.859" y2="314.866"/><radialGradient xlink:href="#c" id="g" cx="-72.882" cy="484.905" fx="-72.882" fy="484.905" r="131.668" gradientTransform="matrix(1.16579 -.7096 .62412 .40693 254.343 195.681)" gradientUnits="userSpaceOnUse"/></defs><g style="display:inline"><path style="display:inline;fill:url(#f);stroke:none;stroke-width:1.22185;stroke-dasharray:none;stroke-opacity:.537849" d="M93.904 70.291c-35.096 0-63.349 28.257-63.349 63.352v353.832H702.77V133.643c0-35.095-28.253-63.352-63.349-63.352z" transform="matrix(.6896 0 0 .6896 2.954 -25.694)"/></g><g style="display:inline"><path style="display:inline;fill:#003765;fill-opacity:.996016;stroke:none;stroke-width:7.42445;stroke-dasharray:none;stroke-opacity:1" d="m29.426 291.483.536 197.873 673.128 3.711.53-132.83-238.607 110.3-288.318-145.662-53.01 24.83Z" transform="matrix(.6896 0 0 .6896 2.954 -25.694)"/></g><g style="display:inline"><path style="display:inline;fill:url(#g);stroke:none;stroke-width:9.88187;stroke-dasharray:none;stroke-opacity:1" d="m601.389 352.842-43.907 22.455-33.275-20.613-82.006 60.73-44.53-29.036-161.326 98.197 11.635 7.586c163.779 22.93 314.145-16.728 457.611-90.094z" transform="matrix(.6896 0 0 .6896 2.954 -25.694)"/></g><g style="display:inline"><path style="display:inline;fill:url(#h);fill-opacity:1;stroke:none;stroke-width:7.49859;stroke-dasharray:none;stroke-opacity:1" d="M513.306 210.785c-53.27 0-96.456 36.912-96.456 82.447.013.169.028.338.043.507a68.498 68.498 0 0 0-18.57-2.567c-35.577.021-64.505 27.064-64.858 60.631a84.608 84.608 0 0 0-12.607-.964c-43.361 0-78.508 32.576-78.509 72.757.156 16.891 6.648 33.207 18.366 46.146l136.955-83.364 44.533 29.034 82.004-60.727 33.275 20.611 43.908-22.454 102.097 50.629c-1.153-25.196.032-75.745.032-87.971-3.179-20.734-32.638-32.704-64.95-32.704a72.758 72.758 0 0 0-28.953 6.098c-2.697-43.786-45.014-78.105-96.31-78.109z" transform="matrix(.6896 0 0 .6896 2.954 -25.694)"/></g><g style="display:inline"><path style="display:inline;fill:url(#i);stroke:none;stroke-width:1.2488;stroke-dasharray:none;stroke-opacity:.537849" d="M30.555 487.95v187.243c0 35.095 28.253 63.348 63.349 63.348H639.42c35.096 0 63.349-28.253 63.349-63.348V487.95Z" transform="matrix(.6896 0 0 .6896 2.954 -25.694)"/><path style="display:inline;fill:url(#j);fill-opacity:1;stroke:none;stroke-width:1.82802;stroke-dasharray:none;stroke-opacity:.537849" d="M135.65 580.898c46.927-29.33 99.6-62.731 155.66-71.386-20.636 68.498 188.527 58.16 270.67 62.462" transform="matrix(.6896 0 0 .6896 2.954 -25.694)"/><path style="display:inline;fill:url(#k);fill-opacity:1;stroke:none;stroke-width:1.33875;stroke-dasharray:none;stroke-opacity:.537849" d="M259.542 730.342c34.366-21.48 72.941-45.941 113.998-52.28-15.113 50.166 138.068 42.594 198.226 45.745" transform="matrix(.6896 0 0 .6896 2.954 -25.694)"/><path style="display:inline;fill:url(#l);fill-opacity:1;stroke:none;stroke-width:1.92724;stroke-dasharray:none;stroke-opacity:.537849" d="M665.646 593.722c-59.104 9.125-114.634 44.341-164.108 75.263l201.013-5.74-.7-22.66c-31.488-9.287-43.313-23.271-36.205-46.863z" transform="matrix(.6896 0 0 .6896 2.954 -25.694)"/><path style="display:inline;fill:url(#m);fill-opacity:1;stroke:none;stroke-width:1.85666;stroke-dasharray:none;stroke-opacity:.537849" d="M372.738 603.812c47.662-29.79 101.16-63.715 158.1-72.505-20.96 69.572 92.335 68.986 175.765 73.356" transform="matrix(.6896 0 0 .6896 2.954 -25.694)"/><path style="display:inline;fill:url(#n);fill-opacity:1;stroke:none;stroke-width:1.7264;stroke-dasharray:none;stroke-opacity:.537849" d="M86.759 672.146c44.318-27.7 94.062-59.244 147.007-67.417-19.49 64.69 178.046 54.926 255.623 58.99" transform="matrix(.6896 0 0 .6896 2.954 -25.694)"/></g><g transform="matrix(.96008 0 0 .96008 53.032 308.096)"><rect style="opacity:1;fill:#fff;fill-opacity:1;fill-rule:evenodd;stroke:none;stroke-width:1.66653;stroke-linecap:round;stroke-dasharray:none;stroke-opacity:1" width="310.709" height="241.788" x="6.792" y="-92.871" rx="21.066"/><text xml:space="preserve" style="font-style:normal;font-variant:normal;font-weight:400;font-stretch:normal;font-size:179.735px;font-family:'Arial Black';-inkscape-font-specification:'Arial Black, ';opacity:1;fill:#24bd11;fill-opacity:1;fill-rule:evenodd;stroke:none;stroke-width:2.99557;stroke-linecap:round;stroke-dasharray:none;stroke-opacity:1" x="282.952" y="70.283" transform="scale(.77894 1.2838)"><tspan style="fill:#24bd11;fill-opacity:1;stroke-width:2.99557" x="282.952" y="70.283">|</tspan></text><g style="fill:none"><path d="M135.111 118.106 54.532-43.116H33.728l-1 2.238L-38.914 120.4l8.955 17.942 1.038 2.079h20.846L9.871 100.13h75.44l19.025 38.012 1.174 2.348h20.57l8.986-17.976 1.12-2.272zM51.738-38.64l78.337 156.682h-12.871L98.179 79.985l-1.117-2.238h-77.22l5.983-13.432h64.523L38.866-38.64ZM27.76 59.843l17.623-39.569 19.783 39.572H27.76Zm-61.763 60.433L35.326-35.675l47.747 95.518H70.202L47.777 14.984l-.754-1.495-10.758-21.52-63.857 141.114-6.407-12.807ZM6.944 95.654l-17.946 40.292h-12.97L36.462 2.374l6.324 12.716-19.942 44.764-.75 1.678-7.22 16.23-.747 1.677-.787 1.773h.034l-.455 1.022h79.106l-6.714 13.428zM89.2 97.892l6.45-12.867 17.623 35.251-6.453 12.898zm34.093 38.118h-12.871l6.717-13.428h12.868z" fill="currentColor" style="fill:#082ac8;fill-opacity:1;stroke:#082ac8;stroke-width:3.78679;stroke-opacity:1" transform="translate(71.466 -23.235) scale(1.04158)"/></g></g></svg>
