<?xml version="1.0" encoding="utf-8"?>
<!-- Generator: Adobe Illustrator 27.5.0, SVG Export Plug-In . SVG Version: 6.00 Build 0)  -->
<svg version="1.1" xmlns="http://www.w3.org/2000/svg" xmlns:xlink="http://www.w3.org/1999/xlink" x="0px" y="0px"
	 viewBox="0 0 500 500" style="enable-background:new 0 0 500 500;" xml:space="preserve">
<g id="Background_Complete">
	<g>
		<rect x="416.779" y="398.494" style="fill:#EBEBEB;" width="33.122" height="0.25"/>
		<rect x="322.527" y="401.208" style="fill:#EBEBEB;" width="8.693" height="0.25"/>
		<rect x="396.586" y="389.208" style="fill:#EBEBEB;" width="19.192" height="0.25"/>
		<rect x="52.459" y="390.888" style="fill:#EBEBEB;" width="43.193" height="0.25"/>
		<rect x="104.556" y="390.888" style="fill:#EBEBEB;" width="6.333" height="0.25"/>
		<rect x="131.471" y="395.111" style="fill:#EBEBEB;" width="93.676" height="0.25"/>
		<path style="fill:#EBEBEB;" d="M237.014,337.8H43.915c-3.147,0-5.708-2.561-5.708-5.708V60.66c0-3.147,2.561-5.708,5.708-5.708
			h193.099c3.146,0,5.707,2.561,5.707,5.708v271.432C242.721,335.239,240.16,337.8,237.014,337.8z M43.915,55.203
			c-3.01,0-5.458,2.448-5.458,5.458v271.432c0,3.01,2.448,5.458,5.458,5.458h193.099c3.009,0,5.457-2.448,5.457-5.458V60.66
			c0-3.009-2.448-5.458-5.457-5.458H43.915z"/>
		<path style="fill:#EBEBEB;" d="M453.31,337.8H260.212c-3.147,0-5.707-2.561-5.707-5.708V60.66c0-3.147,2.561-5.708,5.707-5.708
			H453.31c3.148,0,5.708,2.561,5.708,5.708v271.432C459.019,335.239,456.458,337.8,453.31,337.8z M260.212,55.203
			c-3.009,0-5.457,2.448-5.457,5.458v271.432c0,3.01,2.448,5.458,5.457,5.458H453.31c3.01,0,5.458-2.448,5.458-5.458V60.66
			c0-3.009-2.448-5.458-5.458-5.458H260.212z"/>
		<rect y="382.398" style="fill:#EBEBEB;" width="500" height="0.25"/>
	</g>
	<g>
		<g>
			<path style="fill:#EBEBEB;" d="M83.722,285.649c0-1.25-0.713-2.322-1.746-2.867c0.788-0.023,1.421-0.666,1.421-1.459
				c0-0.809-0.655-1.464-1.464-1.464c0.809,0,1.464-0.655,1.464-1.464s-0.655-1.464-1.464-1.464c0.809,0,1.464-0.655,1.464-1.464
				c0-0.808-0.655-1.464-1.464-1.464H81.82c1.59-4.132,2.696-14.445,2.79-18.541c0.236-10.296-1.854-40.985-4.14-40.985
				c-2.286,0-4.376,30.689-4.14,40.985c0.094,4.096,1.2,14.409,2.79,18.541h-0.114c-0.808,0-1.464,0.655-1.464,1.464
				c0,0.808,0.656,1.464,1.464,1.464c-0.808,0-1.464,0.655-1.464,1.464s0.656,1.464,1.464,1.464c-0.808,0-1.464,0.655-1.464,1.464
				c0,0.794,0.633,1.436,1.421,1.459c-1.034,0.545-1.746,1.617-1.746,2.867c0,1.797,1.456,3.253,3.253,3.253
				S83.722,287.445,83.722,285.649z"/>
			<path style="fill:#EBEBEB;" d="M83.722,367.098c0-1.25-0.713-2.322-1.746-2.867c0.788-0.023,1.421-0.666,1.421-1.46
				c0-0.808-0.655-1.464-1.464-1.464c0.809,0,1.464-0.655,1.464-1.464s-0.655-1.464-1.464-1.464c0.809,0,1.464-0.655,1.464-1.464
				c0-0.808-0.655-1.464-1.464-1.464h-0.415c1.834-7.036,3.291-30.247,3.092-38.935c-0.096-4.195-1.254-14.916-2.906-18.834h0.229
				c0.809,0,1.464-0.655,1.464-1.464c0-0.808-0.655-1.464-1.464-1.464c0.809,0,1.464-0.655,1.464-1.464s-0.655-1.464-1.464-1.464
				c0.809,0,1.464-0.655,1.464-1.464c0-0.808-0.655-1.464-1.464-1.464h-1.464h-1.464c-0.808,0-1.464,0.655-1.464,1.464
				c0,0.808,0.656,1.464,1.464,1.464c-0.808,0-1.464,0.655-1.464,1.464s0.656,1.464,1.464,1.464c-0.808,0-1.464,0.655-1.464,1.464
				c0,0.808,0.656,1.464,1.464,1.464h0.229c-1.652,3.918-2.809,14.639-2.906,18.834c-0.199,8.688,1.258,31.899,3.092,38.935h-0.415
				c-0.808,0-1.464,0.655-1.464,1.464c0,0.808,0.656,1.464,1.464,1.464c-0.808,0-1.464,0.655-1.464,1.464s0.656,1.464,1.464,1.464
				c-0.808,0-1.464,0.655-1.464,1.464c0,0.794,0.633,1.436,1.421,1.46c-1.034,0.545-1.746,1.617-1.746,2.867
				c0,1.797,1.456,3.253,3.253,3.253S83.722,368.895,83.722,367.098z"/>
			<path style="fill:#EBEBEB;" d="M93.337,379.133H81.933c0.809,0,1.464-0.655,1.464-1.464c0-0.808-0.655-1.464-1.464-1.464
				c0.809,0,1.464-0.655,1.464-1.464s-0.655-1.464-1.464-1.464c0.809,0,1.464-0.655,1.464-1.464c0-0.808-0.655-1.464-1.464-1.464
				h-1.464h-1.464c-0.808,0-1.464,0.655-1.464,1.464c0,0.808,0.656,1.464,1.464,1.464c-0.808,0-1.464,0.655-1.464,1.464
				s0.656,1.464,1.464,1.464c-0.808,0-1.464,0.655-1.464,1.464c0,0.808,0.656,1.464,1.464,1.464H67.218
				c-2.037,0-3.688,1.651-3.688,3.688h33.495C97.025,380.785,95.373,379.133,93.337,379.133z"/>
		</g>
		<g>
			<polygon style="fill:#F5F5F5;" points="88.37,219.878 72.185,219.878 75.409,186.72 85.146,186.72 			"/>
			<path style="fill:#E0E0E0;" d="M84.308,223.327h-8.062c-1.605,0-3.051-0.971-3.658-2.458l-0.404-0.991H88.37l-0.404,0.991
				C87.359,222.355,85.913,223.327,84.308,223.327z"/>
			<path style="fill:#F5F5F5;" d="M68.123,223.327h-8.062c-1.605,0-3.051-0.971-3.658-2.458l-0.404-0.991h16.186l-0.405,0.991
				C71.174,222.355,69.728,223.327,68.123,223.327z"/>
			<path style="fill:#F5F5F5;" d="M100.494,223.327h-8.062c-1.605,0-3.051-0.971-3.657-2.458l-0.405-0.991h16.186l-0.405,0.991
				C103.545,222.355,102.099,223.327,100.494,223.327z"/>
			<polygon style="fill:#E0E0E0;" points="72.185,219.878 55.999,219.878 66.275,186.72 75.409,186.72 			"/>
			<polygon style="fill:#E0E0E0;" points="88.37,219.878 104.556,219.878 94.28,186.72 85.146,186.72 			"/>
		</g>
	</g>
	<g>
		<g>
			<g>
				<rect x="121.882" y="91.588" style="fill:#FAFAFA;" width="74.974" height="254.331"/>
				<g>
					<polygon style="fill:#F5F5F5;" points="185.692,91.588 181.311,91.588 155.161,345.919 159.542,345.919 					"/>
				</g>
				<rect x="121.403" y="88.363" style="fill:#E6E6E6;" width="76.229" height="3.45"/>
				<rect x="121.403" y="345.694" style="fill:#E6E6E6;" width="76.229" height="4.45"/>
				<g>
					<path style="fill:#F0F0F0;" d="M200.596,355.643h-82.643V82.063h82.643V355.643z M124.253,349.343h70.043V88.363h-70.043
						V349.343z"/>
				</g>
			</g>
			<g>
				<rect x="212.608" y="91.588" style="fill:#FAFAFA;" width="74.974" height="254.331"/>
				<g>
					<polygon style="fill:#F5F5F5;" points="266.786,91.588 242.883,91.588 216.733,345.919 240.636,345.919 					"/>
				</g>
				<rect x="212.128" y="88.363" style="fill:#E6E6E6;" width="76.229" height="3.45"/>
				<rect x="212.128" y="345.694" style="fill:#E6E6E6;" width="76.229" height="4.45"/>
				<g>
					<path style="fill:#F0F0F0;" d="M291.321,355.643h-82.643V82.063h82.643V355.643z M214.979,349.343h70.043V88.363h-70.043
						V349.343z"/>
				</g>
			</g>
		</g>
		<g>
			<rect x="303.334" y="91.588" style="fill:#FAFAFA;" width="74.974" height="254.331"/>
			<g>
				<polygon style="fill:#F5F5F5;" points="344.62,91.588 340.24,91.588 314.09,345.919 318.47,345.919 				"/>
			</g>
			<rect x="302.854" y="88.363" style="fill:#E6E6E6;" width="76.229" height="3.45"/>
			<rect x="302.854" y="345.694" style="fill:#E6E6E6;" width="76.229" height="4.45"/>
			<g>
				<path style="fill:#F0F0F0;" d="M382.047,355.643h-82.643V82.063h82.643V355.643z M305.704,349.343h70.043V88.363h-70.043
					V349.343z"/>
			</g>
		</g>
	</g>
	<g>
		<g>
			<rect x="400.526" y="116.357" style="fill:#F5F5F5;" width="32.506" height="42.231"/>
			<rect x="403.027" y="119.606" style="fill:#E6E6E6;" width="27.504" height="35.733"/>
			<rect x="407.895" y="125.931" style="fill:#FAFAFA;" width="17.768" height="23.084"/>
		</g>
		<g>
			<rect x="400.526" y="219.378" style="fill:#E0E0E0;" width="32.506" height="42.231"/>
			<rect x="403.027" y="222.627" style="fill:#F5F5F5;" width="27.504" height="35.733"/>
			<rect x="407.895" y="228.952" style="fill:#E0E0E0;" width="17.768" height="23.084"/>
		</g>
		<g>
			<ellipse style="fill:#F5F5F5;" cx="416.779" cy="188.983" rx="13.309" ry="19.497"/>
			<ellipse style="fill:#EBEBEB;" cx="416.779" cy="188.983" rx="9.616" ry="14.088"/>
			<ellipse style="fill:#FAFAFA;" cx="416.779" cy="188.983" rx="6.8" ry="9.962"/>
		</g>
	</g>
</g>
<g id="Background_Simple" style="display:none;">
	<g style="display:inline;">
		<path style="fill:#407BFF;" d="M352.153,169.875C266.119,83.84,162.195,54.855,118.641,98.409
			c-46.423,46.423,6.782,86.963,5.669,121.306c-0.891,27.499-53.312,69.925-17.711,105.526
			c34.008,34.008,112.868-3.065,153.115,7.088c18.063,4.556,53.017,35.969,88.633,35.969
			C399.96,368.298,444.715,262.436,352.153,169.875z"/>
		<path style="opacity:0.9;fill:#FFFFFF;" d="M352.153,169.875C266.119,83.84,162.195,54.855,118.641,98.409
			c-46.423,46.423,6.782,86.963,5.669,121.306c-0.891,27.499-53.312,69.925-17.711,105.526
			c34.008,34.008,112.868-3.065,153.115,7.088c18.063,4.556,53.017,35.969,88.633,35.969
			C399.96,368.298,444.715,262.436,352.153,169.875z"/>
	</g>
</g>
<g id="Shadow">
	<ellipse id="_x3C_Path_x3E__1_" style="fill:#F5F5F5;" cx="245.178" cy="412.391" rx="193.889" ry="11.323"/>
</g>
<g id="Furniture">
	<g>
		<rect x="94.09" y="277.031" style="fill:#407BFF;" width="84.177" height="126.645"/>
		<rect x="94.09" y="277.031" style="opacity:0.6;fill:#FFFFFF;" width="84.177" height="126.645"/>
		<rect x="178.267" y="277.031" style="fill:#407BFF;" width="18.156" height="126.645"/>
		<rect x="178.267" y="277.031" style="opacity:0.3;fill:#FFFFFF;" width="18.156" height="126.645"/>
		<rect x="100.757" y="286.428" style="fill:#407BFF;" width="71.333" height="30.755"/>
		<rect x="100.757" y="320.543" style="fill:#407BFF;" width="71.333" height="30.755"/>
		<rect x="100.757" y="354.657" style="fill:#407BFF;" width="71.333" height="30.755"/>
		<rect x="100.757" y="286.428" style="opacity:0.3;fill:#FFFFFF;" width="71.333" height="30.755"/>
		<rect x="100.757" y="320.543" style="opacity:0.3;fill:#FFFFFF;" width="71.333" height="30.755"/>
		<rect x="100.757" y="354.657" style="opacity:0.3;fill:#FFFFFF;" width="71.333" height="30.755"/>
		<g>
			<polygon style="fill:#407BFF;" points="172.09,409.998 101.757,409.998 100.757,403.665 172.09,403.665 			"/>
			<polygon style="opacity:0.3;fill:#FFFFFF;" points="172.09,409.998 101.757,409.998 100.757,403.665 172.09,403.665 			"/>
			<polygon style="fill:#407BFF;" points="189.09,409.998 172.09,409.998 172.09,403.665 190.09,403.665 			"/>
		</g>
		<g>
			<polygon style="fill:#263238;" points="135.684,277.167 165.072,277.167 161.812,239.898 132.424,239.898 			"/>
			<polygon style="opacity:0.5;fill:#FFFFFF;" points="135.684,277.167 165.072,277.167 161.812,239.898 132.424,239.898 			"/>
			<polygon style="fill:#263238;" points="135.684,277.167 134.281,277.167 131.021,239.898 132.424,239.898 			"/>
			<polygon style="fill:#407BFF;" points="138.348,273.367 161.744,273.367 159.148,243.698 135.753,243.698 			"/>
			<polygon style="opacity:0.5;fill:#FFFFFF;" points="140.061,270.925 159.604,270.925 157.436,246.14 137.892,246.14 			"/>
		</g>
		<polygon points="158.792,277.167 157.023,256.948 155.642,256.948 157.411,277.167 		"/>
		<g>
			<polygon style="fill:#263238;" points="158.792,277.167 157.023,256.948 182.665,256.948 184.434,277.167 			"/>
			<polygon style="fill:#407BFF;" points="161.226,275.106 159.818,259.009 180.231,259.009 181.64,275.106 			"/>
			<polygon style="opacity:0.7;fill:#FFFFFF;" points="162.79,273.781 161.614,260.334 178.667,260.334 179.843,273.781 			"/>
		</g>
		<path style="opacity:0.3;" d="M131.188,286.428l0.36,4.1c0.119,1.352,1.251,2.39,2.609,2.39h4.535c1.357,0,2.49-1.038,2.609-2.39
			l0.36-4.1H131.188z"/>
		<path style="opacity:0.3;" d="M131.188,320.543l0.36,4.1c0.119,1.352,1.251,2.39,2.609,2.39h4.535c1.357,0,2.49-1.038,2.609-2.39
			l0.36-4.1H131.188z"/>
		<path style="opacity:0.3;" d="M131.188,354.657l0.36,4.1c0.119,1.352,1.251,2.39,2.609,2.39h4.535c1.357,0,2.49-1.038,2.609-2.39
			l0.36-4.1H131.188z"/>
	</g>
</g>
<g id="Plant">
	<g>
		<g>
			<g>
				<path style="fill:#407BFF;" d="M379.296,321.175c4.319-5.324,12.667-8.876,21.831-10.585c-0.719,2.621-0.18,5.04,1.37,5.634
					c1.729,0.662,4.047-1.194,5.178-4.146c0.319-0.833,0.496-1.658,0.567-2.437c9.24-0.751,18.48,0.312,24.647,3.271
					c0,0-6.038,5.442-12.876,19.751c-0.21-0.008-0.42-0.015-0.634-0.012c-4.426,0.045-7.993,2.182-7.966,4.773
					c0.019,1.893,1.954,3.501,4.719,4.215c-0.359,0.916-0.718,1.849-1.075,2.816c-6.515,17.631-23.894,4.886-23.738-7.182
					C391.319,337.272,369.618,333.105,379.296,321.175z"/>
				<g>
					<path style="fill:#407BFF;" d="M425.488,315.307c0.319-0.12,0.489-0.178,0.489-0.178
						C425.812,315.186,425.651,315.248,425.488,315.307z"/>
					<path style="fill:#407BFF;" d="M364.212,376.622c0,0.586,0.363,1.148,0.948,1.37c0.773,0.304,1.639-0.105,1.921-0.878
						c0.644-1.757,1.323-3.478,2.026-5.14c5.972-14.18,14.063-25.139,22.259-33.476c0.456-0.469,0.913-0.925,1.37-1.37
						c7.658-0.363,12.224,5.878,12.494,6.253c-3.243-7.517-10.749-7.716-10.948-7.728c14.426-13.594,28.453-19.308,31.204-20.35
						c-9.847,3.525-18.313,8.407-25.538,13.899c-0.855-9.391-6.814-10.28-6.814-10.28c5.374,3.349,5.55,9.192,5.398,11.381
						c-2.798,2.213-5.398,4.508-7.821,6.838h-0.012c-13.383,12.985-21.099,27.235-24.612,34.834
						c-0.808,1.756-1.393,3.15-1.768,4.098C364.247,376.248,364.212,376.435,364.212,376.622z"/>
				</g>
				<g style="opacity:0.4;">
					<path d="M425.488,315.307c0.319-0.12,0.489-0.178,0.489-0.178C425.812,315.186,425.651,315.248,425.488,315.307z"/>
					<path d="M364.212,376.622c0,0.586,0.363,1.148,0.948,1.37c0.773,0.304,1.639-0.105,1.921-0.878
						c0.644-1.757,1.323-3.478,2.026-5.14c5.972-14.18,14.063-25.139,22.259-33.476c0.456-0.469,0.913-0.925,1.37-1.37
						c7.658-0.363,12.224,5.878,12.494,6.253c-3.243-7.517-10.749-7.716-10.948-7.728c14.426-13.594,28.453-19.308,31.204-20.35
						c-9.847,3.525-18.313,8.407-25.538,13.899c-0.855-9.391-6.814-10.28-6.814-10.28c5.374,3.349,5.55,9.192,5.398,11.381
						c-2.798,2.213-5.398,4.508-7.821,6.838h-0.012c-13.383,12.985-21.099,27.235-24.612,34.834
						c-0.808,1.756-1.393,3.15-1.768,4.098C364.247,376.248,364.212,376.435,364.212,376.622z"/>
				</g>
			</g>
			<g>
				<path style="fill:#407BFF;" d="M354.21,321.297c-2.911-6.207-10.158-11.664-18.642-15.529c0.066,2.717-1.039,4.935-2.686,5.138
					c-1.837,0.227-3.641-2.133-4.028-5.27c-0.109-0.886-0.083-1.729,0.037-2.502c-8.787-2.953-18.012-4.146-24.71-2.757
					c0,0,4.55,6.735,7.743,22.27c0.206,0.043,0.411,0.087,0.619,0.141c4.285,1.109,7.232,4.042,6.583,6.551
					c-0.474,1.833-2.739,2.928-5.595,2.955c0.128,0.976,0.252,1.967,0.366,2.992c2.079,18.681,22.016,10.494,24.768-1.257
					C338.666,334.027,360.732,335.206,354.21,321.297z"/>
				<path style="fill:#F5F5F5;" d="M310.789,304.482c-0.281-0.193-0.431-0.291-0.431-0.291
					C310.504,304.288,310.645,304.386,310.789,304.482z"/>
				<path style="fill:#407BFF;" d="M335.291,330.395c0.293,0.445,0.585,0.89,0.878,1.346c-0.036-0.012-0.352-0.082-0.878-0.141
					c-0.023,0-0.059,0-0.082-0.012c-2.178-0.211-7.599-0.141-11.522,5.023c0.269-0.234,5.152-4.344,11.522-3.513h0.082
					c0.655,0.094,1.335,0.234,2.026,0.445c0.34,0.55,0.679,1.112,0.995,1.674v0.012c1.85,3.115,3.63,6.463,5.257,10.058
					c0.023,0.047,0.047,0.094,0.07,0.152c3.501,7.716,6.393,16.545,8.056,26.532c0.363,2.131,0.668,4.321,0.913,6.557
					c0.07,0.761,0.714,1.323,1.452,1.323c0.059,0,0.129,0,0.188-0.012c0.819-0.094,1.393-0.832,1.288-1.651
					c-0.175-1.311-0.515-3.454-1.101-6.218c-1.475-7.084-4.578-18.289-10.796-30.268c-0.012-0.047-0.035-0.082-0.07-0.129
					c-1.288-2.494-2.716-5.012-4.297-7.541c-1.229-1.967-2.564-3.946-3.981-5.901c-0.023-0.047-0.059-0.082-0.082-0.117
					c-0.609-0.831-1.229-1.663-1.874-2.494c0.199-1.077,0.691-3.021,1.874-4.929c0.023-0.047,0.046-0.082,0.082-0.129
					c1.194-1.885,3.079-3.735,6.03-4.684c0,0-3.126-0.305-6.03,2.892c-0.023,0.023-0.059,0.059-0.082,0.094
					c-1.089,1.218-2.131,2.939-2.974,5.351c-5.491-6.826-12.247-13.372-20.549-19.004c3.618,2.623,14.027,10.901,23.524,25.151
					C335.233,330.313,335.268,330.36,335.291,330.395z"/>
				<path style="opacity:0.5;" d="M335.291,330.395c0.293,0.445,0.585,0.89,0.878,1.346c-0.036-0.012-0.352-0.082-0.878-0.141
					c-0.023,0-0.059,0-0.082-0.012c-2.178-0.211-7.599-0.141-11.522,5.023c0.269-0.234,5.152-4.344,11.522-3.513h0.082
					c0.655,0.094,1.335,0.234,2.026,0.445c0.34,0.55,0.679,1.112,0.995,1.674v0.012c1.85,3.115,3.63,6.463,5.257,10.058
					c0.023,0.047,0.047,0.094,0.07,0.152c3.501,7.716,6.393,16.545,8.056,26.532c0.363,2.131,0.668,4.321,0.913,6.557
					c0.07,0.761,0.714,1.323,1.452,1.323c0.059,0,0.129,0,0.188-0.012c0.819-0.094,1.393-0.832,1.288-1.651
					c-0.175-1.311-0.515-3.454-1.101-6.218c-1.475-7.084-4.578-18.289-10.796-30.268c-0.012-0.047-0.035-0.082-0.07-0.129
					c-1.288-2.494-2.716-5.012-4.297-7.541c-1.229-1.967-2.564-3.946-3.981-5.901c-0.023-0.047-0.059-0.082-0.082-0.117
					c-0.609-0.831-1.229-1.663-1.874-2.494c0.199-1.077,0.691-3.021,1.874-4.929c0.023-0.047,0.046-0.082,0.082-0.129
					c1.194-1.885,3.079-3.735,6.03-4.684c0,0-3.126-0.305-6.03,2.892c-0.023,0.023-0.059,0.059-0.082,0.094
					c-1.089,1.218-2.131,2.939-2.974,5.351c-5.491-6.826-12.247-13.372-20.549-19.004c3.618,2.623,14.027,10.901,23.524,25.151
					C335.233,330.313,335.268,330.36,335.291,330.395z"/>
			</g>
			<g>
				<path style="fill:#407BFF;" d="M348.008,319.429c1.376-6.716,7.143-13.719,14.485-19.464c0.572,2.657,2.166,4.554,3.815,4.366
					c1.839-0.21,3.04-2.926,2.682-6.067c-0.101-0.887-0.325-1.7-0.622-2.424c7.852-4.929,16.54-8.249,23.377-8.469
					c0,0-2.846,7.613-2.311,23.464c-0.19,0.09-0.38,0.181-0.569,0.282c-3.906,2.082-6.084,5.623-4.866,7.91
					c0.89,1.671,3.349,2.205,6.132,1.562c0.104,0.979,0.216,1.971,0.345,2.995c2.355,18.648-18.945,15.358-24.374,4.58
					C366.101,328.164,344.925,334.479,348.008,319.429z"/>
				<path style="opacity:0.2;fill:#FFFFFF;" d="M348.008,319.429c1.376-6.716,7.143-13.719,14.485-19.464
					c0.572,2.657,2.166,4.554,3.815,4.366c1.839-0.21,3.04-2.926,2.682-6.067c-0.101-0.887-0.325-1.7-0.622-2.424
					c7.852-4.929,16.54-8.249,23.377-8.469c0,0-2.846,7.613-2.311,23.464c-0.19,0.09-0.38,0.181-0.569,0.282
					c-3.906,2.082-6.084,5.623-4.866,7.91c0.89,1.671,3.349,2.205,6.132,1.562c0.104,0.979,0.216,1.971,0.345,2.995
					c2.355,18.648-18.945,15.358-24.374,4.58C366.101,328.164,344.925,334.479,348.008,319.429z"/>
				<g>
					<path style="fill:#407BFF;" d="M386.282,292.911c0.228-0.254,0.351-0.384,0.351-0.384
						C386.514,292.655,386.4,292.784,386.282,292.911z"/>
					<path style="fill:#407BFF;" d="M365.512,328.323c-6.241,18.723-6.194,35.794-5.702,43.651c0.07,1.288,0.164,2.319,0.234,3.08
						c0.082,0.761,0.714,1.323,1.464,1.323c0.059,0,0.117,0,0.176-0.012c0.819-0.093,1.393-0.855,1.288-1.674
						c-0.117-0.913-0.222-1.815-0.316-2.717c-1.733-16.486,0.422-30.888,4.051-42.738c0.187-0.621,0.386-1.241,0.585-1.85
						c3.443-2.002,6.967-2.037,9.625-1.569c2.389,0.41,4.075,1.218,4.333,1.347c-1.37-1.124-2.764-1.838-4.098-2.283
						c-4.859-1.616-9.028,0.422-9.168,0.48c6.124-17.575,15.14-28.816,17.845-31.93c-6.897,7.505-12.002,15.573-15.796,23.593
						c-5.094-7.927-10.784-5.971-10.784-5.971c6.311,0.48,9.156,5.585,10.034,7.599
						C367.819,321.895,366.577,325.138,365.512,328.323z"/>
				</g>
				<g style="opacity:0.3;">
					<path d="M386.282,292.911c0.228-0.254,0.351-0.384,0.351-0.384C386.514,292.655,386.4,292.784,386.282,292.911z"/>
					<path d="M365.512,328.323c-6.241,18.723-6.194,35.794-5.702,43.651c0.07,1.288,0.164,2.319,0.234,3.08
						c0.082,0.761,0.714,1.323,1.464,1.323c0.059,0,0.117,0,0.176-0.012c0.819-0.093,1.393-0.855,1.288-1.674
						c-0.117-0.913-0.222-1.815-0.316-2.717c-1.733-16.486,0.422-30.888,4.051-42.738c0.187-0.621,0.386-1.241,0.585-1.85
						c3.443-2.002,6.967-2.037,9.625-1.569c2.389,0.41,4.075,1.218,4.333,1.347c-1.37-1.124-2.764-1.838-4.098-2.283
						c-4.859-1.616-9.028,0.422-9.168,0.48c6.124-17.575,15.14-28.816,17.845-31.93c-6.897,7.505-12.002,15.573-15.796,23.593
						c-5.094-7.927-10.784-5.971-10.784-5.971c6.311,0.48,9.156,5.585,10.034,7.599
						C367.819,321.895,366.577,325.138,365.512,328.323z"/>
				</g>
			</g>
			<g>
				<path style="fill:#263238;" d="M338.804,371.974l0.786,7.204h0.851l1.821,27.755c0.118,1.729,1.546,3.065,3.275,3.065h30.859
					c1.716,0,3.143-1.336,3.261-3.065l1.82-27.755h1.061l0.773-7.204H338.804z"/>
			</g>
		</g>
	</g>
</g>
<g id="Character">
	<g>
		<g>
			<path style="fill:#FF8B7B;" d="M277.438,132.697c-2.301,0.004-4.459,0.18-6.695,0.456c-2.221,0.286-4.446,0.697-6.719,1.315
				c-1.137,0.314-2.28,0.697-3.455,1.169c-1.178,0.486-2.381,1.046-3.634,1.918c-1.227,0.88-2.649,2.013-3.731,4.17
				c-0.524,1.073-0.856,2.426-0.832,3.749c0.009,1.055,0.223,2.038,0.521,2.891c0.711,2.657,1.615,5.012,2.606,7.305
				c0.977,2.301,2.06,4.482,3.191,6.63c1.118,2.154,2.319,4.238,3.558,6.294c1.274,2.054,2.493,4.053,3.932,6.092
				c1.748,2.465,5.146,3.182,7.743,1.561c2.694-1.682,3.515-5.23,1.833-7.924l-0.042-0.068c-1.147-1.838-2.415-3.783-3.574-5.703
				c-1.189-1.921-2.355-3.853-3.491-5.779c-1.121-1.931-2.23-3.866-3.228-5.788c-0.98-1.922-1.93-3.85-2.597-5.642l-0.049-0.133
				c0.904-0.852,2.52-1.824,4.208-2.611c1.712-0.829,3.575-1.567,5.475-2.27c1.888-0.703,3.89-1.36,5.78-1.992l0.121-0.04
				c1.14-0.383,1.959-1.461,1.957-2.73C280.314,133.98,279.025,132.695,277.438,132.697z"/>
			<path style="fill:#FF8B7B;" d="M277.056,133.533l6.156-6.713l3.013,8.632c0,0-5.244,4.86-8.349,1.751L277.056,133.533z"/>
			<path style="fill:#FF8B7B;" d="M288.971,127.186l1.765,3.356c0.63,1.198,0.139,2.68-1.081,3.265l-3.43,1.645l-3.013-8.632
				l3.014-0.826C287.307,125.698,288.449,126.194,288.971,127.186z"/>
		</g>
		<polygon style="fill:#FF8B7B;" points="238.402,392.714 231.409,390.173 235.259,373.32 242.253,375.86 		"/>
		<polygon style="fill:#FF8B7B;" points="293.565,402.003 286.141,402.003 284.034,384.81 291.458,384.81 		"/>
		<path style="fill:#263238;" d="M285.167,401.143h9.051c0.303,0,0.568,0.211,0.637,0.507l1.533,6.599
			c0.159,0.685-0.373,1.332-1.074,1.32c-2.912-0.05-5.039-0.221-8.707-0.221c-2.257,0-9.059,0.234-12.175,0.234
			c-3.048,0-3.554-3.081-2.281-3.36c5.708-1.251,10.001-2.977,11.816-4.623C284.294,401.302,284.723,401.143,285.167,401.143z"/>
		<path style="fill:#263238;" d="M231.153,388.751l7.945,1.704c0.297,0.064,0.513,0.325,0.518,0.629l0.114,6.759
			c0.012,0.701-0.627,1.225-1.311,1.066c-2.856-0.663-6.963-1.719-10.565-2.492c-4.212-0.903-6.823-1.755-11.762-2.815
			c-2.987-0.641-3.198-3.83-1.892-3.835c5.946-0.021,9.546,1.143,15.085-0.827C229.886,388.727,230.525,388.616,231.153,388.751z"/>
		<g>
			<polygon style="opacity:0.2;" points="235.26,373.325 233.273,382.012 240.27,384.553 242.256,375.866 			"/>
			<polygon style="opacity:0.2;" points="291.461,384.814 284.034,384.814 285.123,393.677 292.55,393.677 			"/>
		</g>
		<g>
			<g>
				<path style="fill:#407BFF;" d="M231.222,379.446l11.843,4.296c0,0,9.253-40.737,14.17-63.32
					c1.497-6.87,4.505-16.316,8.067-26.38c4.494-12.68,9.859-26.323,14.189-36.991c4.567-11.234,7.969-19.163,7.969-19.163
					l-25.606-5.185c0,0-19.538,56.222-23.927,78.443C233.362,334.251,231.222,379.446,231.222,379.446z"/>
			</g>
		</g>
		<path style="opacity:0.2;" d="M265.303,294.042c4.494-12.68,9.859-26.323,14.189-36.991l-1.982-6.129
			C270.185,257.704,265.611,281.065,265.303,294.042z"/>
		<g>
			<g>
				<path style="fill:#407BFF;" d="M275.67,235.501c0,0-4.572,64.105-4.848,85.887c-0.303,23.853,10.851,70.572,10.851,70.572
					h13.598c0,0-5.431-42.154-3.624-65.786c2.021-26.427,9.332-86.543,9.332-86.543L275.67,235.501z"/>
			</g>
		</g>
		<polygon style="fill:#263238;" points="280.049,392.254 296.061,392.254 296.013,387.471 279.297,386.505 		"/>
		<polygon style="fill:#263238;" points="229.641,379.294 243.824,384.217 245.367,379.641 229.856,373.992 		"/>
		<path style="fill:#407BFF;" d="M282.725,402.44c-0.565,0-1.094-0.096-1.434-0.379c-0.268-0.224-0.394-0.536-0.373-0.93
			c0.015-0.293,0.17-0.432,0.296-0.497c0.815-0.423,3.227,1.049,3.499,1.219c0.06,0.038,0.093,0.108,0.082,0.178
			c-0.011,0.07-0.062,0.126-0.131,0.143C284.15,402.298,283.411,402.44,282.725,402.44z M281.606,400.903
			c-0.092,0-0.169,0.014-0.228,0.044c-0.047,0.024-0.102,0.07-0.109,0.207c-0.015,0.28,0.066,0.489,0.245,0.638
			c0.41,0.34,1.38,0.387,2.637,0.134C283.309,401.441,282.176,400.903,281.606,400.903z"/>
		<path style="fill:#407BFF;" d="M284.623,402.178c-0.029,0-0.058-0.007-0.084-0.021c-0.772-0.418-2.274-2.044-2.125-2.872
			c0.027-0.15,0.135-0.41,0.555-0.461c0.273-0.031,0.525,0.043,0.751,0.226c0.87,0.704,1.069,2.847,1.077,2.938
			c0.006,0.065-0.024,0.126-0.078,0.161C284.69,402.169,284.657,402.178,284.623,402.178z M283.095,399.169
			c-0.026,0-0.053,0.001-0.08,0.005c-0.228,0.028-0.247,0.133-0.255,0.178c-0.088,0.489,0.871,1.718,1.64,2.298
			c-0.093-0.625-0.342-1.874-0.9-2.326C283.373,399.219,283.239,399.169,283.095,399.169z"/>
		<path style="fill:#407BFF;" d="M230.231,389.6c-0.008,0.001-0.016,0.001-0.024,0.001c-1.219-0.018-3.363-0.18-4.016-1.055
			c-0.197-0.264-0.247-0.568-0.152-0.906c0.058-0.201,0.188-0.338,0.378-0.397c0.989-0.309,3.605,1.805,3.901,2.046
			c0.058,0.048,0.08,0.126,0.055,0.196C230.351,389.549,230.296,389.592,230.231,389.6z M226.592,387.566
			c-0.025,0.003-0.047,0.007-0.068,0.014c-0.077,0.024-0.121,0.071-0.146,0.16c-0.065,0.229-0.035,0.424,0.094,0.597
			c0.367,0.492,1.549,0.818,3.21,0.896C228.641,388.438,227.179,387.495,226.592,387.566z"/>
		<path style="fill:#407BFF;" d="M230.231,389.6c-0.044,0.005-0.089-0.006-0.126-0.033c-0.797-0.582-2.215-2.524-1.913-3.316
			c0.071-0.186,0.257-0.395,0.74-0.343c0.359,0.04,0.66,0.208,0.895,0.5c0.77,0.957,0.565,2.953,0.556,3.038
			c-0.007,0.062-0.046,0.116-0.103,0.141C230.264,389.594,230.247,389.598,230.231,389.6z M228.713,386.256
			c-0.153,0.019-0.182,0.094-0.193,0.123c-0.18,0.475,0.749,1.962,1.534,2.691c0.024-0.591,0.004-1.816-0.501-2.444
			c-0.176-0.219-0.391-0.34-0.657-0.369C228.821,386.25,228.761,386.25,228.713,386.256z"/>
		<path style="fill:#263238;" d="M277.08,165.024c8.198-0.278,15.738,0.867,24.356,3.029c4.548,1.141,7.863,4.974,8.172,9.51
			c0.701,10.309-1.081,30.305-7.664,60.732c-0.311,1.437-1.575,2.497-3.09,2.561c-4.43,0.187-11.181-0.736-18.714-1.914
			c-1.001-0.156-3.285-2.656-3.285-2.656s-2.367,1.678-3.636,1.419c-4.102-0.836-8.035-1.769-10.477-2.676
			c-1.51-0.561-2.591-1.85-2.885-3.388c-1.327-6.941-1.109-20.119,5.825-31.48c0.707-7.909,0.717-16.952,1.265-25.456
			C267.287,169.416,271.617,165.21,277.08,165.024z"/>
		<path style="fill:#FF8B7B;" d="M297.196,154.89c-1.769,5.371-3.438,11.37-1.262,15.958c-3.022,2.839-8.251,5.1-13.284,2.976
			c-5.532-2.335-2.281-6.923-0.282-8.771c3.539-1.46,3.738-4.584,4.148-6.898L297.196,154.89z"/>
		<path style="opacity:0.2;" d="M286.477,158.382c-0.226,1.338-0.427,2.906-1.236,4.264c3.464,0.045,7.361-1.157,9.058-3.578
			c0.208-0.292,0.402-0.596,0.59-0.894L286.477,158.382z"/>
		<path style="fill:#FF8B7B;" d="M302.637,148.478c-4.082,6.254-6.154,10.125-11.308,11.56c-7.753,2.159-14.038-5.437-11.901-12.804
			c1.924-6.631,8.276-15.744,16.065-14.656C303.168,133.65,306.719,142.224,302.637,148.478z"/>
		<path style="fill:#263238;" d="M291.312,144.641c-0.3,0.528-0.822,0.794-1.166,0.595c-0.344-0.2-0.379-0.789-0.079-1.317
			c0.3-0.528,0.822-0.794,1.166-0.595C291.576,143.523,291.612,144.113,291.312,144.641z"/>
		<path style="fill:#263238;" d="M284.639,141.04c-0.3,0.528-0.822,0.794-1.166,0.595c-0.344-0.2-0.379-0.789-0.079-1.317
			c0.3-0.528,0.822-0.794,1.166-0.595C284.903,139.922,284.939,140.512,284.639,141.04z"/>
		<path style="fill:#FF5652;" d="M286.281,142.693c0,0-3.066,2.168-5.257,2.741c0.348,1.436,2.121,2.065,2.121,2.065
			L286.281,142.693z"/>
		<path style="fill:#263238;" d="M294.307,141.611c0.055,0.023,0.116,0.032,0.179,0.024c0.195-0.024,0.332-0.203,0.307-0.4
			c-0.253-1.966-1.725-2.708-1.787-2.739c-0.177-0.087-0.389-0.013-0.475,0.165c-0.085,0.177-0.011,0.391,0.165,0.478l0,0
			c0.048,0.024,1.19,0.615,1.392,2.184C294.104,141.457,294.192,141.564,294.307,141.611z"/>
		<path style="fill:#263238;" d="M283.914,137.258c0.093,0.069,0.217,0.091,0.333,0.049c1.473-0.54,2.515,0.212,2.558,0.244
			c0.158,0.117,0.38,0.084,0.496-0.074c0.116-0.158,0.084-0.381-0.073-0.5c-0.058-0.042-1.382-1.021-3.227-0.344
			c-0.184,0.068-0.279,0.273-0.211,0.459C283.815,137.161,283.859,137.218,283.914,137.258z"/>
		<path style="fill:#407BFF;" d="M294.957,165.617c-0.115,1.726-3.172,7.381-10.705,8.731c2.732,0.494,3.331,4.168,3.331,4.168
			s10.265-3.395,10.187-9.639C297.522,165.937,294.957,165.617,294.957,165.617z"/>
		<path style="fill:#407BFF;" d="M283.739,164.167c-0.111,1.687-2.63,4.839,0.513,10.182c-2.741-0.446-4.849,1.996-4.849,1.996
			s-2.748-5.815,1.145-11.322C282.233,164.001,283.739,164.167,283.739,164.167z"/>
		<path style="fill:#263238;" d="M290.359,134.895c0,0-7.147,0.159-6.342-3.676c0.534-2.545,4.373-1.579,4.373-1.579
			s-1.836-4.813,0.615-5.791c2.451-0.978,4.838,2.351,4.838,2.351s1.168-5.202,4.578-5.284c3.219-0.077,2.843,5.284,2.843,5.284
			s4.437-4.005,6.393-2.351c1.955,1.655-1.128,6.543-1.128,6.543s5.199-2.215,6.167,0.301c1.128,2.933-4.846,4.444-4.846,4.444
			s5.447,0.559,5.447,3.107c0,2.548-5.189,2.683-5.189,2.683s4.417,1.512,3.966,4.17c-0.451,2.658-4.895,1.766-4.895,1.766
			s-2.455,1.053-6.366,6.468c0,0-4.977,0.618-3.617-2.361c1.36-2.979,3.391-10.042,3.391-10.042s-6.941,1.767-5.039-2.864
			C295.548,138.063,285.569,139.04,290.359,134.895z"/>
		<g>
			<path style="fill:#FF8B7B;" d="M314.231,139.876l-2.295-8.148l-7.021,5.856c0,0,2.001,6.864,6.262,5.793L314.231,139.876z"/>
			<path style="fill:#FF8B7B;" d="M306.807,129.081l-3.239,1.972c-1.156,0.704-1.497,2.227-0.751,3.357l2.097,3.174l7.021-5.856
				l-2.161-2.258C309,128.66,307.765,128.498,306.807,129.081z"/>
			<path style="fill:#FF8B7B;" d="M335.62,144.383c-0.601-1.183-1.377-2.032-2.101-2.662c-0.731-0.631-1.434-1.069-2.1-1.428
				c-1.33-0.71-2.554-1.11-3.729-1.424c-1.176-0.311-2.302-0.534-3.413-0.694c-2.221-0.311-4.364-0.435-6.491-0.445
				c-2.141,0.024-4.192,0.09-6.361,0.349c-1.178,0.143-2.198,1.012-2.468,2.237c-0.343,1.552,0.637,3.088,2.189,3.431l0.12,0.027
				c1.85,0.409,3.809,0.799,5.662,1.286c1.866,0.462,3.702,0.956,5.401,1.546c0.847,0.293,1.665,0.595,2.391,0.936
				c0.399,0.184,0.767,0.38,1.089,0.572c-0.306,0.62-0.745,1.351-1.274,2.09c-0.651,0.9-1.384,1.84-2.185,2.762
				c-1.609,1.846-3.423,3.672-5.304,5.46c-1.892,1.78-3.856,3.539-5.86,5.263c-1.973,1.728-4.098,3.442-6.053,5.038l-0.093,0.076
				c-2.354,1.929-2.806,5.387-0.977,7.862c1.887,2.554,5.487,3.095,8.042,1.208c2.392-1.767,4.499-3.561,6.68-5.43
				c2.142-1.881,4.242-3.826,6.26-5.907c2.029-2.07,3.994-4.247,5.842-6.674c1.832-2.457,3.641-4.971,4.913-8.724
				c0.304-0.77,0.558-1.666,0.627-2.722C336.528,147.083,336.228,145.564,335.62,144.383z"/>
		</g>
		<path style="opacity:0.3;fill:#FFFFFF;" d="M304.349,145.471c-4.476,3.083-3.762-4.544-3.762-4.544s-2.031,7.064-3.391,10.042
			c-1.36,2.979,3.617,2.361,3.617,2.361c3.911-5.415,6.366-6.468,6.366-6.468L304.349,145.471z"/>
		<path style="fill:#FF8B7B;" d="M301.098,156.32c-1.698,1.071-3.734,1.25-5.339,0.85c-2.415-0.602-2.416-3.07-0.734-4.716
			c1.513-1.482,4.594-2.955,6.532-1.477C303.465,152.432,303.039,155.096,301.098,156.32z"/>
		<g>
			<path style="fill:#407BFF;" d="M314.996,159.61l1.648-1.182c0.525-0.376,1.254-0.26,1.636,0.26l6.462,8.803
				c0.359,0.489,0.288,1.17-0.164,1.575l-1.912,1.712L314.996,159.61z"/>
			<path style="fill:#263238;" d="M315.253,159.222l8.194,11.6c0,0-15.419,18.042-23.386,6.025
				C294.79,168.898,315.253,159.222,315.253,159.222z"/>
		</g>
		<g>
			<path style="fill:#407BFF;" d="M268.555,155.303l-1.108-1.699c-0.353-0.541-1.075-0.697-1.62-0.35l-9.212,5.865
				c-0.511,0.326-0.692,0.986-0.418,1.527l1.161,2.288L268.555,155.303z"/>
			<path style="fill:#263238;" d="M268.457,154.849l-11.839,7.844c0,0,7.836,22.402,19.615,14.087
				C284.024,171.28,268.457,154.849,268.457,154.849z"/>
		</g>
		<path style="fill:#FFFFFF;" d="M281.022,151.773c0,0,1.411,0.633,5.492,1.139c-0.325-1.72-1.091-3.186-3.183-3.419
			C281.238,149.26,281.022,151.773,281.022,151.773z"/>
	</g>
</g>
<g id="Speech_bubble_2">
	<g>
		<g>
			<path style="fill:#407BFF;" d="M354.753,133.159c0.494-2.072,0.411-4.197-0.233-6.202l-18.364,6.356l13.412-12.693
				c-1.046-0.647-2.183-1.119-3.394-1.407c-0.357-0.085-0.732-0.155-1.115-0.208l-3.461-0.479l3.159-1.493
				c3.2-1.513,5.505-4.35,6.323-7.785c0.757-3.177,0.13-6.545-1.721-9.24l-2.189-3.188l3.493,1.658
				c0.891,0.423,1.828,0.753,2.783,0.98c5.406,1.287,11.08-0.737,14.455-5.159l1.375-1.801l0.471,2.216
				c0.925,4.354,4.319,7.833,8.645,8.864c1.004,0.24,2.037,0.344,3.076,0.309l2.393-0.079l-1.573,1.804
				c-1.239,1.421-2.09,3.076-2.529,4.916c-1.034,4.339,0.551,8.943,4.038,11.732l2.163,1.729l-2.766,0.124
				c-5.132,0.229-9.548,3.882-10.74,8.882c-0.308,1.294-0.392,2.617-0.249,3.934l0.358,3.288l-2.177-2.491
				c-1.59-1.819-3.674-3.078-6.026-3.638c-2.84-0.676-5.807-0.261-8.354,1.171l-2.313,1.301l0.812-2.527
				C354.611,133.702,354.69,133.424,354.753,133.159z"/>
			<path style="fill:#407BFF;" d="M340.379,130.229l14.764-5.11c0.987,2.374,1.264,5.068,0.622,7.761
				c-0.077,0.324-0.17,0.64-0.27,0.951c2.671-1.502,5.891-2.042,9.106-1.276c2.651,0.632,4.902,2.059,6.568,3.966
				c-0.152-1.397-0.073-2.843,0.271-4.288c1.336-5.606,6.222-9.435,11.706-9.681c-3.696-2.956-5.57-7.877-4.401-12.786
				c0.49-2.055,1.459-3.87,2.757-5.359c-1.102,0.037-2.227-0.068-3.352-0.336c-4.897-1.167-8.44-5.043-9.422-9.66
				c-3.514,4.605-9.526,6.97-15.524,5.54c-1.051-0.25-2.049-0.607-2.988-1.053c1.949,2.838,2.736,6.458,1.875,10.071
				c-0.924,3.877-3.547,6.904-6.891,8.485c0.404,0.056,0.809,0.13,1.214,0.227c1.804,0.43,3.422,1.23,4.798,2.297L340.379,130.229z"
				/>
			<path style="opacity:0.7;fill:#FFFFFF;" d="M340.379,130.229l14.764-5.11c0.987,2.374,1.264,5.068,0.622,7.761
				c-0.077,0.324-0.17,0.64-0.27,0.951c2.671-1.502,5.891-2.042,9.106-1.276c2.651,0.632,4.902,2.059,6.568,3.966
				c-0.152-1.397-0.073-2.843,0.271-4.288c1.336-5.606,6.222-9.435,11.706-9.681c-3.696-2.956-5.57-7.877-4.401-12.786
				c0.49-2.055,1.459-3.87,2.757-5.359c-1.102,0.037-2.227-0.068-3.352-0.336c-4.897-1.167-8.44-5.043-9.422-9.66
				c-3.514,4.605-9.526,6.97-15.524,5.54c-1.051-0.25-2.049-0.607-2.988-1.053c1.949,2.838,2.736,6.458,1.875,10.071
				c-0.924,3.877-3.547,6.904-6.891,8.485c0.404,0.056,0.809,0.13,1.214,0.227c1.804,0.43,3.422,1.23,4.798,2.297L340.379,130.229z"
				/>
		</g>
		<path style="fill:#263238;" d="M365.767,126.189c-1.776,0-2.995-1.245-2.995-2.782c0-1.563,1.219-2.729,2.995-2.729
			c1.776,0,3.02,1.166,3.02,2.729C368.788,124.944,367.543,126.189,365.767,126.189z M367.781,119.194h-4.001l-1.008-11.792h5.989
			L367.781,119.194z"/>
	</g>
</g>
<g id="Speech_bubble_1">
	<g>
		<g>
			<path style="fill:#407BFF;" d="M202.202,144.499c-0.948-3.98-0.79-8.062,0.447-11.914l35.277,12.209l-25.765-24.383
				c2.008-1.242,4.193-2.149,6.52-2.704c0.685-0.163,1.406-0.298,2.142-0.4l6.649-0.92l-6.069-2.869
				c-6.147-2.906-10.575-8.356-12.146-14.954c-1.454-6.104-0.249-12.573,3.306-17.75l4.205-6.124l-6.711,3.185
				c-1.712,0.812-3.511,1.446-5.347,1.883c-10.386,2.473-21.286-1.415-27.769-9.911l-2.641-3.461l-0.905,4.258
				c-1.777,8.364-8.296,15.047-16.607,17.028c-1.928,0.46-3.913,0.661-5.909,0.593l-4.596-0.152l3.022,3.466
				c2.381,2.73,4.016,5.908,4.858,9.444c1.986,8.335-1.059,17.181-7.757,22.537l-4.155,3.322l5.314,0.238
				c9.859,0.441,18.343,7.457,20.632,17.063c0.592,2.485,0.753,5.028,0.477,7.558l-0.688,6.317l4.182-4.785
				c3.055-3.495,7.058-5.912,11.576-6.989c5.457-1.298,11.156-0.501,16.049,2.249l4.444,2.498l-1.559-4.853
				C202.475,145.542,202.324,145.009,202.202,144.499z"/>
			<path style="fill:#407BFF;" d="M229.814,138.871l-28.363-9.816c-1.897,4.56-2.427,9.737-1.195,14.908
				c0.148,0.622,0.326,1.229,0.519,1.827c-5.13-2.884-11.316-3.923-17.492-2.451c-5.092,1.213-9.417,3.955-12.618,7.618
				c0.292-2.684,0.141-5.462-0.521-8.238c-2.566-10.77-11.952-18.126-22.488-18.597c7.101-5.679,10.701-15.132,8.453-24.563
				c-0.941-3.948-2.802-7.435-5.297-10.295c2.118,0.07,4.279-0.131,6.44-0.646c9.408-2.242,16.214-9.687,18.099-18.557
				c6.751,8.846,18.3,13.389,29.822,10.643c2.02-0.481,3.937-1.166,5.741-2.022c-3.743,5.452-5.256,12.406-3.602,19.346
				c1.775,7.449,6.814,13.263,13.237,16.299c-0.776,0.107-1.554,0.25-2.331,0.436c-3.466,0.826-6.574,2.363-9.218,4.412
				L229.814,138.871z"/>
			<path style="opacity:0.7;fill:#FFFFFF;" d="M229.814,138.871l-28.363-9.816c-1.897,4.56-2.427,9.737-1.195,14.908
				c0.148,0.622,0.326,1.229,0.519,1.827c-5.13-2.884-11.316-3.923-17.492-2.451c-5.092,1.213-9.417,3.955-12.618,7.618
				c0.292-2.684,0.141-5.462-0.521-8.238c-2.566-10.77-11.952-18.126-22.488-18.597c7.101-5.679,10.701-15.132,8.453-24.563
				c-0.941-3.948-2.802-7.435-5.297-10.295c2.118,0.07,4.279-0.131,6.44-0.646c9.408-2.242,16.214-9.687,18.099-18.557
				c6.751,8.846,18.3,13.389,29.822,10.643c2.02-0.481,3.937-1.166,5.741-2.022c-3.743,5.452-5.256,12.406-3.602,19.346
				c1.775,7.449,6.814,13.263,13.237,16.299c-0.776,0.107-1.554,0.25-2.331,0.436c-3.466,0.826-6.574,2.363-9.218,4.412
				L229.814,138.871z"/>
		</g>
		<g>
			<path style="fill:#263238;" d="M164.816,98.123c0-4.067,3.196-7.05,7.534-7.05c4.338,0,7.534,2.983,7.534,7.05
				s-3.196,7.05-7.534,7.05C168.012,105.173,164.816,102.19,164.816,98.123z M176.011,98.123c0-2.343-1.607-3.873-3.66-3.873
				c-2.053,0-3.66,1.53-3.66,3.873c0,2.343,1.607,3.874,3.66,3.874C174.404,101.997,176.011,100.466,176.011,98.123z"/>
			<path style="fill:#263238;" d="M194.807,91.344v13.558h-3.835v-5.288h-5.23v5.288h-3.835V91.344h3.835v5.094h5.23v-5.094H194.807
				z"/>
			<path style="fill:#263238;" d="M201.11,102.888c0,0.542-0.077,0.968-0.639,2.227l-1.221,2.828h-2.304l0.91-3.156
				c-0.697-0.33-1.143-0.988-1.143-1.898c0-1.318,0.93-2.17,2.208-2.17C200.18,100.718,201.11,101.57,201.11,102.888z"/>
			<path style="fill:#263238;" d="M178.413,111.368v13.558h-3.157l-5.985-7.224v7.224h-3.757v-13.558h3.157l5.985,7.224v-7.224
				H178.413z"/>
			<path style="fill:#263238;" d="M180.435,118.147c0-4.067,3.196-7.05,7.534-7.05c4.339,0,7.534,2.983,7.534,7.05
				s-3.196,7.05-7.534,7.05C183.631,125.198,180.435,122.215,180.435,118.147z M191.63,118.147c0-2.343-1.607-3.873-3.66-3.873
				s-3.66,1.53-3.66,3.873s1.607,3.874,3.66,3.874S191.63,120.491,191.63,118.147z"/>
			<path style="fill:#263238;" d="M196.888,123.067c0-1.143,0.91-1.995,2.208-1.995s2.189,0.852,2.189,1.995
				c0,1.124-0.891,2.034-2.189,2.034S196.888,124.191,196.888,123.067z M196.907,111.368h4.378l-0.737,8.619h-2.925L196.907,111.368
				z"/>
		</g>
	</g>
</g>
</svg>
