<svg xmlns="http://www.w3.org/2000/svg" width="30" height="30" viewBox="0 0 30 30"><rect width="100%" height="100%" fill="#DDDDDD"/><path fill="#999999" d="m5.535 14.11-.39-.07q.04-.31.17-.55.13-.23.32-.39.2-.16.45-.24.25-.08.53-.08.31 0 .55.09.24.09.41.24.17.15.26.35.09.21.09.44 0 .21-.04.37-.05.15-.14.27-.08.12-.21.2-.13.08-.29.14.39.12.58.37.19.25.19.63 0 .33-.12.58-.12.24-.32.41-.21.17-.48.26-.26.09-.57.09-.32 0-.56-.08-.25-.07-.43-.22t-.3-.36q-.13-.21-.22-.49l.33-.14q.13-.05.24-.02.11.02.16.12l.12.2q.07.11.15.19.09.07.22.12.12.05.29.05.19 0 .33-.06t.23-.16q.1-.1.14-.22.05-.12.05-.24 0-.16-.03-.29-.04-.12-.14-.21-.11-.09-.3-.15-.2-.05-.53-.05v-.52q.27-.01.45-.06.18-.04.29-.13.11-.08.15-.2.04-.12.04-.27 0-.3-.17-.46-.17-.16-.46-.16-.13 0-.24.04-.11.03-.2.1-.09.07-.15.16t-.09.2q-.05.13-.13.18-.08.04-.23.02Zm6.09.89q0 .57-.12.99-.12.41-.34.69-.21.27-.5.4-.29.14-.63.14t-.63-.14q-.29-.13-.5-.4-.22-.28-.34-.69-.12-.42-.12-.99 0-.57.12-.99.12-.41.34-.69.21-.27.5-.4.29-.14.63-.14t.63.14q.29.13.5.4.22.28.34.69.12.42.12.99Zm-.76 0q0-.47-.07-.78-.07-.31-.19-.49-.11-.18-.26-.26-.15-.07-.31-.07t-.31.07q-.15.08-.26.26-.12.18-.19.49-.06.31-.06.78 0 .47.06.78.07.31.19.49.11.19.26.26.15.07.31.07t.31-.07q.15-.07.26-.26.12-.18.19-.49t.07-.78Zm5.53 1.18-.4.38-1.01-1.01-1.03 1.02-.39-.39 1.02-1.03-.97-.97.39-.39.97.97.98-.97.39.39-.97.98 1.02 1.02Zm2.49-2.07-.39-.07q.05-.31.18-.55.13-.23.32-.39t.44-.24q.25-.08.54-.08.3 0 .54.09.24.09.42.24.17.15.26.35.09.21.09.44 0 .21-.05.37-.04.15-.13.27-.09.12-.22.2-.13.08-.29.14.39.12.58.37.2.25.2.63 0 .33-.12.58-.12.24-.33.41-.2.17-.47.26-.27.09-.57.09-.33 0-.57-.08-.24-.07-.42-.22t-.31-.36q-.12-.21-.21-.49l.32-.14q.13-.05.24-.02.12.02.17.12.05.1.12.2.06.11.15.19.09.07.21.12.12.05.29.05.19 0 .33-.06t.24-.16q.09-.1.14-.22.05-.12.05-.24 0-.16-.04-.29-.03-.12-.14-.21-.1-.09-.3-.15-.19-.05-.52-.05v-.52q.27-.01.45-.06.18-.04.29-.13.1-.08.14-.2.05-.12.05-.27 0-.3-.17-.46-.18-.16-.46-.16-.13 0-.24.04-.11.03-.2.1-.09.07-.15.16t-.09.2q-.05.13-.14.18-.08.04-.23.02Zm6.1.89q0 .57-.12.99-.12.41-.34.69-.21.27-.51.4-.29.14-.63.14t-.63-.14q-.29-.13-.5-.4-.21-.28-.33-.69-.12-.42-.12-.99 0-.57.12-.99.12-.41.33-.69.21-.27.5-.4.29-.14.63-.14t.63.14q.3.13.51.4.22.28.34.69.12.42.12.99Zm-.77 0q0-.47-.07-.78-.06-.31-.18-.49t-.27-.26q-.15-.07-.31-.07t-.31.07q-.14.08-.26.26-.11.18-.18.49-.07.31-.07.78 0 .47.07.78.07.31.18.49.12.19.26.26.15.07.31.07t.31-.07q.15-.07.27-.26.12-.18.18-.49.07-.31.07-.78Z"/></svg>