<svg id="Layer_1" data-name="Layer 1" xmlns="http://www.w3.org/2000/svg" viewBox="0 0 156.42 150"><defs><style>.cls-1{fill:#2d3232;}</style></defs><path class="cls-1" d="M150.75,99.59l-16.87-9.74a4.9,4.9,0,0,1-2.45-4.23V66.14a11.36,11.36,0,0,0-5.68-9.83l-16.87-9.74a4.92,4.92,0,0,1-2.44-4.24V22.85A11.39,11.39,0,0,0,100.76,13L78.21,0,55.66,13A11.39,11.39,0,0,0,50,22.85V42.33a4.92,4.92,0,0,1-2.44,4.24L30.67,56.31A11.38,11.38,0,0,0,25,66.14V85.62a4.89,4.89,0,0,1-2.44,4.23L5.68,99.59A11.41,11.41,0,0,0,0,109.43v26l22.55,13a11.34,11.34,0,0,0,11.35,0l16.87-9.74a4.91,4.91,0,0,1,4.89,0l16.87,9.74a11.37,11.37,0,0,0,11.36,0l16.87-9.74a4.91,4.91,0,0,1,4.89,0l16.87,9.74a11.34,11.34,0,0,0,11.35,0l22.55-13v-26A11.4,11.4,0,0,0,150.75,99.59ZM100,22.85V42.33a11.39,11.39,0,0,0,5.68,9.83l16.87,9.74A4.91,4.91,0,0,1,125,66.14V85.62a11.38,11.38,0,0,0,5.67,9.83l16.87,9.74a4.9,4.9,0,0,1,2.45,4.24V128L81.44,88.44V9.33l16.09,9.29A4.89,4.89,0,0,1,100,22.85ZM8.91,105.19l16.87-9.74a11.39,11.39,0,0,0,5.68-9.83V66.14A4.9,4.9,0,0,1,33.9,61.9l16.87-9.74a11.39,11.39,0,0,0,5.68-9.83V22.85a4.91,4.91,0,0,1,2.44-4.23L75,9.33V88.44L6.47,128V109.43A4.9,4.9,0,0,1,8.91,105.19Zm121.73,37.7a4.91,4.91,0,0,1-4.89,0l-16.87-9.74a11.34,11.34,0,0,0-11.35,0l-16.87,9.74a4.91,4.91,0,0,1-4.89,0L58.9,133.15a11.36,11.36,0,0,0-11.36,0l-16.87,9.74a4.91,4.91,0,0,1-4.89,0L9.7,133.6,78.21,94l68.51,39.56Z"/></svg>