<svg xmlns="http://www.w3.org/2000/svg" xmlns:xlink="http://www.w3.org/1999/xlink" width="52" height="52"><defs><linearGradient id="a" gradientUnits="userSpaceOnUse" x1="284.569" y1="110.836" x2="291.472" y2="311.798" gradientTransform="matrix(.07034 0 0 .1041 5.8 -3.683)"><stop offset="0" style="stop-color:#6eaeff;stop-opacity:.996078"/><stop offset="1" style="stop-color:#36c3ff;stop-opacity:1"/></linearGradient><linearGradient id="c" gradientUnits="userSpaceOnUse" x1="372.777" y1="132.009" x2="374.312" y2="451.094" gradientTransform="matrix(.09559 0 0 .09559 .484 -.4)"><stop offset="0" style="stop-color:#fff;stop-opacity:1"/><stop offset="1" style="stop-color:#cecece;stop-opacity:1"/></linearGradient><linearGradient id="d" gradientUnits="userSpaceOnUse" x1="263.092" y1="560.316" x2="263.859" y2="314.866" gradientTransform="matrix(.0688 0 0 .11119 6.905 -5.448)"><stop offset="0" style="stop-color:#1d7dd7;stop-opacity:1"/><stop offset="1" style="stop-color:#73cdff;stop-opacity:1"/></linearGradient><linearGradient id="e" gradientUnits="userSpaceOnUse" x1="206.018" y1="310.24" x2="209.978" y2="369.673" gradientTransform="translate(-6.24 -9.005) scale(.12803)"><stop offset="0" style="stop-color:#1d7dd7;stop-opacity:1"/><stop offset="1" style="stop-color:#73cdff;stop-opacity:.0235294"/></linearGradient><linearGradient id="f" gradientUnits="userSpaceOnUse" x1="206.018" y1="310.24" x2="209.978" y2="369.673" gradientTransform="matrix(.09376 0 0 .09376 6.73 14.063)"><stop offset="0" style="stop-color:#1d7dd7;stop-opacity:1"/><stop offset="1" style="stop-color:#73cdff;stop-opacity:.0235294"/></linearGradient><linearGradient id="g" gradientUnits="userSpaceOnUse" x1="206.018" y1="310.24" x2="209.978" y2="369.673" gradientTransform="translate(18.515 -5.391) scale(.13498)"><stop offset="0" style="stop-color:#1d7dd7;stop-opacity:1"/><stop offset="1" style="stop-color:#73cdff;stop-opacity:.0235294"/></linearGradient><linearGradient id="h" gradientUnits="userSpaceOnUse" x1="206.018" y1="310.24" x2="209.978" y2="369.673" gradientTransform="matrix(.13004 0 0 .13004 10.114 -8.138)"><stop offset="0" style="stop-color:#1d7dd7;stop-opacity:1"/><stop offset="1" style="stop-color:#73cdff;stop-opacity:.0235294"/></linearGradient><linearGradient id="i" gradientUnits="userSpaceOnUse" x1="206.018" y1="310.24" x2="209.978" y2="369.673" gradientTransform="matrix(.12091 0 0 .12091 -8.773 .003)"><stop offset="0" style="stop-color:#1d7dd7;stop-opacity:1"/><stop offset="1" style="stop-color:#73cdff;stop-opacity:.0235294"/></linearGradient><radialGradient id="b" gradientUnits="userSpaceOnUse" cx="-72.882" cy="484.905" fx="-72.882" fy="484.905" r="131.668" gradientTransform="matrix(.08165 -.0497 .04371 .0285 18.114 11.096)"><stop offset="0" style="stop-color:#9fdffe;stop-opacity:.996078"/><stop offset="1" style="stop-color:#009de6;stop-opacity:1"/></radialGradient><symbol overflow="visible" id="j"><path style="stroke:none" d="M1.063-16.11h1.703V4.438H1.062Zm0 0"/></symbol></defs><path style="stroke:none;fill-rule:nonzero;fill:url(#a)" d="M6.875 2.313A4.426 4.426 0 0 0 2.441 6.75v24.781H49.52V6.75a4.427 4.427 0 0 0-4.438-4.438Zm0 0"/><path style="stroke:none;fill-rule:nonzero;fill:#003765;fill-opacity:.996078" d="m2.36 17.805.038 13.86 47.145.26.039-9.304-16.715 7.727-20.191-10.203-3.715 1.738Zm0 0"/><path style="stroke:none;fill-rule:nonzero;fill:url(#b)" d="m42.422 22.102-3.078 1.574-2.328-1.446-5.746 4.254-3.118-2.03-11.3 6.874.816.531c11.473 1.606 22.004-1.172 32.05-6.308Zm0 0"/><path style="stroke:none;fill-rule:nonzero;fill:url(#c)" d="M36.25 12.152c-3.73 0-6.754 2.586-6.754 5.778 0 .011 0 .023.004.035a4.73 4.73 0 0 0-1.3-.18c-2.493 0-4.52 1.895-4.544 4.246a6.111 6.111 0 0 0-.883-.07c-3.039 0-5.5 2.281-5.5 5.098a4.879 4.879 0 0 0 1.286 3.23l9.593-5.836 3.118 2.031 5.746-4.254 2.328 1.446 3.078-1.574 7.148 3.546c-.078-1.765.004-5.304.004-6.16-.222-1.453-2.285-2.293-4.55-2.293a5.118 5.118 0 0 0-2.028.43c-.187-3.066-3.152-5.473-6.746-5.473Zm0 0"/><path style="stroke:none;fill-rule:nonzero;fill:url(#d)" d="M2.441 31.566V44.68a4.426 4.426 0 0 0 4.434 4.437h38.207c2.461 0 4.438-1.98 4.438-4.437V31.566Zm0 0"/><path style="stroke:none;fill-rule:nonzero;fill:url(#e)" d="M9.8 38.074c3.286-2.054 6.977-4.39 10.903-5-1.445 4.801 13.203 4.074 18.957 4.375"/><path style="stroke:none;fill-rule:nonzero;fill:url(#f)" d="M18.477 48.543c2.41-1.504 5.109-3.219 7.984-3.664-1.059 3.516 9.672 2.984 13.883 3.207"/><path style="stroke:none;fill-rule:nonzero;fill:url(#g)" d="M46.922 38.973c-4.14.64-8.031 3.105-11.496 5.273l14.078-.402-.047-1.586c-2.207-.653-3.035-1.633-2.535-3.285Zm0 0"/><path style="stroke:none;fill-rule:nonzero;fill:url(#h)" d="M26.406 39.68c3.34-2.086 7.086-4.461 11.074-5.078-1.468 4.875 6.465 4.832 12.31 5.136"/><path style="stroke:none;fill-rule:nonzero;fill:url(#i)" d="M6.375 44.465c3.105-1.938 6.59-4.149 10.297-4.719-1.363 4.527 12.473 3.844 17.902 4.129"/><path style="stroke:none;fill-rule:evenodd;fill:#fff;fill-opacity:1" d="M8.102 22.234h26.187c1.137 0 2.055.922 2.055 2.055v19.469a2.055 2.055 0 0 1-2.055 2.054H8.102a2.057 2.057 0 0 1-2.055-2.054V24.289c0-1.133.922-2.055 2.055-2.055Zm0 0"/><use xlink:href="#j" x="26.875" y="40.09" style="fill:#24bd11;fill-opacity:1"/><path style="fill-rule:nonzero;fill:#082ac8;fill-opacity:1;stroke-width:3.78679;stroke-linecap:butt;stroke-linejoin:miter;stroke:#082ac8;stroke-opacity:1;stroke-miterlimit:4" d="M135.125 118.096 54.548-43.135H33.74l-1 2.27-71.653 161.269 10 20h20.846l17.923-40.27h75.461l19 38 1.193 2.346h20.577l8.961-17.961 1.154-2.27ZM51.74-38.635l78.347 156.692h-12.885L97.048 77.75H19.856l5.961-13.423h64.539l-51.5-102.962Zm-24 98.462 17.654-39.539 19.77 39.577H27.74Zm-61.73 60.461L35.317-35.673l47.77 95.5H70.202L47.779 14.98l-.77-1.5-10.73-21.5-63.885 141.116ZM6.933 95.673l-17.923 40.269h-13L36.47 2.365l6.308 12.73-19.923 44.77-.77 1.654-7.23 16.23-.73 1.693-.77 1.77-.423 1.038H92.01l-6.693 13.423Zm82.269 2.23 6.462-12.884 17.615 35.27-6.462 12.884Zm34.077 38.116h-12.846l6.692-13.423h12.885Zm0 0" transform="matrix(.10156 0 0 .10156 12.354 29.025)"/></svg>
