<svg id="Camada_1" data-name="Camada 1" xmlns="http://www.w3.org/2000/svg" viewBox="0 0 1080 430"><defs><style>.cls-1{fill:#fa4d09;}.cls-2{fill:#54565a;}.cls-3{fill:#55575b;}</style></defs><path class="cls-1" d="M311.05,348l-1.77.43c-1-.06-1.91-.18-2.87-.18q-127.86,0-255.72,0c-1.15,0-2.3.12-3.46.18l-1.39,0c-1.33-.45-.83-1.56-.83-2.45,0-17.68.05-35.37-.08-53.05,0-2.64.89-2.92,3-2.39,9.18,2.28,18.52,3.63,27.85,5.16,21.27,3.47,42.65,4.2,64.13,3.77a229.16,229.16,0,0,0,32.57-2.89c14.29-2.36,28.63-4.37,43-6.12a522,522,0,0,1,55.17-4c12.56-.19,25.09.32,37.51,2.58,2.37.43,2.81,1.53,2.8,3.7-.09,16.91-.05,33.82,0,50.73,0,1.15.11,2.3.17,3.46l-.06,1.06Z"/><path class="cls-1" d="M44.18,258.12v-4.63c0-1.06.13-2.12.13-3.18q0-14.22,0-28.43c0-1.56,0-2.76,2.14-2.91,6.74-.49,13.47-1.34,20.22-1.74,24.69-1.46,49.39-2.37,74.16-1.9,21.28.4,42.46,1.9,63.64,3.69a3.11,3.11,0,0,1,3,2.23q4.09,11.58,8.24,23.13c3.82,10.61,7.41,21.3,11.47,31.83.76,2,.44,3.05-1.75,3.48-6.72,1.34-13.39,3-20.14,4.07a471.38,471.38,0,0,1-51,5.57c-36.33,1.92-72.39-1-108.18-7.43-1.46-.27-1.88-.92-1.87-2.33,0-4.05-.05-8.11-.1-12.17v-9.28Z"/><path class="cls-1" d="M311.05,205.9c-.56,1-1.57.95-2.51,1.16-9.11,2-18.38,2.28-27.64,2.67-27.64,1.18-55.27.37-82.89-.27-9.46-.22-18.94-.29-28.37-1.22-2.08-.2-2.89-.56-2.69-3,1.55-18.85,2.91-37.73,4.3-56.6.58-8,.51-7.67,8.58-7,9.9.86,19.86,1,29.8,1.52,28.12,1.34,56.22.44,84.32-.75,5.67-.24,11.32-.9,17-1.37l.17,1.06c-.05,9.53-.15,19.06-.15,28.59,0,11.17.09,22.34.13,33.51Z"/><path class="cls-1" d="M311.09,86.39l-.15,43.17c0,3.73,0,3.7-3.71,3.74-12.66.11-25.31.21-38,.42-2.2,0-2.89-.55-3.09-2.87-1.09-13.07-2.42-26.13-3.66-39.2-.26-2.78-.42-5.58-.68-8.36-.17-1.76,1-1.51,2.06-1.51q9.42,0,18.85,0,13.62,0,27.24-.1C311.88,82.89,310.49,84.87,311.09,86.39Z"/><path class="cls-1" d="M46,81.6c12.66,0,25.33.12,38,.05,2.27,0,3,.6,3.45,2.94,3.22,15.34.76,30.6-.18,45.9-.14,2.33-.92,3.29-3.51,3.26-12-.15-24-.11-36,0-2.12,0-2.74-.49-2.72-2.73.15-16.43.14-32.86.18-49.3Z"/><path class="cls-1" d="M311.06,348l.25.26-.26-.25Z"/><path class="cls-1" d="M125.45,81.92c10.25,0,20.5.06,30.75-.06,2,0,2.48.85,2.82,2.42a216.9,216.9,0,0,1,3.6,25.78c1.49,15.62-.35,31.05-2.46,46.47-.33,2.48-1.18,4.88-1.62,7.35-.23,1.28-1.08,1.41-2,1.7a74.79,74.79,0,0,1-17.39,3c-12.26.9-24.53.79-36.66-1.67-2.83-.58-5.58-1.53-8.37-2.28-1.37-.36-1.16-1.34-1-2.3a246.79,246.79,0,0,0,3.41-34,156.31,156.31,0,0,0-2.66-37.2,12.64,12.64,0,0,1-.33-2.87c.06-2.07-1.75-4.74-.1-6,1.36-1,4.07-.3,6.18-.3h25.82Z"/><path class="cls-1" d="M311,250.29c0,9.47-.06,18.94,0,28.41,0,2.24-.41,2.59-2.73,2.14a242.83,242.83,0,0,0-50.43-4A170.38,170.38,0,0,0,239.63,278c-2,.24-2.94-.4-3.56-2.3-2.72-8.33-5.53-16.63-8.36-24.92-3-8.66-5.89-17.33-9-25.92-2.07-5.7-2.2-5.67,3.55-5.24,22.29,1.68,44.62,1.16,66.93,1,6.46,0,12.92-.64,19.36-1.25,2.1-.2,2.43.4,2.42,2.24-.06,9.57,0,19.13,0,28.7Z"/><path class="cls-1" d="M210.45,81.89c13.82,0,27.64.07,41.46-.06,2.35,0,3,.78,3.11,2.89q1.75,23.25,3.68,46.5c.19,2.2-1,2.09-2.41,2.09-8.5,0-17,.07-25.51.1-18.46.05-36.92,0-55.38.18-2.38,0-3.2-.56-3.12-3,.42-12-1.33-23.84-3.69-35.6q-1.08-5.37-2-10.79c-.3-1.79.27-2.29,2.13-2.28,13.92.09,27.84.05,41.76.05Z"/><path class="cls-1" d="M44.92,175.25c0-9.86,0-19.71,0-29.57,0-2,.48-2.62,2.56-2.63Q65.69,143,84,142.59c2.32-.05,2.6.49,2.21,2.74A173.39,173.39,0,0,0,85.32,203q.11.71.15,1.44c.27,3.63.27,3.6-3.48,3.59-11.41,0-22.81-.06-34.21,0-2.27,0-2.93-.62-2.9-2.92.13-10,.06-19.91.06-29.86Z"/><path class="cls-1" d="M125.63,207.86c-9.75,0-19.51-.06-29.27,0-2.21,0-3.38-.59-3.83-2.84a74.77,74.77,0,0,1-1.8-18.38c.19-3.75.85-7.49.93-11.25,0-2.5,1.16-2.61,3-2.19,12.82,2.88,25.84,3.33,38.88,2.82,7.61-.3,15.19-1.19,22.77-2,1.67-.17,2.07.3,2,1.79-.55,9.84-.43,19.69,0,29.53.09,2.25-1,2.48-2.82,2.47C145.54,207.83,135.59,207.85,125.63,207.86Z"/><path class="cls-2" d="M383,95.17q0-5.25,2.72-8c1.82-1.82,4.46-2.74,7.94-2.74h38.82A70.54,70.54,0,0,1,449,86.19a37.78,37.78,0,0,1,11.63,4.63,25.07,25.07,0,0,1,7.16,6.93,26.41,26.41,0,0,1,3.81,8.11,34.66,34.66,0,0,1,1.05,8.74,24.4,24.4,0,0,1-4.39,14.5,22.4,22.4,0,0,1-11.71,8.54Q467,140.77,472,147.79a27.34,27.34,0,0,1,5,16.26,34.11,34.11,0,0,1-1.28,9.44,28.09,28.09,0,0,1-4.47,8.85,30.58,30.58,0,0,1-8,7.49,40.92,40.92,0,0,1-12.33,5,69.24,69.24,0,0,1-17,1.92H393.65c-3.48,0-6.12-.91-7.94-2.74s-2.72-4.49-2.72-8Zm54.3,35.34q7.08,0,10.74-3.84t3.66-10.19a16.88,16.88,0,0,0-.82-5.52,11.8,11.8,0,0,0-2.84-4.47,13.06,13.06,0,0,0-5.95-3.17,36.24,36.24,0,0,0-9.61-1.1H403.68v28.29ZM433.87,179q11.6,0,16.77-4.34A14.43,14.43,0,0,0,455.81,163a14.85,14.85,0,0,0-4.59-11.36q-4.59-4.32-13.46-4.31H403.68V179Z"/><path class="cls-2" d="M497.2,147.2v-52q0-5.25,2.65-8c1.76-1.82,4.33-2.74,7.7-2.74s5.94.92,7.7,2.74,2.65,4.5,2.65,8v52q0,17,6.45,25.35t20.93,8.35q14.47,0,20.93-8.35t6.46-25.35v-52q0-5.25,2.64-8c1.77-1.82,4.33-2.74,7.7-2.74s5.94.92,7.71,2.74,2.64,4.5,2.64,8v52q0,25-11.82,38.24t-36.26,13.24q-24.35,0-36.21-13.24T497.2,147.2Z"/><path class="cls-2" d="M619.43,87.17c1.81-1.82,4.46-2.74,7.93-2.74h38.28q18.83,0,29.84,9.17t11,26.41q0,12.69-6.84,21.08a30.69,30.69,0,0,1-16.88,10.81l17.58,30.41a12.65,12.65,0,0,1,1.87,6.19,17,17,0,0,1-.67,3.72q-.66,2.55-4.78,4.35a12.2,12.2,0,0,1-4.51.94q-5.93,0-9.49-6.43l-21.09-36.44H637.4v31.43c0,3.5-.89,6.16-2.65,8s-4.33,2.74-7.7,2.74-5.94-.91-7.7-2.74-2.65-4.49-2.65-8V95.17Q616.7,89.92,619.43,87.17Zm18,15.13v35.5h28.24q10,0,15-4.67T685.56,120q0-8.39-4.94-13.05t-15-4.66Z"/><path class="cls-2" d="M726.71,186.07V95.17q0-5.25,2.73-8c1.81-1.82,4.46-2.74,7.93-2.74H796c3.48,0,6.12.76,7.94,2.27a8.12,8.12,0,0,1,2.72,6.59A8.21,8.21,0,0,1,804,100c-1.82,1.51-4.46,2.27-7.94,2.27H747.41v28.6H792.3q5.21,0,8,2.27a9,9,0,0,1,0,13c-1.84,1.52-4.5,2.27-8,2.27H747.41V179h49.4c3.48,0,6.12.76,7.94,2.28a8.09,8.09,0,0,1,2.72,6.58q0,4.4-2.72,6.66c-1.82,1.52-4.46,2.27-7.94,2.27H737.37c-3.47,0-6.12-.91-7.93-2.74S726.71,189.57,726.71,186.07Z"/><path class="cls-2" d="M824.59,182.93l36.95-88.78q3.81-9.65,13.62-9.64,9.65,0,13.69,9.64l36.8,88.78a14.5,14.5,0,0,1,1.24,5.57,11.8,11.8,0,0,1-1.28,4.82q-1.27,2.77-6.42,3.48A15.55,15.55,0,0,1,917,197q-7.47,0-11-8.7l-7.85-19.2h-46l-8,19.2q-2.18,5.18-4.94,6.94a10.77,10.77,0,0,1-5.87,1.76,16.73,16.73,0,0,1-2.34-.16c-3.37-.47-5.49-1.64-6.38-3.52a11.85,11.85,0,0,1-1.32-4.86A14.39,14.39,0,0,1,824.59,182.93Zm66.91-30.72-16.34-40.35-16.34,40.35Z"/><path class="cls-2" d="M939.65,147.2v-52c0-3.5.89-6.17,2.65-8s4.33-2.74,7.7-2.74,5.94.92,7.7,2.74,2.65,4.5,2.65,8v52q0,17,6.46,25.35t20.92,8.35q14.47,0,20.93-8.35t6.46-25.35v-52q0-5.25,2.65-8c1.76-1.82,4.33-2.74,7.7-2.74s5.94.92,7.7,2.74,2.65,4.5,2.65,8v52q0,25-11.83,38.24t-36.26,13.24q-24.35,0-36.21-13.24T939.65,147.2Z"/><path class="cls-3" d="M389.29,233.35a3.45,3.45,0,0,1,2.35-1.64,3.8,3.8,0,0,1,1.1-.16c1.62,0,2.75,1,3.37,3.06l30.6,97.48,27-96q1.25-4.47,5.64-4.47t5.73,4.47l27,96,30.6-97.48q.87-3.06,3.3-3.06a4.69,4.69,0,0,1,1.18.16c1.77.42,2.66,1.44,2.66,3a7.14,7.14,0,0,1-.31,2L496.7,340.16Q495.46,344,492,344q-3.69,0-4.71-3.84l-27.94-99-27.85,99q-1,3.84-4.71,3.84-3.45,0-4.7-3.84l-32.8-103.44a6.39,6.39,0,0,1-.32-1.88A3.63,3.63,0,0,1,389.29,233.35Z"/><path class="cls-3" d="M561.26,287.82a67.23,67.23,0,0,1,3.65-22.34,56,56,0,0,1,10.47-18.33,47.36,47.36,0,0,1,17.46-12.5,64.08,64.08,0,0,1,47.63,0,47.28,47.28,0,0,1,17.46,12.5,56,56,0,0,1,10.47,18.33,67.23,67.23,0,0,1,3.65,22.34A70.86,70.86,0,0,1,669.77,306a54.77,54.77,0,0,1-6.9,15.82,52.5,52.5,0,0,1-11.14,12.5,48.44,48.44,0,0,1-15.46,8.27,65.91,65.91,0,0,1-39.19,0,48.34,48.34,0,0,1-15.5-8.27,52.5,52.5,0,0,1-11.14-12.5,54.77,54.77,0,0,1-6.9-15.82A70.86,70.86,0,0,1,561.26,287.82Zm10.83,19.9A49.24,49.24,0,0,0,581,323.86a39.28,39.28,0,0,0,15,10.93,56.16,56.16,0,0,0,41.43,0,39.39,39.39,0,0,0,15-10.93,49.41,49.41,0,0,0,8.86-16.14,66.27,66.27,0,0,0,0-39.81,49.41,49.41,0,0,0-8.86-16.14,39.5,39.5,0,0,0-15-10.93,56.16,56.16,0,0,0-41.43,0,39.38,39.38,0,0,0-15,10.93,49.24,49.24,0,0,0-8.87,16.14,66.27,66.27,0,0,0,0,39.81Z"/><path class="cls-3" d="M713.78,340.16V235.47q0-3.84,3.84-3.84H761.4a37.11,37.11,0,0,1,13.93,2.47,26.06,26.06,0,0,1,10,6.78,29.68,29.68,0,0,1,5.85,9.91,35.86,35.86,0,0,1,2,12.11q0,12.77-7.73,21.55t-21.69,9.48l26.67,44.66a5,5,0,0,1,.71,2.43,8,8,0,0,1-.16,1.3c-.1.6-.65,1.13-1.64,1.6a4.47,4.47,0,0,1-1.65.4,4,4,0,0,1-3.53-2.36l-28.49-47.8H721.23v46q0,3.84-3.69,3.84T713.78,340.16Zm47.62-52.81a29.64,29.64,0,0,0,11.18-2,18,18,0,0,0,7.57-5.45,23.76,23.76,0,0,0,4.08-7.76,30.92,30.92,0,0,0,1.34-9.28,31.29,31.29,0,0,0-1.34-9.37,23.47,23.47,0,0,0-4.08-7.72,18.1,18.1,0,0,0-7.53-5.4,29.41,29.41,0,0,0-11.22-2H721.23v48.9Z"/><path class="cls-3" d="M838.67,231.63q3.69,0,3.69,3.84v56.42L905.84,233a4.56,4.56,0,0,1,3.06-1.33,3,3,0,0,1,2.19.86,3.28,3.28,0,0,1,1.1,2.63,3.77,3.77,0,0,1-1.49,2.94L865.58,279.9,913.13,338a4.53,4.53,0,0,1,1,2.58c0,.11,0,.42-.08.94a2.6,2.6,0,0,1-1.25,1.65,3.8,3.8,0,0,1-2.43.86,3.93,3.93,0,0,1-3.06-1.57l-47-57.67-18,16.77v38.63q0,3.84-3.69,3.84t-3.76-3.84V235.47Q834.91,231.63,838.67,231.63Z"/><path class="cls-3" d="M951,331.07a3.39,3.39,0,0,1,2.83-1.49,6,6,0,0,1,2.67.71q14.19,8.46,34,8.46,14.75,0,22.24-6.11t7.5-17.24a19.86,19.86,0,0,0-7.18-15.79q-7.18-6.15-24.6-10.23-20.09-4.69-28.6-12.26a24.15,24.15,0,0,1-8.51-18.85,25.4,25.4,0,0,1,9.45-20.18q9.45-8,26.56-8,20.25,0,32.33,6.66a4.34,4.34,0,0,1,2.16,1.88,4.65,4.65,0,0,1,.43,1.57,4.07,4.07,0,0,1-.75,2.12,3,3,0,0,1-2.71,1.17,7.39,7.39,0,0,1-2.82-.62q-11.7-6-28.64-6-12.95,0-20.67,5.88A18.53,18.53,0,0,0,959,258.27q0,8.31,6.86,14t23.66,9.6q20.09,4.62,29.23,12.46t9.14,21.08q0,14.42-9.85,22.29t-27.5,7.88q-23.46,0-38-9.17-1.65-.94-1.89-1.92a7.34,7.34,0,0,1-.23-1.45A3.47,3.47,0,0,1,951,331.07Z"/></svg>