<svg id="Layer_1" data-name="Layer 1" xmlns="http://www.w3.org/2000/svg" xmlns:xlink="http://www.w3.org/1999/xlink" viewBox="0 0 565.02 129.21">
  <defs>
    <style>
      .cls-1 {
        fill: url(#linear-gradient);
      }
    </style>
    <linearGradient id="linear-gradient" x1="226.4" y1="24.76" x2="225.8" y2="89.52" gradientUnits="userSpaceOnUse">
      <stop offset="0.03"/>
      <stop offset="0.66" stop-color="#454545"/>
      <stop offset="1" stop-color="#666"/>
    </linearGradient>
  </defs>
  <title>wxrks logo design without TM</title>
  <g>
    <polygon points="138.03 24.89 117.78 88.5 95.16 24.89 71.4 24.89 48.76 88.96 28.37 24.89 0 24.89 32.37 126.04 62.41 126.04 83.2 66.86 104.63 126.04 134.19 126.04 166.4 24.89 138.03 24.89"/>
    <path d="M295.31,24.83h26.61V42.5c9.15-13.31,22.25-17.67,38.27-17.67v29.3a53.1,53.1,0,0,0-5.62-.41c-16.22,0-32.23,12.87-32.23,34.24V126.1h-27Z"/>
    <path d="M400,0V66.41l37-41.59h33.89L430,68.28l45.74,57.81H442.21L413.1,86.17l-7.05,7.5A22.25,22.25,0,0,0,400,108.93v17.16H373V0Z"/>
    <path d="M473,95.52h26.36c1.45,7.81,8.19,12.5,20.08,12.5,12.35,0,18.86-2.72,18.86-10,0-16.66-62.87-3.33-62.87-44.71,0-20.38,18.72-31.61,44.47-31.61,29.61,0,41.51,14.14,42.93,32.86H537.23c0-7.44-7.08-11.65-17.64-11.65-11.56,0-17.24,4.13-17.24,9.36,0,21,62.67,4.54,62.67,45.33,0,22.05-17.24,31.61-45.23,31.61C484.92,129.21,474,114.86,473,95.52Z"/>
    <path class="cls-1" d="M281.84,24.86a55.45,55.45,0,0,1-110.89,0h27a28.45,28.45,0,0,0,56.89,0Z"/>
    <path d="M171,126.06a55.45,55.45,0,0,1,110.89,0h-27a28.45,28.45,0,0,0-56.89,0Z"/>
  </g>
</svg>
