<?xml version="1.0" encoding="UTF-8"?><svg id="Layer_1" xmlns="http://www.w3.org/2000/svg" viewBox="0 0 502.4 376.17"><defs><style>.cls-1{fill:#126dfe;stroke-width:0px;}</style></defs><path class="cls-1" d="M315.88,95.39c-17.86,0-33.9,7.87-44.81,20.33l-79.96,79.87-22.88-22.88c-3.96-4.49-6.04-9.91-6.01-16.06,0-13.38,10.8-24.07,24.18-24.07,6.07,0,11.41,2.05,15.87,5.98,1.41,1.27,5.48,5.46,5.48,5.46l25.31-25.31-7.31-7.28c-10.61-10.05-25.06-16.04-40.82-16.04-32.9,0-59.66,26.64-59.66,59.57,0,15.07,5.65,29.11,14.65,39.38l51.35,51.54,107.26-107.26c4.49-3.96,9.83-6.07,15.95-6.04,13.4.03,24.07,10.83,24.04,24.23,0,6.07-2.08,11.47-6.01,15.92l-71.29,71.29c-2.69,2.85-6.62,4.46-10.86,4.49-4.24-.03-8-1.8-10.69-4.65l-5.37-5.32-25.2,25.2,5.15,5.1c9.25,9.42,22.13,15.23,36.2,15.23h.03c14.1,0,26.78-5.79,36-15.2l74.31-74.47c9-10.27,14.71-24.32,14.68-39.41,0-32.9-26.7-59.57-59.63-59.57"/></svg>