<?xml version="1.0" encoding="UTF-8"?>
<svg version="1.1" viewBox="0 0 856 856" width="856" height="856" xmlns="http://www.w3.org/2000/svg">
<path transform="translate(199,6)" d="m0 0h458l34 3 23 4 19 5 15 6 21 11 19 14 16 16 9 11 11 16 10 19 9 27 5 26 3 31v464l-3 32-5 26-7 21-11 23-7 11-9 12-11 12-11 11-17 13-15 9-14 7-15 5-24 5-23 3-13 1-65 1h-319l-89-1-29-3-26-5-20-6-19-9-18-12-11-9-13-12-10-11-11-15-9-16-8-20-5-18-4-20-3-27-1-16v-446l2-29 4-27 6-23 6-15 8-16 8-12 10-13 11-12 8-8 13-10 13-8 17-9 20-7 27-6 26-3z" fill="#2FB2C7"/>
<path transform="translate(616,392)" d="m0 0h10l10 3 11 8 6 9 3 9v10l-5 19-8 21-9 19-11 18-10 14-7 9 6 7 21 21 8 7 77 77 8 7 9 9 6 10 3 10v10l-4 13-8 11-10 7-9 3h-15l-11-4-10-9-127-127-5 2-18 11-17 9-20 8-19 6-22 5-25 3h-44l-28-4-24-6-22-8-20-9-21-12-17-12-10-8-14-12-17-17v-2h-2l-2 4-12 11-34 34-6 3h-8l-6-3-5-6-1-3v-167l5-10 4-3 12-3h160l8 3 4 5 2 5v8l-4 7-63 63 2 4 12 12 11 9 13 10 18 11 21 10 18 6 23 5 22 2h12l23-2 23-5 20-7 17-8 19-12 14-11 13-12 11-12 12-16 12-20 8-19 6-17 5-8 7-7 10-5z" fill="#FFFEFF"/>
<path transform="translate(375,105)" d="m0 0h43l23 3 22 5 20 6 24 10 21 11 21 14 16 13 12 11 8 8 4-2 17-17h2v-2l8-7 24-24 6-3h8l8 5 3 6v167l-4 10-5 4-11 3h-159l-8-3-5-6-1-2v-11l6-8 55-55-2-4-13-12-13-10-16-10-17-9-21-8-20-5-25-3h-18l-20 2-22 5-20 7-16 8-11 6-14 10-11 9-18 18-10 13-12 19-9 19-8 22-6 9-8 7-9 4-5 1h-10l-10-3-9-6-8-9-4-9-1-5v-9l6-21 10-25 12-23 10-15 9-12 9-11 15-16 10-9 14-11 14-10 21-12 19-9 25-9 25-6 19-3z" fill="#FFFEFF"/>
</svg>
