<?xml version="1.0" encoding="UTF-8" standalone="no"?>
<!DOCTYPE svg PUBLIC "-//W3C//DTD SVG 1.1//EN" "http://www.w3.org/Graphics/SVG/1.1/DTD/svg11.dtd">
<svg width="100%" height="100%" viewBox="0 0 433 141" version="1.1" xmlns="http://www.w3.org/2000/svg" xmlnsXlink="http://www.w3.org/1999/xlink" xmlSpace="preserve" xmlnsSerif="http://www.serif.com/" style="fill-rule:evenodd;clip-rule:evenodd;stroke-linejoin:round;stroke-miterlimit:2;">
    <g transform="matrix(1,0,0,1,0,-501)">
        <g id="LOGOTYPE---BLACK" serifId="LOGOTYPE - BLACK" transform="matrix(0.999876,0,0,0.996483,-301.928,-284.569)">
            <rect x="301.965" y="789.255" width="432.059" height="140.335" style="fill:none;"/>
            <g transform="matrix(0.480659,0,0,0.482296,187.449,435.334)">
                <path d="M398.987,915.685L413.685,915.685C415.784,915.685 417.044,914.005 417.044,912.325L417.044,843.874C417.044,841.774 415.364,840.514 413.685,840.514L398.987,840.514C396.887,840.514 395.627,842.194 395.627,843.874L395.627,912.325C395.627,914.005 397.307,915.685 398.987,915.685ZM319.197,833.795L319.197,886.288L327.596,886.288L319.197,898.467L310.798,910.645L302.399,898.467L294,886.288L302.819,886.288L302.819,833.795C302.819,813.218 319.617,796 340.614,796L429.223,796C449.8,796 467.018,812.798 467.018,833.795L450.64,833.795C450.64,822.037 440.981,812.798 429.643,812.798L340.194,812.798C328.856,812.378 319.197,822.037 319.197,833.795ZM458.199,845.134L466.598,857.312L474.997,869.491L466.598,869.491L466.598,921.984C466.598,942.561 449.8,959.779 428.803,959.779L340.194,959.779C319.617,959.779 302.399,942.981 302.399,921.984L319.197,921.984C319.197,933.742 328.856,942.981 340.194,942.981L428.803,942.981C440.561,942.981 449.8,933.322 449.8,921.984L449.8,869.911L441.401,869.911L449.8,857.732L458.199,845.134ZM355.312,915.685L370.01,915.685C372.11,915.685 373.37,914.005 373.37,912.325L373.37,868.651C373.37,866.551 371.69,865.291 370.01,865.291L355.312,865.291C353.212,865.291 351.953,866.971 351.953,868.651L351.953,911.905C351.953,914.005 353.632,915.685 355.312,915.685Z" style="fill:url(#_Linear1);fill-rule:nonzero;"/>
            </g>
            <g transform="matrix(0.480659,0,0,0.482296,187.449,435.334)">
                <path d="M529.59,906.656C529.59,905.396 530.01,903.716 531.27,902.456C532.109,901.196 533.369,900.357 534.209,899.517C535.469,899.097 535.889,898.677 535.889,899.097C538.409,902.876 542.188,906.236 546.808,908.755C551.427,911.275 556.886,912.535 562.346,912.535C568.645,912.535 573.264,911.275 576.624,908.755C579.983,906.236 581.663,902.876 581.663,898.257C581.663,896.157 581.243,894.477 580.403,893.217C579.563,891.538 578.723,890.278 577.464,889.438C576.204,888.598 574.524,887.758 572.424,886.918C569.905,886.078 568.225,885.238 566.545,885.238C565.285,884.819 562.765,884.399 559.406,883.559C555.206,882.719 551.847,881.879 548.907,880.619C545.968,879.359 543.028,878.099 540.088,876C537.149,873.9 535.049,871.8 533.369,868.441C531.689,865.501 531.27,861.721 531.27,857.102C531.27,849.543 534.209,843.244 540.088,838.624C545.968,834.005 553.947,831.485 563.185,831.485C572.424,831.485 579.983,833.165 585.443,836.525C590.902,839.884 593.841,843.244 593.841,847.023C593.841,848.703 593.422,849.963 592.162,851.223C590.902,852.483 590.062,853.323 588.802,854.162C587.542,854.582 587.122,855.002 587.122,855.002C584.603,851.643 581.243,848.703 577.044,846.183C572.844,844.084 568.225,842.824 563.185,842.824C557.726,842.824 553.107,844.084 549.747,846.603C546.388,849.123 544.708,852.483 544.708,856.682C544.708,858.782 545.128,860.882 545.968,862.141C546.808,863.821 548.067,865.081 550.167,865.921C552.267,866.761 554.367,867.601 556.046,868.021C557.726,868.441 560.666,869.281 564.025,870.12C564.865,870.12 565.285,870.54 565.705,870.54C569.905,871.38 573.684,872.64 577.044,873.9C579.983,875.16 583.343,876.84 586.282,878.519C589.222,880.619 591.742,883.139 593.422,886.078C595.101,889.018 595.941,892.797 595.941,896.997C595.941,904.976 593.002,911.695 587.122,916.314C581.243,920.934 572.844,923.454 562.346,923.454C552.267,923.454 544.288,921.354 538.409,917.574C532.949,914.635 529.59,910.855 529.59,906.656ZM624.078,886.078L624.078,839.464C624.078,835.265 626.177,833.165 629.957,833.165L632.057,833.165C636.256,833.165 638.356,835.265 638.356,839.464L638.356,886.078C638.356,903.296 645.915,911.695 660.613,911.695C675.311,911.695 682.87,902.876 682.87,885.658L682.87,839.464C682.87,835.265 684.97,833.165 688.749,833.165L690.849,833.165C694.629,833.165 696.728,835.265 696.728,839.464L696.728,886.078C696.728,898.257 693.789,907.916 687.489,914.635C681.19,921.354 672.371,924.293 660.193,924.293C648.434,924.293 639.196,920.934 633.316,914.635C627.017,907.916 624.078,898.677 624.078,886.078ZM728.644,915.895L728.644,841.564C728.644,839.044 729.484,837.365 730.744,835.685C732.004,834.005 734.103,833.585 736.203,833.585L761.4,833.585C772.319,833.585 780.717,835.685 786.177,840.304C791.636,844.924 794.576,851.223 794.576,860.042C794.576,867.601 792.476,873.9 787.857,878.519C783.237,883.139 776.938,885.658 768.119,886.498L794.156,917.154C794.576,917.574 794.156,917.994 793.736,918.834C793.316,919.674 792.056,920.514 790.796,921.354C789.536,922.194 787.857,922.614 785.757,922.614C782.397,922.614 779.458,920.934 776.518,917.154L752.161,887.338L742.502,887.338L742.502,915.895C742.502,920.094 740.403,922.194 736.623,922.194L734.523,922.194C730.324,923.034 728.644,920.514 728.644,915.895ZM742.082,876.42L760.98,876.42C767.279,876.42 772.319,875.16 775.258,872.22C778.618,869.281 779.878,865.501 779.878,860.462C779.878,849.963 773.158,844.504 760.14,844.504L741.663,844.504L742.082,876.42ZM823.552,915.475L823.552,841.564C823.552,839.044 824.392,837.365 825.652,835.685C826.912,834.005 829.011,833.585 831.111,833.585L879.405,833.585C883.604,833.585 886.124,835.685 886.124,839.464L886.124,840.304C886.124,844.084 884.024,846.183 879.405,846.183L837.41,846.183L837.41,874.74L868.486,874.74C872.686,874.74 875.205,876.42 875.205,880.199L875.205,880.619C875.205,884.399 873.106,886.498 868.486,886.498L837.83,886.498L837.83,916.734C837.83,920.934 835.73,923.034 831.531,923.034L829.431,923.034C825.652,923.034 823.552,920.514 823.552,915.475ZM912.161,914.635L912.161,841.564C912.161,839.044 913.001,837.365 914.26,835.685C915.52,834.005 917.62,833.585 919.72,833.585L971.373,833.585C975.572,833.585 978.092,835.685 978.092,839.464L978.092,840.304C978.092,844.084 975.992,846.183 971.373,846.183L926.019,846.183L926.019,871.38L960.874,871.38C965.074,871.38 967.593,873.06 967.593,876.84L967.593,877.259C967.593,881.039 965.494,883.139 960.874,883.139L926.019,883.139L926.019,910.015L972.213,910.015C976.412,910.015 978.512,911.695 978.512,915.895L978.512,916.734C978.512,920.934 976.412,923.034 972.213,923.034L919.72,923.034C917.62,923.034 915.52,922.194 914.26,920.934C913.001,918.834 912.161,917.154 912.161,914.635ZM1007.07,915.895L1007.07,841.564C1007.07,839.044 1007.91,837.365 1009.17,835.685C1010.43,834.005 1012.53,833.585 1014.63,833.585L1039.82,833.585C1050.74,833.585 1059.14,835.685 1064.6,840.304C1070.06,844.924 1073,851.223 1073,860.042C1073,867.601 1070.9,873.9 1066.28,878.519C1061.66,883.139 1055.36,885.658 1046.54,886.498L1072.58,917.154C1073,917.574 1072.58,917.994 1072.16,918.834C1071.74,919.674 1070.48,920.514 1069.22,921.354C1067.96,922.194 1066.28,922.614 1064.18,922.614C1060.82,922.614 1057.88,920.934 1054.94,917.154L1030.59,887.338L1020.93,887.338L1020.93,915.895C1020.93,920.094 1018.83,922.194 1015.05,922.194L1012.95,922.194C1009.17,923.034 1007.07,920.514 1007.07,915.895ZM1020.93,876.42L1039.82,876.42C1046.12,876.42 1051.16,875.16 1054.1,872.22C1057.46,869.281 1058.72,865.501 1058.72,860.462C1058.72,849.963 1052,844.504 1038.98,844.504L1020.51,844.504L1020.93,876.42Z" style="fill-rule:nonzero;"/>
            </g>
        </g>
    </g>
    <defs>
        <linearGradient id="_Linear1" x1="0" y1="0" x2="1" y2="0" gradientUnits="userSpaceOnUse" gradientTransform="matrix(204.66,-38.727,38.727,204.66,294,959.779)"><stop offset="0" style="stop-color:rgb(232,77,140);stop-opacity:1"/><stop offset="1" style="stop-color:rgb(248,217,138);stop-opacity:1"/></linearGradient>
    </defs>
</svg>
