<svg xmlns="http://www.w3.org/2000/svg" viewBox="0 0 656.7 150" xml:space="preserve">
  <path d="M438.8 98.2c0-4.9 2.9-7.8 9-8.7l14.1-2v3.8c0 8.5-6.1 14.5-14.5 14.5-5.7 0-8.6-2.7-8.6-7.6m-136-34.7V45h26.4c6.9 0 9.7 2.7 9.7 9.2 0 6.4-2.9 9.4-9.7 9.4zm0 36.8V79.9h25.9c8.5 0 12.7 3.2 12.7 9.7 0 6.9-4.4 10.6-12.7 10.6zm-80.7-22 11.5-31.8h.8l11.4 31.8zm351.7 38.4h14.7v-14.6h-8.8c-3.6 0-4.9-1.3-4.9-4.9v-27h21.6l19 47.8c1.8 4.5-.3 7.4-5.3 7.4h-12.4V140h12.8c11.9 0 17.4-3.7 21.1-14.1l25.1-70.2v-.3h-18.2l-13.3 42.8h-.8l-14.7-42.8h-35V36.1h-17.2v19.3h-10.1v14.7h10.2v30.2c0 12 4.4 16.4 16.2 16.4m-131.6 2.6c8.5 0 15.5-3.5 19.7-9.7h.8c1.8 5 7.4 8.5 14.5 8.5 6 0 10.5-2.6 13.3-7.7 6.3 5 15.2 7.8 25.6 7.8 18.6 0 30.5-9 30.5-22.9 0-10.6-7-16.1-23.8-18.1l-7.9-.9c-6-.6-7.8-1.7-7.8-4.2 0-3.5 3.3-5.6 8.7-5.6 5.8 0 11 2.7 13.7 7.2l15.4-6.7c-4.9-8.5-16-14-29.2-14-15.8 0-25.9 7.8-25.9 20 0 10.5 7.6 16.7 22.7 18.7l8.3 1.2c5.9.8 8.5 2.3 8.5 5.3 0 3.7-4.1 6.5-11.7 6.5-8.5 0-14.7-3.5-17.2-9.7l-7.7 4.9c-2.9 1.9-5.3 2.7-7.9 2.8-4.2-.3-5.8-1.8-5.8-5.5v-22c0-15.2-8.3-22-26.9-22-16.9 0-26.1 5.9-28.7 18.2l17.5 3.1c1-4.7 4.9-7.3 11-7.3 6.7 0 9.9 2.8 9.9 8.8v.6l-19.6 2.9c-12.9 1.9-20.6 9.5-20.6 20.8 0 11.4 8.1 19 20.6 19m-53.9-2.6h19V45h29.6V28.6h-75.6V45h27zm-104.4 0h49.6c17.3 0 27.4-9 27.4-24.2 0-11.5-5.9-18.7-17-21.1v-.8c9.7-3.3 14.5-9.9 14.5-20.1 0-14.3-9.1-21.9-26.3-21.9h-48.2zm-94.8 0h19.2l7.9-22h35.5l7.9 22h20.1v-.3l-33.9-87.9h-22.9l-33.8 87.9zM187.9 0l-27 116.7H51.5l26 11.1-2 8.7H16.6l14.6 6.7-1.5 6.8H0l10.9-47.3h17.3L40 52.4h32.8L84.8 0z" style="fill:#3100be"/>
</svg>
