<?xml version="1.0" encoding="UTF-8"?><svg id="Layer_1" xmlns="http://www.w3.org/2000/svg" viewBox="0 0 802 566"><defs><style>.cls-1{fill:#ee4440;}</style></defs><path class="cls-1" d="M612.33,217.4c.47-24.29-1.01-47.7-7.67-71.17-6.56-23.09-20.92-45.27-41.69-57.92-14.76-8.99-31.04-14.96-48.51-15.24-19.02-.31-37.72,3.79-54.44,13.05-13.25,7.34-25.82,15.68-37.73,24.89-10.94-10.45-24.11-17.87-39.42-20.91-35.59-7.06-69.8,14.03-96.26,35.34-51.95,41.83-91.53,100.51-111.71,164.02-5.34,16.8-9.65,33.98-12.22,51.42-1.76,11.92,7.47,24.79,19.75,25.89,12.57,1.12,24-6.98,25.89-19.75,1.51-10.19,3.6-20.27,6.19-30.23,7.46-26.11,18.2-51.21,31.73-74.74,13.68-22.66,29.88-43.74,48.54-62.53,13.39-12.94,28.02-25.17,43.95-34.85,5.33-2.9,10.84-5.4,16.56-7.36.89-.31,2.37-.73,3.28-.95,7.25-1.75,10.23-1.54,14.3-1.17,1.81.16,5.32.98,8.47,2.36,3.16,1.38,5.12,3.14,6.54,4.3-2.81,2.89-5.58,5.83-8.29,8.82-20.97,23.12-37.58,50.55-51.97,78.15-13.08,25.09-22.71,51.6-30.2,78.85-8.65,31.47-16.36,63.11-15.89,95.94.28,20.01,5.8,40.64,21.28,54.25,14.53,12.78,35.8,12.74,52.89,5.82,26.46-10.71,43.96-33.57,57.49-57.41,12.09-21.3,22.14-44.12,31.56-66.7,10.94-26.24,16.99-56.05,20.22-84.25,1.85-16.13,2.7-32.55,1.12-48.74-1.43-14.67-5.22-29.32-10.72-42.99-2-4.98-4.24-9.98-6.69-14.9,8.98-7.09,18.37-13.65,28.17-19.52,4.42-2.43,8.93-4.6,13.61-6.41,3.39-1.31,6.91-2.28,10.5-2.88,3.34-.56,6.71-.91,10.11-1.06,10.37-.37,18.42,2.84,25.47,7.04,1.59,1.04,3.14,2.13,4.64,3.28,3.38,2.59,6.41,5.62,9,9.01.76.99,1.49,2,2.2,3.03,1.28,1.86,2.41,3.82,3.39,5.86,2.38,4.95,4.33,10.1,5.92,15.37,3.8,15.46,4.93,31.43,5.04,47.32-.05,9.66-.3,19.36-1.07,28.97-1.37,17.05-4.57,33.89-8.9,50.42-10.34,36.75-24.99,73.17-44.14,106.24-10.04,16.52-21.58,32.08-35.12,45.9-2.66,2.54-5.38,5.02-8.17,7.42-9.12,7.86-12.62,22.33-4.34,32.27,7.59,9.12,22.53,12.73,32.27,4.34,26.37-22.72,46.44-50.55,62.88-81.05,15.77-29.25,50.35-91.02,52.19-186.81ZM412.61,291.88c-5.06,17.36-12.36,33.87-19.82,50.31-7.08,15.6-14.15,31.21-22.69,46.07-5.34,8.73-11.26,17.12-18.29,24.57-2.97,2.73-10.8,9.32-15.92,9.98-4.06.6-6.05-5.47-6.62-7.18-1.23-5.62-1.92-11.02-2.07-16.78.49-25.25,6.45-50.29,13-74.61,9.22-33.13,21.96-64.64,39.21-94.4,10.12-16.84,21.08-32.8,33.78-47.57,1.44,3.64,2.74,7.34,3.88,11.11,2.57,10.45,3.82,21.1,4.03,31.85-.39,22-2.97,45.34-8.49,66.65Z"/></svg>