<?xml version="1.0" encoding="UTF-8"?><svg id="Layer_1" xmlns="http://www.w3.org/2000/svg" viewBox="0 0 1366 454"><defs><style>.cls-1{fill:#5d1a2c;}.cls-2{fill:#ee4440;}</style></defs><path class="cls-2" d="M283.5,92.69c-7.1-4.32-14.92-7.19-23.32-7.33-9.14-.15-18.13,1.82-26.17,6.27-6.37,3.53-12.41,7.54-18.13,11.96-5.26-5.02-11.59-8.59-18.95-10.05-17.1-3.39-33.55,6.74-46.27,16.98-24.97,20.1-43.99,48.31-53.69,78.83-2.56,8.07-4.64,16.33-5.88,24.72-.85,5.73,3.59,11.92,9.49,12.44,6.04.54,11.53-3.36,12.44-9.49.72-4.9,1.73-9.74,2.97-14.53,3.58-12.55,8.75-24.62,15.25-35.92,6.58-10.89,14.36-21.03,23.33-30.06,6.44-6.22,13.47-12.1,21.12-16.75,2.56-1.39,5.21-2.59,7.96-3.54.43-.15,1.14-.35,1.58-.46,3.49-.84,4.91-.74,6.88-.56.87.08,2.55.47,4.07,1.14,1.52.66,2.46,1.51,3.14,2.07-1.35,1.39-2.68,2.8-3.99,4.24-10.08,11.11-18.06,24.3-24.98,37.56-6.29,12.06-10.92,24.8-14.52,37.9-4.16,15.12-7.86,30.33-7.64,46.11.14,9.62,2.79,19.53,10.23,26.08,6.99,6.14,17.21,6.12,25.42,2.8,12.72-5.15,21.13-16.13,27.63-27.59,5.81-10.24,10.64-21.2,15.17-32.06,5.26-12.61,8.17-26.94,9.72-40.5.89-7.75,1.3-15.64.54-23.43-.69-7.05-2.51-14.09-5.15-20.66-.96-2.39-2.04-4.8-3.22-7.16,4.31-3.41,8.83-6.56,13.54-9.38,2.13-1.17,4.29-2.21,6.54-3.08,1.63-.63,3.32-1.1,5.05-1.38,1.61-.27,3.22-.44,4.86-.51,4.99-.18,8.86,1.36,12.24,3.38.76.5,1.51,1.02,2.23,1.58,1.63,1.25,3.08,2.7,4.33,4.33.36.48.72.96,1.06,1.46.62.89,1.16,1.84,1.63,2.82,1.15,2.38,2.08,4.85,2.84,7.39,1.82,7.43,2.37,15.11,2.42,22.74-.03,4.64-.14,9.3-.51,13.92-.66,8.2-2.2,16.29-4.28,24.24-4.97,17.66-12.01,35.17-21.21,51.06-4.82,7.94-10.37,15.42-16.88,22.06-1.28,1.22-2.59,2.41-3.93,3.57-4.38,3.78-6.07,10.73-2.08,15.51,3.65,4.38,10.83,6.12,15.51,2.08,12.67-10.92,22.32-24.29,30.22-38.96,7.58-14.06,24.2-43.75,25.09-89.79.22-11.67-.49-22.93-3.69-34.21-3.15-11.1-10.05-21.76-20.04-27.84ZM211.24,190.53c-2.43,8.34-5.94,16.28-9.53,24.18-3.4,7.5-6.8,15-10.91,22.14-2.57,4.19-5.41,8.23-8.79,11.81-1.43,1.31-5.19,4.48-7.65,4.8-1.95.29-2.91-2.63-3.18-3.45-.59-2.7-.92-5.3-.99-8.06.24-12.14,3.1-24.17,6.25-35.86,4.43-15.92,10.55-31.07,18.85-45.37,4.87-8.09,10.13-15.77,16.23-22.86.69,1.75,1.32,3.53,1.87,5.34,1.23,5.02,1.84,10.14,1.93,15.31-.19,10.57-1.43,21.79-4.08,32.03ZM449.04,142.42c-13.75,0-20.62,6.01-24.4,13.75h-2.75c-3.95-7.9-11.17-13.75-23.89-13.75s-19.07,5.5-22.17,11.34h-2.75v-9.97h-17.36v84.72h17.7v-50.52c0-13.4,7.22-20.62,18.21-20.62,10.14,0,16.15,5.84,16.15,15.98v55.16h17.7v-50.52c0-13.4,7.22-20.62,18.21-20.62,10.14,0,16.15,5.84,16.15,15.98v55.16h17.7v-56.36c0-19.25-12.2-29.73-28.52-29.73ZM562.63,208.58v-34.88c0-20.62-13.4-32.31-35.4-32.31s-32.82,11.51-36.94,24.92l16.5,5.33c2.06-9.11,8.08-15.47,20.28-15.47s18.21,6.53,18.21,16.33v5.5h-25.78c-18.56,0-32.31,8.93-32.31,26.12s13.75,26.81,31.79,26.81,23.71-8.93,26.29-14.43h2.75v.51c0,7.05,5.5,11.51,13.4,11.51h13.23v-14.78h-7.22c-3.09,0-4.81-1.72-4.81-5.16ZM545.28,193.46c0,14.26-9.62,22.85-23.71,22.85-10.48,0-16.67-4.98-16.67-12.72s6.19-11.86,15.64-11.86h24.75v1.72ZM605.08,153.76h-2.75v-9.97h-17.36v84.72h17.7v-49.83c0-13.06,8.08-19.25,19.59-19.25h10.83v-15.98h-10.14c-9.11,0-15.12,3.26-17.87,10.31ZM718.49,143.8h-23.54l-33.34,32.99h-2.75v-68.56h-17.7v120.29h17.7v-35.23h2.75l35.05,35.23h23.2l-44.16-43.65,42.79-41.07ZM787.23,186.58c0,18.39-9.45,28.35-24.06,28.35-13.06,0-20.79-6.87-20.79-21.48v-49.66h-17.7v50.86c0,21.82,13.92,35.4,33.34,35.4,16.15,0,23.54-7.22,26.81-14.26h2.75v12.72h17.36v-84.72h-17.7v42.79ZM866.27,141.39c-16.5,0-24.57,7.04-28.87,14.61h-2.75v-12.2h-17.36v119.08h17.7v-45.88h2.75c3.95,6.87,12.03,13.92,28.52,13.92,21.31,0,39.18-16.15,39.18-43.47v-2.58c0-27.32-18.04-43.47-39.18-43.47ZM887.58,186.93c0,18.22-11,28.53-26.46,28.53s-26.29-10.31-26.29-28.53v-1.55c0-18.22,11.17-28.35,26.29-28.35s26.46,10.14,26.46,28.35v1.55ZM1020.59,208.58v-34.88c0-20.62-13.4-32.31-35.4-32.31s-32.82,11.51-36.94,24.92l16.5,5.33c2.06-9.11,8.08-15.47,20.28-15.47s18.21,6.53,18.21,16.33v5.5h-25.78c-18.56,0-32.31,8.93-32.31,26.12s13.75,26.81,31.79,26.81,23.71-8.93,26.29-14.43h2.75v.51c0,7.05,5.5,11.51,13.4,11.51h13.23v-14.78h-7.22c-3.09,0-4.81-1.72-4.81-5.16ZM1003.23,193.46c0,14.26-9.62,22.85-23.71,22.85-10.48,0-16.67-4.98-16.67-12.72s6.19-11.86,15.64-11.86h24.75v1.72ZM1042.93,228.51h17.7v-84.72h-17.7v84.72ZM1051.86,132.28c6.87,0,12.2-4.81,12.2-12.03s-5.33-12.03-12.2-12.03-12.2,4.81-12.2,12.03,5.16,12.03,12.2,12.03Z"/><path class="cls-1" d="M1281.08,306.21c.38,2,1.86,3.27,3.79,3.27,1.55,0,2.69-.62,2.69-2s-.72-1.93-3.38-2.76c-4.65-1.48-6.58-3.24-6.58-6.72,0-4.58,3.58-6.1,7.14-6.1,4.17,0,7.27,1.41,7.69,5.27l-4.65,1.17c-.17-1.79-1.52-2.59-2.93-2.59-1.31,0-2.34.59-2.34,1.9,0,1.41,1.1,1.96,3.48,2.69,4.27,1.34,6.45,2.79,6.45,6.69,0,4.41-3.58,6.03-7.89,6.03-4,0-6.69-1.31-7.72-4.96l4.27-1.9Z"/><path class="cls-1" d="M1304.42,307.97l-2.79-4.65c-1.07-1.69-1.55-3.1-1.55-3.1h-.14s.21,1.14.21,3.45v9h-4.69v-20.3h4.76l3.83,6.86c1.17,2,1.45,2.96,1.45,2.96h.14s.31-.97,1.45-2.96l3.86-6.86h4.69v20.3h-4.65v-9c0-2.31.17-3.45.17-3.45h-.14s-.48,1.41-1.52,3.1l-2.83,4.65h-2.24Z"/><path class="cls-1" d="M693.55,303.28c-5.36,0-9.6,2.71-11.41,7.58l-1.04-6.75h-7.03v35h8.56v-19.62c0-6.47,3.41-8.98,7.51-8.98s5.71,2.57,5.71,6.47v22.13h8.63v-24.49c0-7.31-4.52-11.34-10.92-11.34Z"/><path class="cls-1" d="M727.79,332.92c-2.71,0-4.45-1.39-4.45-4.73v-17.67h9.81v-6.4h-9.81v-8.56l-8.63,1.11v7.44h-4.73v6.4h4.73v18.72c0,7.38,4.52,10.71,11.48,10.71,3.06,0,6.12-.9,8.35-2.5l-1.18-6.33c-1.95,1.25-3.48,1.81-5.57,1.81Z"/><path class="cls-1" d="M776.22,321.24h10.16v2.09c0,6.54-4.73,9.46-10.3,9.46-8.56,0-12.52-6.82-12.52-16.7,0-10.78,4.73-16.84,12.52-16.84,5.36,0,8.98,2.85,10.3,7.79l8.14-3.69c-2.78-7.38-9.12-11.55-18.37-11.55-12.73,0-21.85,9.05-21.85,24.35s8.63,23.8,20.32,23.8c5.98,0,11.2-2.64,12.94-7.03l1.25,6.19h6.33v-24.21h-18.93v6.33Z"/><path class="cls-1" d="M824.93,323.88c0,6.47-3.2,9.25-7.17,9.25-3.62,0-5.64-2.37-5.64-6.4v-22.61h-8.56v24.56c0,7.65,5.08,11.27,10.85,11.27,5.36,0,9.32-2.44,10.92-7.38l1.04,6.54h7.17v-35h-8.63v19.76Z"/><path class="cls-1" d="M666.83,318.45c0-8.49-4.94-15.17-14.47-15.17-10.16,0-16.56,7.17-16.56,18.58s6.4,18.09,16.49,18.09c6.47,0,12.32-2.85,14.19-9.67l-7.1-2.3c-.97,3.83-3.48,5.43-7.03,5.43-5.08,0-8.14-3.83-8.35-10.3h22.13c.35-.97.7-2.85.7-4.66ZM658.62,318.38h-14.47c.56-5.57,3.48-8.91,8.07-8.91,4.24,0,6.47,3.27,6.47,7.17,0,.49,0,1.18-.07,1.74Z"/><path class="cls-1" d="M547.29,303.28c-9.88,0-16.63,6.61-16.63,18.3s6.75,18.37,16.63,18.37,16.63-6.61,16.63-18.37-6.68-18.3-16.63-18.3ZM547.29,333.55c-5.36,0-8-4.17-8-11.97s2.64-11.9,8-11.9,8.07,4.17,8.07,11.9-2.71,11.97-8.07,11.97Z"/><path class="cls-1" d="M508.88,299.25c5.01,0,8.42,2.92,9.67,7.86l7.72-3.76c-2.57-7.38-8.56-11.55-17.39-11.55-12.25,0-21.01,8.77-21.01,24.07s8.77,24.07,21.01,24.07c8.84,0,14.82-4.17,17.39-11.62l-7.72-3.69c-1.25,4.87-4.66,7.93-9.67,7.93-7.31,0-11.76-6.05-11.76-16.7s4.45-16.63,11.76-16.63Z"/><path class="cls-1" d="M625.02,332.92c-2.71,0-4.45-1.39-4.45-4.73v-17.67h9.81v-6.4h-9.81v-8.56l-8.63,1.11v7.44h-4.73v6.4h4.73v18.72c0,7.38,4.52,10.71,11.48,10.71,3.06,0,6.12-.9,8.35-2.5l-1.18-6.33c-1.95,1.25-3.48,1.81-5.57,1.81Z"/><path class="cls-1" d="M590.78,303.28c-5.36,0-9.6,2.71-11.41,7.58l-1.04-6.75h-7.03v35h8.56v-19.62c0-6.47,3.41-8.98,7.51-8.98s5.71,2.57,5.71,6.47v22.13h8.63v-24.49c0-7.31-4.52-11.34-10.92-11.34Z"/><path class="cls-1" d="M1230.24,332.92c-2.71,0-4.45-1.39-4.45-4.73v-17.67h9.81v-6.4h-9.81v-8.56l-8.63,1.11v7.44h-4.73v6.4h4.73v18.72c0,7.38,4.52,10.71,11.48,10.71,3.06,0,6.12-.9,8.35-2.5l-1.18-6.33c-1.95,1.25-3.48,1.81-5.57,1.81Z"/><path class="cls-1" d="M1021.98,303.28c-5.36,0-9.6,2.71-11.41,7.58l-1.04-6.75h-7.03v35h8.56v-19.62c0-6.47,3.41-8.98,7.51-8.98s5.71,2.57,5.71,6.47v22.13h8.63v-24.49c0-7.31-4.52-11.34-10.92-11.34Z"/><path class="cls-1" d="M1196.01,303.28c-5.36,0-9.6,2.71-11.41,7.58l-1.04-6.75h-7.03v35h8.56v-19.62c0-6.47,3.41-8.98,7.51-8.98s5.71,2.57,5.71,6.47v22.13h8.63v-24.49c0-7.31-4.52-11.34-10.92-11.34Z"/><path class="cls-1" d="M994.36,333.34c-1.46,0-2.44-.7-2.44-2.71v-16.07c0-7.38-4.52-11.27-13.22-11.27-7.79,0-13.29,3.9-13.98,10.65l8.07,1.25c.07-3.41,1.88-5.5,5.5-5.5s5.43,2.02,5.43,5.36v3.9c-1.25-.14-2.78-.21-3.83-.21-10.92,0-16.77,4.17-16.77,11.13,0,6.33,4.59,9.95,10.99,9.95,4.52,0,8.7-2.02,10.09-5.71.28.97.63,1.81,1.04,2.57,1.32,2.02,3.55,3.13,6.47,3.13,1.81,0,3.76-.49,5.01-1.32l-.35-5.84c-.49.42-1.25.7-2.02.7ZM983.71,326.31c0,5.5-3.48,7.65-6.96,7.65s-5.29-1.88-5.29-4.66c0-3.83,3.27-5.64,9.39-5.64,1.04,0,2.09.14,2.85.21v2.44Z"/><path class="cls-1" d="M1071.25,292.64l-17.05,46.48h8.63l3.97-11.34h18.51l3.97,11.34h8.91l-17.05-46.48h-9.88ZM1069.23,320.96l6.75-19.13h.14l6.75,19.13h-13.64Z"/><path class="cls-1" d="M1136.31,302.59l-7.17-2.43c-.28,2.23-.83,4.52-2.3,5.7-2.57-1.67-5.91-2.57-9.81-2.57-8.77,0-14.61,4.24-14.61,11.76,0,4.66,2.44,8.14,6.33,10.02-3.13.83-5.64,3.06-5.64,6.33,0,2.85,1.74,5.01,4.45,5.84-4.59.7-7.79,3.27-7.79,7.1,0,6.82,8.21,9.39,16.42,9.39,9.46,0,19.27-3.2,19.27-12.45,0-6.33-4.38-9.95-12.94-9.95h-9.53c-1.81,0-2.99-.7-2.99-2.23,0-1.32.7-2.23,2.09-2.85,1.53.35,3.2.56,4.94.56,8.56,0,14.75-4.11,14.75-11.76,0-2.23-.56-4.24-1.67-5.91,3.06-.7,5.71-3.13,6.19-6.54ZM1112.37,338.91h9.95c3.69,0,5.5,1.32,5.5,3.69,0,3.83-4.94,5.57-11.48,5.57-5.15,0-9.18-1.53-9.18-5.08,0-2.64,2.16-4.17,5.22-4.17ZM1117.03,321.44c-3.9,0-6.33-2.3-6.33-6.4s2.44-6.33,6.33-6.33,6.33,2.16,6.33,6.33-2.43,6.4-6.33,6.4Z"/><path class="cls-1" d="M1169.29,318.45c0-8.49-4.94-15.17-14.47-15.17-10.16,0-16.56,7.17-16.56,18.58s6.4,18.09,16.49,18.09c6.47,0,12.32-2.85,14.19-9.67l-7.1-2.3c-.97,3.83-3.48,5.43-7.03,5.43-5.08,0-8.14-3.83-8.35-10.3h22.13c.35-.97.7-2.85.7-4.66ZM1161.08,318.38h-14.47c.56-5.57,3.48-8.91,8.07-8.91,4.24,0,6.47,3.27,6.47,7.17,0,.49,0,1.18-.07,1.74Z"/><path class="cls-1" d="M888.18,312.61l-.97-8.49h-7.24v35h8.56v-16.91c0-6.82,3.76-10.37,8.63-10.37,1.25,0,2.71.21,3.55.49l.49-8.77c-6.61-1.25-11.55,2.92-13.01,9.05Z"/><path class="cls-1" d="M871.82,333.34c-1.46,0-2.44-.7-2.44-2.71v-16.07c0-7.38-4.52-11.27-13.22-11.27-7.79,0-13.29,3.9-13.98,10.65l8.07,1.25c.07-3.41,1.88-5.5,5.5-5.5s5.43,2.02,5.43,5.36v3.9c-1.25-.14-2.78-.21-3.83-.21-10.92,0-16.77,4.17-16.77,11.13,0,6.33,4.59,9.95,10.99,9.95,4.52,0,8.7-2.02,10.09-5.71.28.97.63,1.81,1.04,2.57,1.32,2.02,3.55,3.13,6.47,3.13,1.81,0,3.76-.49,5.01-1.32l-.35-5.84c-.49.42-1.25.7-2.02.7ZM861.18,326.31c0,5.5-3.48,7.65-6.96,7.65s-5.29-1.88-5.29-4.66c0-3.83,3.27-5.64,9.39-5.64,1.04,0,2.09.14,2.85.21v2.44Z"/><path class="cls-1" d="M1249.52,313.65c0-2.85,2.09-4.52,5.57-4.52,3.76,0,5.77,2.02,6.05,5.01l7.45-.9c-.84-6.4-5.57-9.95-13.57-9.95-7.58,0-13.57,4.04-13.57,11.13,0,13.64,19.41,7.51,19.41,15.24,0,2.92-2.44,4.38-6.12,4.38s-6.68-2.23-7.17-5.5l-7.45,1.81c1.25,6.26,7.1,9.6,14.54,9.6,8.28,0,14.33-3.9,14.33-11.06,0-14.05-19.48-7.58-19.48-15.24Z"/><rect class="cls-1" x="947.53" y="304.12" width="8.56" height="35"/><path class="cls-1" d="M951.78,288.74c-2.92,0-5.36,2.02-5.36,5.15s2.44,5.15,5.36,5.15,5.43-2.02,5.43-5.15-2.5-5.15-5.43-5.15Z"/><path class="cls-1" d="M929.37,308.71c-1.25-2.92-4.66-5.43-9.95-5.43-8.91,0-14.75,6.89-14.75,18.99s6.4,17.67,14.19,17.67c4.94,0,9.32-2.3,10.92-7.38l.9,6.54h7.24v-50.23h-8.56v19.83ZM929.37,323.6c0,6.75-3.9,9.6-7.79,9.6-5.01,0-8.14-3.9-8.14-11.2,0-8.42,3.41-12.25,8.28-12.25,3.55,0,7.65,2.5,7.65,8.56v5.29Z"/></svg>