<svg width="64" height="40" viewBox="0 0 64 40" fill="none" xmlns="http://www.w3.org/2000/svg">
<rect width="64" height="40" fill="#CFD9E0"/>
<path d="M17.7617 15.8027H19.2656V21.7061H22.8301V23H17.7617V15.8027ZM27.0586 23.2002C26.0299 23.2002 25.2438 22.9202 24.7002 22.3604C23.971 21.6735 23.6064 20.6839 23.6064 19.3916C23.6064 18.0732 23.971 17.0837 24.7002 16.4229C25.2438 15.863 26.0299 15.583 27.0586 15.583C28.0872 15.583 28.8734 15.863 29.417 16.4229C30.1429 17.0837 30.5059 18.0732 30.5059 19.3916C30.5059 20.6839 30.1429 21.6735 29.417 22.3604C28.8734 22.9202 28.0872 23.2002 27.0586 23.2002ZM28.4795 21.2666C28.8278 20.8271 29.002 20.2021 29.002 19.3916C29.002 18.5843 28.8262 17.9609 28.4746 17.5215C28.1263 17.0788 27.6543 16.8574 27.0586 16.8574C26.4629 16.8574 25.9876 17.0771 25.6328 17.5166C25.278 17.9561 25.1006 18.5811 25.1006 19.3916C25.1006 20.2021 25.278 20.8271 25.6328 21.2666C25.9876 21.7061 26.4629 21.9258 27.0586 21.9258C27.6543 21.9258 28.1279 21.7061 28.4795 21.2666ZM36.0723 22.8242C35.6751 23.0684 35.1868 23.1904 34.6074 23.1904C33.6536 23.1904 32.8724 22.86 32.2637 22.1992C31.6289 21.5352 31.3115 20.627 31.3115 19.4746C31.3115 18.3092 31.6322 17.375 32.2734 16.6719C32.9147 15.9688 33.7627 15.6172 34.8174 15.6172C35.7321 15.6172 36.4661 15.8499 37.0195 16.3154C37.5762 16.7777 37.8952 17.3555 37.9766 18.0488H36.4971C36.3831 17.5573 36.1048 17.2139 35.6621 17.0186C35.4147 16.9111 35.1396 16.8574 34.8369 16.8574C34.2575 16.8574 33.7806 17.0771 33.4062 17.5166C33.0352 17.9528 32.8496 18.6104 32.8496 19.4893C32.8496 20.3747 33.0514 21.0013 33.4551 21.3691C33.8587 21.737 34.3177 21.9209 34.832 21.9209C35.3366 21.9209 35.75 21.776 36.0723 21.4863C36.3945 21.1934 36.5931 20.8109 36.668 20.3389H35.0029V19.1377H38.001V23H37.0049L36.8535 22.1016C36.5638 22.4434 36.3034 22.6842 36.0723 22.8242ZM42.625 23.2002C41.5964 23.2002 40.8102 22.9202 40.2666 22.3604C39.5374 21.6735 39.1729 20.6839 39.1729 19.3916C39.1729 18.0732 39.5374 17.0837 40.2666 16.4229C40.8102 15.863 41.5964 15.583 42.625 15.583C43.6536 15.583 44.4398 15.863 44.9834 16.4229C45.7093 17.0837 46.0723 18.0732 46.0723 19.3916C46.0723 20.6839 45.7093 21.6735 44.9834 22.3604C44.4398 22.9202 43.6536 23.2002 42.625 23.2002ZM44.0459 21.2666C44.3942 20.8271 44.5684 20.2021 44.5684 19.3916C44.5684 18.5843 44.3926 17.9609 44.041 17.5215C43.6927 17.0788 43.2207 16.8574 42.625 16.8574C42.0293 16.8574 41.554 17.0771 41.1992 17.5166C40.8444 17.9561 40.667 18.5811 40.667 19.3916C40.667 20.2021 40.8444 20.8271 41.1992 21.2666C41.554 21.7061 42.0293 21.9258 42.625 21.9258C43.2207 21.9258 43.6943 21.7061 44.0459 21.2666Z" fill="black"/>
</svg>
