<svg width="630" height="269" viewBox="0 0 630 269" fill="none" xmlns="http://www.w3.org/2000/svg">
<g clip-path="url(#clip0_1940_8092)">
<path d="M589.917 107.847H589.174C589.068 96.3269 579.703 87.02 568.161 87.02C560.507 87.02 553.81 91.1135 550.135 97.2299C549.167 97.0407 548.167 96.9388 547.143 96.9388C540.179 96.9388 534.286 101.527 532.322 107.847H531.083C523.029 107.847 516.5 114.377 516.5 122.433C516.5 130.489 523.029 137.02 531.083 137.02H589.917C597.971 137.02 604.5 130.489 604.5 122.433C604.5 114.377 597.971 107.847 589.917 107.847Z" fill="#E8F5FF"/>
<path d="M584.403 128.624H536.081C533.478 128.624 531.367 126.512 531.367 123.908C531.367 121.304 533.478 119.192 536.081 119.192H584.403C587.007 119.192 589.117 121.304 589.117 123.908C589.117 126.512 587.007 128.624 584.403 128.624Z" fill="white"/>
<path d="M552.679 121.969H536.287C535.686 121.969 535.199 122.456 535.199 123.057V125.089C535.199 125.69 535.686 126.177 536.287 126.177H552.679C553.279 126.177 553.766 125.69 553.766 125.089V123.057C553.766 122.456 553.279 121.969 552.679 121.969Z" fill="#98CBFF"/>
<path d="M572.987 121.969H556.596C555.995 121.969 555.508 122.456 555.508 123.057V125.089C555.508 125.69 555.995 126.177 556.596 126.177H572.987C573.588 126.177 574.075 125.69 574.075 125.089V123.057C574.075 122.456 573.588 121.969 572.987 121.969Z" fill="#98CBFF"/>
<path d="M581.719 121.807H576.682C576.497 121.807 576.348 121.956 576.348 122.141V122.765C576.348 122.95 576.497 123.1 576.682 123.1H581.719C581.904 123.1 582.053 122.95 582.053 122.765V122.141C582.053 121.956 581.904 121.807 581.719 121.807Z" fill="#98CBFF"/>
<path d="M581.719 123.548H576.682C576.497 123.548 576.348 123.698 576.348 123.882V124.506C576.348 124.691 576.497 124.841 576.682 124.841H581.719C581.904 124.841 582.053 124.691 582.053 124.506V123.882C582.053 123.698 581.904 123.548 581.719 123.548Z" fill="#98CBFF"/>
<path d="M581.719 125.289H576.682C576.497 125.289 576.348 125.439 576.348 125.623V126.248C576.348 126.432 576.497 126.582 576.682 126.582H581.719C581.904 126.582 582.053 126.432 582.053 126.248V125.623C582.053 125.439 581.904 125.289 581.719 125.289Z" fill="#98CBFF"/>
<path d="M585.39 122.441C585.39 122.821 585.081 123.13 584.701 123.13C584.32 123.13 584.012 122.821 584.012 122.441C584.012 122.06 584.32 121.751 584.701 121.751C585.081 121.751 585.39 122.06 585.39 122.441Z" fill="#98CBFF"/>
<path d="M461.329 14.627C460.41 14.627 459.519 14.7404 458.665 14.9495C454.447 7.00695 446.099 1.59814 436.489 1.59814C425.379 1.59814 415.956 8.82548 412.65 18.8405C412.623 18.8402 412.596 18.8384 412.569 18.8384C407.56 18.8384 403.5 22.904 403.5 27.9192C403.5 32.9343 407.56 36.9999 412.569 36.9999H461.329C467.498 36.9999 472.5 31.9916 472.5 25.8135C472.5 19.6354 467.498 14.627 461.329 14.627Z" fill="#E8F5FF"/>
<path d="M448.342 4.42672L448.202 2.15537C448.196 2.05363 448.234 1.95404 448.306 1.88194L450.081 0.104183C450.22 -0.0347277 450.445 -0.0347277 450.583 0.104183L451.621 1.14319L452.438 0.325238C452.699 0.0642538 453.121 0.0642538 453.382 0.325238L460.788 7.74128C461.048 8.00226 461.048 8.42543 460.788 8.68641L450.405 19.0834C450.144 19.3444 449.722 19.3444 449.461 19.0834L442.055 11.6674C441.794 11.4064 441.794 10.9832 442.055 10.7222L448.342 4.42672Z" fill="#40A0FF"/>
<path d="M450.624 17.1927L455.706 12.1033C455.967 11.8423 455.967 11.4191 455.706 11.1581C455.446 10.8972 455.023 10.8972 454.762 11.1581L449.68 16.2476C449.419 16.5086 449.419 16.9317 449.68 17.1927C449.941 17.4538 450.363 17.4538 450.624 17.1927Z" fill="white"/>
<path d="M442.655 24.2356C446.765 24.2356 450.096 20.8999 450.096 16.7852C450.096 12.6704 446.765 9.33472 442.655 9.33472C438.546 9.33472 435.215 12.6704 435.215 16.7852C435.215 20.8999 438.546 24.2356 442.655 24.2356Z" fill="#E8F5FF"/>
<path d="M458.665 14.9497H441.879L443.169 22.427L456.158 17.862L458.665 14.9497Z" fill="#E8F5FF"/>
<path d="M176.824 89.685C175.453 89.685 174.123 89.8538 172.848 90.1652C166.551 78.3381 154.09 70.2839 139.744 70.2839C123.16 70.2839 109.094 81.046 104.159 95.9591C104.118 95.9587 104.078 95.9561 104.037 95.9561C96.5608 95.9561 90.5 102.01 90.5 109.478C90.5 116.946 96.5608 123 104.037 123H176.824C186.034 123 193.5 115.542 193.5 106.342C193.5 97.1428 186.034 89.685 176.824 89.685Z" fill="#E8F5FF"/>
<path d="M135.482 73.4634L135.781 68.6077C135.795 68.3902 135.714 68.1773 135.56 68.0232L131.755 64.2228C131.458 63.9257 130.976 63.9257 130.678 64.2228L128.455 66.4439L126.704 64.6953C126.145 64.1373 125.24 64.1373 124.681 64.6953L108.81 80.5492C108.251 81.1072 108.251 82.0118 108.81 82.5698L131.061 104.796C131.62 105.354 132.525 105.354 133.084 104.796L148.956 88.9425C149.514 88.3845 149.514 87.4798 148.956 86.9219L135.482 73.4634Z" fill="#40A0FF"/>
<path d="M130.593 100.755L119.7 89.8751C119.142 89.3171 119.142 88.4125 119.7 87.8545C120.259 87.2965 121.164 87.2965 121.723 87.8545L132.615 98.7347C133.174 99.2926 133.174 100.197 132.615 100.755C132.057 101.313 131.151 101.313 130.593 100.755Z" fill="#E8F5FF"/>
<path d="M148.152 115.811C156.959 115.811 164.098 108.68 164.098 99.8831C164.098 91.0866 156.959 83.9556 148.152 83.9556C139.346 83.9556 132.207 91.0866 132.207 99.8831C132.207 108.68 139.346 115.811 148.152 115.811Z" fill="#E8F5FF"/>
<path d="M104.16 95.9592H140.135L137.369 111.944L109.534 102.185L104.16 95.9592Z" fill="#E8F5FF"/>
<g clip-path="url(#clip1_1940_8092)">
<path d="M390.598 155.365C390.598 155.365 455.916 121.13 467.275 180.567C478.635 240.004 408.11 240.48 408.11 240.48L390.598 155.365Z" fill="#E8F5FF"/>
<path d="M390.598 155.365C390.598 155.365 455.916 121.13 467.275 180.567C478.635 240.004 408.11 240.48 408.11 240.48L390.598 155.365Z" stroke="#036FE3" stroke-width="4" stroke-miterlimit="10"/>
<path d="M468.027 184.805C468.027 184.805 491.004 180.643 500.116 180.643C509.227 180.643 511.05 181.1 512.872 192.085C514.694 203.069 516.972 221.834 532.918 221.834H629.5" stroke="#036FE3" stroke-width="4" stroke-miterlimit="10"/>
<path d="M406.748 257.995C424.462 254.492 433.752 225.785 427.5 193.876C421.247 161.967 401.818 138.939 384.105 142.443C366.391 145.946 357.1 174.653 363.353 206.562C369.606 238.471 389.034 261.499 406.748 257.995Z" fill="white"/>
<path d="M406.748 257.995C424.462 254.492 433.752 225.785 427.5 193.876C421.247 161.967 401.818 138.939 384.105 142.443C366.391 145.946 357.1 174.653 363.353 206.562C369.606 238.471 389.034 261.499 406.748 257.995Z" stroke="#036FE3" stroke-width="4" stroke-miterlimit="10"/>
<path d="M391.579 258.673C405.8 255.875 412.515 228.919 406.577 198.465C400.64 168.011 384.298 145.592 370.077 148.39C355.856 151.188 349.141 178.144 355.079 208.598C361.016 239.052 377.358 261.471 391.579 258.673Z" fill="white"/>
<path d="M391.579 258.673C405.8 255.875 412.515 228.919 406.577 198.465C400.64 168.011 384.298 145.592 370.077 148.39C355.856 151.188 349.141 178.144 355.079 208.598C361.016 239.052 377.358 261.471 391.579 258.673Z" stroke="#036FE3" stroke-width="4" stroke-miterlimit="10"/>
<path d="M375.246 193.017C378.329 193.017 380.828 189.251 380.828 184.605C380.828 179.96 378.329 176.194 375.246 176.194C372.163 176.194 369.664 179.96 369.664 184.605C369.664 189.251 372.163 193.017 375.246 193.017Z" fill="#036FE3"/>
<path d="M383.832 231.933C386.915 231.933 389.414 228.167 389.414 223.521C389.414 218.876 386.915 215.11 383.832 215.11C380.749 215.11 378.25 218.876 378.25 223.521C378.25 228.167 380.749 231.933 383.832 231.933Z" fill="#036FE3"/>
<path d="M247.145 258.133H211.042C186.132 258.133 165.938 237.846 165.938 212.821C165.938 187.795 186.132 167.508 211.042 167.508H244.317L247.145 258.133Z" fill="#E8F5FF"/>
<path d="M247.145 258.133H211.042C186.132 258.133 165.938 237.846 165.938 212.821C165.938 187.795 186.132 167.508 211.042 167.508H244.317L247.145 258.133Z" stroke="#036FE3" stroke-width="4" stroke-miterlimit="10"/>
<path d="M248.109 233.966H313.415C314.263 233.966 314.951 234.657 314.951 235.509V246.443C314.951 247.294 314.263 247.986 313.415 247.986H248.109V233.966Z" fill="white"/>
<path d="M248.109 233.966H313.415C314.263 233.966 314.951 234.657 314.951 235.509V246.443C314.951 247.294 314.263 247.986 313.415 247.986H248.109V233.966Z" stroke="#036FE3" stroke-width="4" stroke-miterlimit="10"/>
<path d="M248.109 174.852H313.415C314.263 174.852 314.951 175.543 314.951 176.394V187.328C314.951 188.18 314.263 188.871 313.415 188.871H248.109V174.852Z" fill="white"/>
<path d="M248.109 174.852H313.415C314.263 174.852 314.951 175.543 314.951 176.394V187.328C314.951 188.18 314.263 188.871 313.415 188.871H248.109V174.852Z" stroke="#036FE3" stroke-width="4" stroke-miterlimit="10"/>
<path d="M1.57031 135.847C1.57031 135.847 66.4496 127.133 71.0395 140.597C75.0015 150 76.1315 160.258 73.9492 186.418C71.7669 212.579 93.9535 213.063 106.32 212.821C118.686 212.579 179.062 212.852 179.062 212.852" stroke="#036FE3" stroke-width="4" stroke-linecap="round" stroke-linejoin="round"/>
<path d="M258.043 154.911H238.452C236.925 154.911 235.688 156.154 235.688 157.688V265.149C235.688 266.683 236.925 267.926 238.452 267.926H258.043C259.569 267.926 260.807 266.683 260.807 265.149V157.688C260.807 156.154 259.569 154.911 258.043 154.911Z" fill="white"/>
<path d="M258.043 154.911H238.452C236.925 154.911 235.688 156.154 235.688 157.688V265.149C235.688 266.683 236.925 267.926 238.452 267.926H258.043C259.569 267.926 260.807 266.683 260.807 265.149V157.688C260.807 156.154 259.569 154.911 258.043 154.911Z" stroke="#036FE3" stroke-width="4" stroke-miterlimit="10"/>
</g>
<g clip-path="url(#clip2_1940_8092)">
<path d="M502.762 64.8193C510.632 73.1425 512.782 73.2008 521.09 65.3166C512.782 73.2008 512.724 75.355 520.594 83.6781C512.724 75.355 510.574 75.2966 502.266 83.1808C510.574 75.2966 510.632 73.1425 502.762 64.8193Z" fill="#CEECFF"/>
<path d="M289.496 96C297.366 104.323 299.516 104.381 307.824 96.4973C299.516 104.381 299.458 106.536 307.328 114.859C299.458 106.536 297.308 106.477 289 114.361C297.308 106.477 297.366 104.323 289.496 96Z" fill="#CEECFF"/>
<path d="M60.4964 55C68.3662 63.3231 70.5164 63.3815 78.8244 55.4973C70.5164 63.3815 70.4582 65.5356 78.3281 73.8588C70.4582 65.5356 68.308 65.4773 60 73.3615C68.308 65.4773 68.3662 63.3231 60.4964 55Z" fill="#CEECFF"/>
<path d="M584.672 180.141C592.542 188.464 594.692 188.523 603 180.638C594.692 188.523 594.634 190.677 602.504 199C594.634 190.677 592.484 190.618 584.176 198.503C592.484 190.618 592.542 188.464 584.672 180.141Z" fill="#CEECFF"/>
<path d="M333.496 21C341.366 29.3231 343.516 29.3815 351.824 21.4973C343.516 29.3815 343.458 31.5356 351.328 39.8588C343.458 31.5356 341.308 31.4773 333 39.3615C341.308 31.4773 341.366 29.3231 333.496 21Z" fill="#CEECFF"/>
</g>
</g>
<defs>
<clipPath id="clip0_1940_8092">
<rect width="629" height="269" fill="white" transform="translate(0.5)"/>
</clipPath>
<clipPath id="clip1_1940_8092">
<rect width="629" height="138" fill="white" transform="translate(1 131)"/>
</clipPath>
<clipPath id="clip2_1940_8092">
<rect width="543" height="178" fill="white" transform="translate(60 21)"/>
</clipPath>
</defs>
</svg>
