<svg width="60" height="60" viewBox="0 0 60 60" fill="none" xmlns="http://www.w3.org/2000/svg">
<path d="M52.5 56.25H7.5C3.36328 56.25 0 52.8867 0 48.75V11.25C0 7.11328 3.36328 3.75 7.5 3.75H22.5C24.8555 3.75 27.082 4.86328 28.5 6.75L30.75 9.75C31.4531 10.6992 32.5664 11.25 33.75 11.25H52.5C56.6367 11.25 60 14.6133 60 18.75V48.75C60 52.8867 56.6367 56.25 52.5 56.25ZM39.375 31.875C39.375 25.6641 34.3359 20.625 28.125 20.625C21.9141 20.625 16.875 25.6641 16.875 31.875C16.875 38.0859 21.9141 43.125 28.125 43.125C30.2109 43.125 32.1562 42.5625 33.832 41.5781L38.3203 46.0664C39.4219 47.168 41.2031 47.168 42.293 46.0664C43.3828 44.9648 43.3945 43.1836 42.293 42.0938L37.8047 37.6055C38.8008 35.9297 39.3633 33.9727 39.3633 31.875H39.375ZM28.125 26.25C29.6168 26.25 31.0476 26.8426 32.1025 27.8975C33.1574 28.9524 33.75 30.3832 33.75 31.875C33.75 33.3668 33.1574 34.7976 32.1025 35.8525C31.0476 36.9074 29.6168 37.5 28.125 37.5C26.6332 37.5 25.2024 36.9074 24.1475 35.8525C23.0926 34.7976 22.5 33.3668 22.5 31.875C22.5 30.3832 23.0926 28.9524 24.1475 27.8975C25.2024 26.8426 26.6332 26.25 28.125 26.25Z" fill="#036FE3"/>
</svg>
