<?xml version="1.0" encoding="utf-8"?>
<!-- Generator: Adobe Illustrator 28.3.0, SVG Export Plug-In . SVG Version: 6.00 Build 0)  -->
<svg version="1.1" id="Layer_1" xmlns="http://www.w3.org/2000/svg" xmlns:xlink="http://www.w3.org/1999/xlink" x="0px" y="0px"
	 viewBox="0 0 280.71 178.45" style="enable-background:new 0 0 280.71 178.45;" xml:space="preserve">
<style type="text/css">
	.st0{fill:#40A0FF;}
	.st1{fill:#036FE3;}
</style>
<g>
	<path class="st0" d="M220.2,26.8c-8.44-0.01-16.78,1.76-24.48,5.2c0-0.01-24.42,37.41-24.42,37.41l-6.21-10.83l-86.91,54.76
		c-1.49,0.89-2.41,2.5-2.41,4.24v60.87h18.32v-39.4c0-2.73,2.21-4.93,4.93-4.93h9.87c2.73,0,4.93,2.21,4.93,4.93v39.4h18.32v-58.54
		c0-2.73,2.21-4.93,4.93-4.93h9.87c2.73,0,4.93,2.21,4.93,4.93v46.71v11.83h18.32v-8.1v-66.99c0-2.73,2.21-4.93,4.93-4.93h9.87
		c2.73,0,4.93,2.21,4.93,4.93v62.09c7.71-3.99,14.11-10.17,18.35-17.74c3.85,0.78,7.84,1.19,11.92,1.19
		c33.42,0,60.51-27.33,60.51-61.05S253.62,26.8,220.2,26.8z"/>
	<path class="st1" d="M152.41,6.33c-13.94,0-26.55,5.85-35.6,15.28C106.5,8.09,90.47,0.17,73.47,0.19
		c-30.11,0-54.52,24.38-54.52,54.45c-0.01,7.45,1.52,14.82,4.48,21.65C8.88,84.82-0.04,100.43,0,117.3
		c0,26.15,20.98,47.34,46.85,47.34c3.08,0,6.15-0.31,9.17-0.92v-54.55c0-3.48,1.83-6.7,4.82-8.48l94.42-59.23l-6.46-11.26
		l46.52,1.17C186.63,16.39,170.68,6.33,152.41,6.33z"/>
</g>
</svg>
