<svg width="200" height="34" viewBox="0 0 200 34" fill="none" xmlns="http://www.w3.org/2000/svg">
<g clip-path="url(#clip0_8737_4376)">
<path d="M39.529 5.88667C38.0143 5.88446 36.5174 6.20287 35.1354 6.81978C35.1354 6.81757 30.7507 13.5351 30.7507 13.5351L29.6362 11.5893L14.032 21.4223C13.7645 21.5815 13.5986 21.8712 13.5986 22.183V33.1083H16.8866V26.0348C16.8866 25.5462 17.2824 25.1481 17.7733 25.1481H19.5445C20.0331 25.1481 20.4311 25.5439 20.4311 26.0348V33.1083H23.7191V22.6009C23.7191 22.1122 24.1149 21.7142 24.6058 21.7142H26.377C26.8656 21.7142 27.2636 22.11 27.2636 22.6009V30.9856V33.1083H30.5516V31.6534V19.6313C30.5516 19.1426 30.9474 18.7446 31.4383 18.7446H33.2095C33.6981 18.7446 34.0961 19.1404 34.0961 19.6313V30.7778C35.4803 30.0614 36.6279 28.9513 37.3886 27.5937C38.0807 27.733 38.7949 27.806 39.529 27.806C45.5279 27.806 50.3924 22.8994 50.3924 16.8474C50.3924 10.7955 45.5279 5.88667 39.529 5.88667Z" fill="#40A0FF"/>
<path d="M27.361 2.21392C24.858 2.21392 22.5959 3.26422 20.9707 4.95797C19.12 2.53011 16.241 1.10612 13.1874 1.11054C7.78333 1.11054 3.40079 5.48644 3.40079 10.8839C3.39858 12.2217 3.67277 13.5439 4.20566 14.7711C1.59427 16.3013 -0.00661296 19.105 2.05353e-05 22.1321C2.05353e-05 26.8264 3.76564 30.6318 8.4113 30.6296C8.96409 30.6296 9.51467 30.5743 10.0564 30.4638V20.6727C10.0564 20.047 10.3859 19.4699 10.9232 19.1492L27.8718 8.51795L26.7131 6.49695L35.0647 6.70701C33.5036 4.01823 30.6379 2.21392 27.361 2.21392Z" fill="#036FE3"/>
<path d="M65.961 25.9199C64.2938 25.9199 62.8919 25.5484 61.7531 24.8032C60.6144 24.0581 59.814 23.0454 59.3496 21.7629L62.1865 20.1045C62.8433 21.8204 64.1346 22.6761 66.0561 22.6761C66.9848 22.6761 67.6658 22.508 68.0992 22.1719C68.5326 21.8358 68.7493 21.4113 68.7493 20.8983C68.7493 20.3057 68.4839 19.8436 67.9555 19.5163C67.427 19.1869 66.4806 18.8309 65.1185 18.4461C64.3645 18.2228 63.7277 17.9973 63.2081 17.7739C62.6863 17.5484 62.1666 17.2499 61.6448 16.8718C61.123 16.4959 60.7272 16.0183 60.4552 15.4412C60.1832 14.864 60.0461 14.1918 60.0461 13.4224C60.0461 11.8989 60.5879 10.6849 61.6691 9.78057C62.7504 8.8762 64.0528 8.42291 65.5763 8.42291C66.9383 8.42291 68.1368 8.75459 69.1694 9.42015C70.2042 10.0857 71.0091 11.01 71.5862 12.1974L68.7979 13.8071C68.1257 12.3654 67.0511 11.6446 65.5763 11.6446C64.8864 11.6446 64.3468 11.8016 63.9533 12.1133C63.5597 12.4251 63.3651 12.832 63.3651 13.3273C63.3651 13.8557 63.584 14.2847 64.0262 14.6142C64.4663 14.9436 65.3131 15.2996 66.5624 15.6844C67.0754 15.8458 67.4646 15.9696 67.7277 16.0581C67.9931 16.1465 68.3535 16.2836 68.809 16.4671C69.2667 16.6507 69.6183 16.8231 69.8659 16.9845C70.1136 17.1438 70.3988 17.3604 70.7194 17.6346C71.04 17.9066 71.2833 18.1874 71.4535 18.4771C71.6216 18.7645 71.7653 19.1139 71.8869 19.523C72.0063 19.932 72.0682 20.3765 72.0682 20.8563C72.0682 22.4108 71.5044 23.6446 70.3745 24.5578C69.2424 25.4644 67.7697 25.9199 65.961 25.9199Z" fill="#1E272E"/>
<path d="M84.1589 11.9298H77.4281V15.921H83.9665V19.094H77.4281V25.5838H74.1113V8.75677H84.1589V11.9298Z" fill="#1E272E"/>
<path d="M103.053 8.75677V25.5838H99.7608V14.6694L95.0156 22.4771L94.6287 22.4903L89.9056 14.7114V25.5838H86.5889V8.75677H90.0029L94.8277 16.7015L99.6281 8.75677H103.053Z" fill="#1E272E"/>
<path d="M114.158 25.9198C111.626 25.9198 109.534 25.0774 107.885 23.3947C106.233 21.712 105.408 19.6379 105.408 17.168C105.408 14.6849 106.233 12.6042 107.885 10.9303C109.534 9.25649 111.626 8.41846 114.158 8.41846C115.681 8.41846 117.088 8.77445 118.377 9.48866C119.666 10.2029 120.672 11.1669 121.393 12.3853L118.534 14.0459C118.116 13.2919 117.523 12.7037 116.754 12.2792C115.984 11.8546 115.12 11.6423 114.158 11.6423C112.524 11.6423 111.204 12.1553 110.204 13.1813C109.203 14.2073 108.701 15.5362 108.701 17.1725C108.701 18.791 109.2 20.1133 110.204 21.1393C111.206 22.1653 112.524 22.6783 114.158 22.6783C115.12 22.6783 115.989 22.466 116.767 22.0415C117.543 21.6169 118.133 21.0354 118.534 20.2991L121.395 21.9574C120.674 23.1758 119.672 24.1421 118.39 24.8541C117.107 25.5638 115.697 25.9198 114.158 25.9198Z" fill="#1E272E"/>
<path d="M135.385 25.9199C133.718 25.9199 132.316 25.5484 131.177 24.8032C130.038 24.0581 129.238 23.0454 128.773 21.7629L131.61 20.1045C132.267 21.8204 133.558 22.6761 135.48 22.6761C136.409 22.6761 137.092 22.508 137.523 22.1719C137.956 21.8358 138.173 21.4113 138.173 20.8983C138.173 20.3057 137.908 19.8436 137.379 19.5163C136.851 19.1869 135.904 18.8309 134.542 18.4461C133.788 18.2228 133.152 17.9973 132.632 17.7739C132.11 17.5484 131.59 17.2499 131.069 16.8718C130.547 16.4959 130.151 16.0183 129.879 15.4412C129.607 14.864 129.47 14.1918 129.47 13.4224C129.47 11.8989 130.012 10.6849 131.093 9.78057C132.174 8.8762 133.477 8.42291 135 8.42291C136.362 8.42291 137.561 8.75459 138.593 9.42015C139.626 10.0857 140.433 11.01 141.008 12.1974L138.22 13.8071C137.545 12.3654 136.473 11.6446 134.998 11.6446C134.31 11.6446 133.768 11.8016 133.375 12.1133C132.983 12.4251 132.787 12.832 132.787 13.3273C132.787 13.8557 133.006 14.2847 133.448 14.6142C133.888 14.9436 134.735 15.2996 135.984 15.6844C136.497 15.8458 136.886 15.9696 137.149 16.0581C137.415 16.1465 137.775 16.2836 138.231 16.4671C138.688 16.6507 139.04 16.8231 139.288 16.9845C139.535 17.1438 139.82 17.3604 140.141 17.6346C140.462 17.9066 140.705 18.1874 140.873 18.4771C141.041 18.7645 141.187 19.1139 141.306 19.523C141.426 19.932 141.488 20.3765 141.488 20.8563C141.488 22.4108 140.922 23.6446 139.792 24.5578C138.662 25.471 137.196 25.9199 135.385 25.9199Z" fill="#1E272E"/>
<path d="M150.025 16.5445H147.308V21.5439C147.308 21.9618 147.411 22.2648 147.619 22.4571C147.827 22.6495 148.132 22.7579 148.533 22.7822C148.933 22.8065 149.43 22.8021 150.023 22.7711V25.5837C147.891 25.8247 146.39 25.6235 145.516 24.9823C144.643 24.341 144.207 23.1957 144.207 21.5439V16.5445H142.116V13.5638H144.207V11.136L147.308 10.1984V13.5638H150.025V16.5445Z" fill="#1E272E"/>
<path d="M160.338 13.5638H163.438V25.5837H160.338V24.2371C159.584 25.3582 158.39 25.9198 156.756 25.9198C155.442 25.9198 154.357 25.4798 153.499 24.5976C152.641 23.7175 152.212 22.4992 152.212 20.9447V13.5638H155.312V20.56C155.312 21.3626 155.529 21.9751 155.96 22.3997C156.393 22.8242 156.97 23.0365 157.691 23.0365C158.492 23.0365 159.133 22.7888 159.615 22.2913C160.095 21.7938 160.336 21.0486 160.336 20.0558V13.5638H160.338Z" fill="#1E272E"/>
<path d="M175.385 8.75677H178.487V25.5837H175.385V24.1664C174.472 25.3361 173.174 25.9221 171.491 25.9221C169.872 25.9221 168.49 25.3096 167.345 24.0824C166.2 22.8552 165.627 21.3538 165.627 19.576C165.627 17.796 166.2 16.2946 167.345 15.0674C168.49 13.8425 169.872 13.2278 171.491 13.2278C173.174 13.2278 174.472 13.8137 175.385 14.9834V8.75677ZM169.676 22.0149C170.308 22.6473 171.106 22.9635 172.068 22.9635C173.03 22.9635 173.824 22.6473 174.447 22.0149C175.073 21.3825 175.385 20.5688 175.385 19.576C175.385 18.5832 175.073 17.7695 174.447 17.1349C173.822 16.5025 173.028 16.1863 172.068 16.1863C171.108 16.1863 170.31 16.5025 169.676 17.1349C169.043 17.7673 168.727 18.581 168.727 19.576C168.727 20.5688 169.043 21.3803 169.676 22.0149Z" fill="#1E272E"/>
<path d="M182.863 12.1222C182.35 12.1222 181.906 11.9342 181.53 11.5583C181.154 11.1824 180.964 10.738 180.964 10.225C180.964 9.71199 181.152 9.26313 181.53 8.87838C181.906 8.49364 182.35 8.30127 182.863 8.30127C183.392 8.30127 183.845 8.49364 184.221 8.87838C184.597 9.26313 184.787 9.71199 184.787 10.225C184.787 10.738 184.599 11.1824 184.221 11.5583C183.843 11.9342 183.392 12.1222 182.863 12.1222ZM181.324 25.5837V13.5638H184.427V25.5837H181.324Z" fill="#1E272E"/>
<path d="M197.501 24.0823C196.267 25.3095 194.762 25.922 192.982 25.922C191.202 25.922 189.7 25.3095 188.473 24.0823C187.248 22.8551 186.633 21.3538 186.633 19.576C186.633 17.796 187.246 16.2946 188.473 15.0674C189.7 13.8424 191.202 13.2277 192.982 13.2277C194.759 13.2277 196.267 13.8402 197.501 15.0674C198.735 16.2946 199.352 17.796 199.352 19.576C199.352 21.3538 198.735 22.8551 197.501 24.0823ZM190.662 21.953C191.279 22.5787 192.053 22.8905 192.982 22.8905C193.91 22.8905 194.689 22.5787 195.314 21.953C195.94 21.3272 196.252 20.5356 196.252 19.5738C196.252 18.6119 195.94 17.8181 195.314 17.1946C194.689 16.5688 193.912 16.257 192.982 16.257C192.053 16.257 191.279 16.5688 190.662 17.1946C190.045 17.8203 189.736 18.6141 189.736 19.5738C189.736 20.5334 190.045 21.3294 190.662 21.953Z" fill="#1E272E"/>
</g>
<defs>
<clipPath id="clip0_8737_4376">
<rect width="200" height="33" fill="white" transform="translate(0 0.5)"/>
</clipPath>
</defs>
</svg>
