<svg width="200" height="34" viewBox="0 0 200 34" fill="none" xmlns="http://www.w3.org/2000/svg">
<g clip-path="url(#clip0_9965_3460)">
<path d="M39.529 5.88673C38.0143 5.88452 36.5174 6.20293 35.1354 6.81984C35.1354 6.81763 30.7507 13.5352 30.7507 13.5352L29.6362 11.5893L14.032 21.4224C13.7645 21.5816 13.5986 21.8713 13.5986 22.183V33.1084H16.8866V26.0349C16.8866 25.5462 17.2824 25.1482 17.7733 25.1482H19.5445C20.0331 25.1482 20.4311 25.544 20.4311 26.0349V33.1084H23.7191V22.6009C23.7191 22.1123 24.1149 21.7143 24.6058 21.7143H26.377C26.8656 21.7143 27.2636 22.1101 27.2636 22.6009V30.9857V33.1084H30.5516V31.6535V19.6313C30.5516 19.1427 30.9474 18.7447 31.4383 18.7447H33.2095C33.6981 18.7447 34.0961 19.1405 34.0961 19.6313V30.7778C35.4803 30.0614 36.6279 28.9514 37.3886 27.5938C38.0807 27.7331 38.7949 27.806 39.529 27.806C45.5279 27.806 50.3924 22.8994 50.3924 16.8475C50.3924 10.7955 45.5279 5.88673 39.529 5.88673Z" fill="#40A0FF"/>
<path d="M27.361 2.21373C24.858 2.21373 22.5959 3.26404 20.9707 4.95779C19.12 2.52993 16.241 1.10594 13.1874 1.11036C7.78333 1.11036 3.40079 5.48626 3.40079 10.8837C3.39858 12.2215 3.67277 13.5438 4.20566 14.7709C1.59427 16.3011 -0.00661296 19.1048 2.05353e-05 22.1319C2.05353e-05 26.8262 3.76564 30.6316 8.4113 30.6294C8.96409 30.6294 9.51467 30.5742 10.0564 30.4636V20.6726C10.0564 20.0468 10.3859 19.4697 10.9232 19.1491L27.8718 8.51777L26.7131 6.49676L35.0647 6.70682C33.5036 4.01805 30.6379 2.21373 27.361 2.21373Z" fill="#036FE3"/>
<path d="M65.961 25.9198C64.2938 25.9198 62.8919 25.5483 61.7531 24.8032C60.6144 24.058 59.814 23.0453 59.3496 21.7628L62.1865 20.1044C62.8433 21.8203 64.1346 22.676 66.0561 22.676C66.9848 22.676 67.6658 22.508 68.0992 22.1719C68.5326 21.8358 68.7493 21.4112 68.7493 20.8983C68.7493 20.3057 68.4839 19.8435 67.9555 19.5163C67.427 19.1868 66.4806 18.8308 65.1185 18.4461C64.3645 18.2227 63.7277 17.9972 63.2081 17.7739C62.6863 17.5483 62.1666 17.2498 61.6448 16.8717C61.123 16.4958 60.7272 16.0182 60.4552 15.4411C60.1832 14.864 60.0461 14.1918 60.0461 13.4223C60.0461 11.8988 60.5879 10.6849 61.6691 9.78051C62.7504 8.87614 64.0528 8.42285 65.5763 8.42285C66.9383 8.42285 68.1368 8.75453 69.1694 9.42009C70.2042 10.0856 71.0091 11.0099 71.5862 12.1973L68.7979 13.807C68.1257 12.3654 67.0511 11.6445 65.5763 11.6445C64.8864 11.6445 64.3468 11.8015 63.9533 12.1133C63.5597 12.4251 63.3651 12.8319 63.3651 13.3272C63.3651 13.8557 63.584 14.2847 64.0262 14.6141C64.4663 14.9436 65.3131 15.2996 66.5624 15.6843C67.0754 15.8457 67.4646 15.9696 67.7277 16.058C67.9931 16.1465 68.3535 16.2835 68.809 16.4671C69.2667 16.6506 69.6183 16.8231 69.8659 16.9845C70.1136 17.1437 70.3988 17.3604 70.7194 17.6346C71.04 17.9065 71.2833 18.1874 71.4535 18.477C71.6216 18.7645 71.7653 19.1138 71.8869 19.5229C72.0063 19.932 72.0682 20.3764 72.0682 20.8562C72.0682 22.4107 71.5044 23.6445 70.3745 24.5577C69.2424 25.4643 67.7697 25.9198 65.961 25.9198Z" fill="white"/>
<path d="M84.1589 11.9289H77.4281V15.92H83.9665V19.0931H77.4281V25.5828H74.1113V8.75586H84.1589V11.9289Z" fill="white"/>
<path d="M103.053 8.75586V25.5828H99.7608V14.6685L95.0156 22.4761L94.6287 22.4894L89.9056 14.7105V25.5828H86.5889V8.75586H90.0029L94.8277 16.7006L99.6281 8.75586H103.053Z" fill="white"/>
<path d="M114.158 25.9193C111.626 25.9193 109.534 25.0769 107.885 23.3942C106.233 21.7115 105.408 19.6374 105.408 17.1676C105.408 14.6844 106.233 12.6037 107.885 10.9299C109.534 9.256 111.626 8.41797 114.158 8.41797C115.681 8.41797 117.088 8.77397 118.377 9.48817C119.666 10.2024 120.672 11.1664 121.393 12.3848L118.534 14.0454C118.116 13.2914 117.523 12.7032 116.754 12.2787C115.984 11.8541 115.12 11.6418 114.158 11.6418C112.524 11.6418 111.204 12.1548 110.204 13.1808C109.203 14.2068 108.701 15.5357 108.701 17.172C108.701 18.7906 109.2 20.1128 110.204 21.1388C111.206 22.1648 112.524 22.6778 114.158 22.6778C115.12 22.6778 115.989 22.4655 116.767 22.041C117.543 21.6164 118.133 21.0349 118.534 20.2986L121.395 21.9569C120.674 23.1753 119.672 24.1416 118.39 24.8536C117.107 25.5634 115.697 25.9193 114.158 25.9193Z" fill="white"/>
<path d="M135.385 25.9198C133.718 25.9198 132.316 25.5483 131.177 24.8032C130.038 24.058 129.238 23.0453 128.773 21.7628L131.61 20.1044C132.267 21.8203 133.558 22.676 135.48 22.676C136.409 22.676 137.092 22.508 137.523 22.1719C137.956 21.8358 138.173 21.4112 138.173 20.8983C138.173 20.3057 137.908 19.8435 137.379 19.5163C136.851 19.1868 135.904 18.8308 134.542 18.4461C133.788 18.2227 133.152 17.9972 132.632 17.7739C132.11 17.5483 131.59 17.2498 131.069 16.8717C130.547 16.4958 130.151 16.0182 129.879 15.4411C129.607 14.864 129.47 14.1918 129.47 13.4223C129.47 11.8988 130.012 10.6849 131.093 9.78051C132.174 8.87614 133.477 8.42285 135 8.42285C136.362 8.42285 137.561 8.75453 138.593 9.42009C139.626 10.0856 140.433 11.0099 141.008 12.1973L138.22 13.807C137.545 12.3654 136.473 11.6445 134.998 11.6445C134.31 11.6445 133.768 11.8015 133.375 12.1133C132.983 12.4251 132.787 12.8319 132.787 13.3272C132.787 13.8557 133.006 14.2847 133.448 14.6141C133.888 14.9436 134.735 15.2996 135.984 15.6843C136.497 15.8457 136.886 15.9696 137.149 16.058C137.415 16.1465 137.775 16.2835 138.231 16.4671C138.688 16.6506 139.04 16.8231 139.288 16.9845C139.535 17.1437 139.82 17.3604 140.141 17.6346C140.462 17.9065 140.705 18.1874 140.873 18.477C141.041 18.7645 141.187 19.1138 141.306 19.5229C141.426 19.932 141.488 20.3764 141.488 20.8562C141.488 22.4107 140.922 23.6445 139.792 24.5577C138.662 25.4709 137.196 25.9198 135.385 25.9198Z" fill="white"/>
<path d="M150.025 16.5443H147.308V21.5437C147.308 21.9616 147.411 22.2646 147.619 22.4569C147.827 22.6493 148.132 22.7577 148.533 22.782C148.933 22.8063 149.43 22.8019 150.023 22.7709V25.5835C147.891 25.8246 146.39 25.6233 145.516 24.9821C144.643 24.3409 144.207 23.1955 144.207 21.5437V16.5443H142.116V13.5636H144.207V11.1358L147.308 10.1982V13.5636H150.025V16.5443Z" fill="white"/>
<path d="M160.338 13.5635H163.438V25.5834H160.338V24.2368C159.584 25.3578 158.39 25.9195 156.756 25.9195C155.442 25.9195 154.357 25.4795 153.499 24.5972C152.641 23.7172 152.212 22.4988 152.212 20.9443V13.5635H155.312V20.5596C155.312 21.3623 155.529 21.9748 155.96 22.3993C156.393 22.8238 156.97 23.0361 157.691 23.0361C158.492 23.0361 159.133 22.7885 159.615 22.291C160.095 21.7934 160.336 21.0483 160.336 20.0555V13.5635H160.338Z" fill="white"/>
<path d="M175.385 8.75586H178.487V25.5828H175.385V24.1655C174.472 25.3352 173.174 25.9211 171.491 25.9211C169.872 25.9211 168.49 25.3086 167.345 24.0815C166.2 22.8543 165.627 21.3529 165.627 19.5751C165.627 17.7951 166.2 16.2937 167.345 15.0665C168.49 13.8415 169.872 13.2268 171.491 13.2268C173.174 13.2268 174.472 13.8128 175.385 14.9825V8.75586ZM169.676 22.014C170.308 22.6464 171.106 22.9626 172.068 22.9626C173.03 22.9626 173.824 22.6464 174.447 22.014C175.073 21.3816 175.385 20.5679 175.385 19.5751C175.385 18.5823 175.073 17.7686 174.447 17.134C173.822 16.5016 173.028 16.1854 172.068 16.1854C171.108 16.1854 170.31 16.5016 169.676 17.134C169.043 17.7664 168.727 18.5801 168.727 19.5751C168.727 20.5679 169.043 21.3794 169.676 22.014Z" fill="white"/>
<path d="M182.863 12.1217C182.35 12.1217 181.906 11.9337 181.53 11.5578C181.154 11.1819 180.964 10.7375 180.964 10.2245C180.964 9.71151 181.152 9.26264 181.53 8.8779C181.906 8.49315 182.35 8.30078 182.863 8.30078C183.392 8.30078 183.845 8.49315 184.221 8.8779C184.597 9.26264 184.787 9.71151 184.787 10.2245C184.787 10.7375 184.599 11.1819 184.221 11.5578C183.843 11.9337 183.392 12.1217 182.863 12.1217ZM181.324 25.5833V13.5634H184.427V25.5833H181.324Z" fill="white"/>
<path d="M197.501 24.0822C196.267 25.3094 194.762 25.9218 192.982 25.9218C191.202 25.9218 189.7 25.3094 188.473 24.0822C187.248 22.855 186.633 21.3536 186.633 19.5758C186.633 17.7958 187.246 16.2944 188.473 15.0672C189.7 13.8422 191.202 13.2275 192.982 13.2275C194.759 13.2275 196.267 13.84 197.501 15.0672C198.735 16.2944 199.352 17.7958 199.352 19.5758C199.352 21.3536 198.735 22.855 197.501 24.0822ZM190.662 21.9528C191.279 22.5786 192.053 22.8903 192.982 22.8903C193.91 22.8903 194.689 22.5786 195.314 21.9528C195.94 21.327 196.252 20.5354 196.252 19.5736C196.252 18.6117 195.94 17.8179 195.314 17.1944C194.689 16.5686 193.912 16.2568 192.982 16.2568C192.053 16.2568 191.279 16.5686 190.662 17.1944C190.045 17.8201 189.736 18.6139 189.736 19.5736C189.736 20.5332 190.045 21.3293 190.662 21.9528Z" fill="white"/>
</g>
<defs>
<clipPath id="clip0_9965_3460">
<rect width="200" height="33" fill="white" transform="translate(0 0.5)"/>
</clipPath>
</defs>
</svg>
