<svg viewBox="0 0 1436 1436" width="359" height="359" xmlns="http://www.w3.org/2000/svg"><path d="M115 612h1187l5 3 10 1 16 8 11 6 8 7v2h2l6 8 6 9 5 9 2 9 2 2 1 6v36l-3 4-2 9-5 9-3 4h-2l-2 7-17 17-5 2-9 6-20 7-16 1H134l-11-1-5-2-10-2-12-5-9-6-8-7-12-12-10-18-4-12-1-2v-42l7-16 7-11 11-13 14-12 16-8zm29 40-3 2-19 2-11 6-14 14-3 11-2 3v20l9 17 14 9 7 4 14 1v2l2 1h1152l7-2 10-3 9-5 10-9 6-8 4-12v-13l-5-15-9-10-8-7-8-4-9-2-3-2z" fill="#B5ACD3"/><path d="M329 840h915l16 5 9 3 10 7 6 4 9 9 5 8 8 13 4 8 3 16 2 8v13l-3 3-1 12-3 5-2 5-9 17-19 19-23 11-9 2-11 1-3 2-21 1H351l-11-1-2-2-15-2-12-5-8-5-10-7-8-7-10-14-5-8-6-16v-43l3-5 2-8 5-9 6-9 7-8 6-5 13-8 19-9zm8 40-5 3-13 7-7 8-8 17v19l9 17 8 9 13 8 14 1v2l2 1h877l6-2v-2h9l9-5 10-9 7-8 4-10v-21l-3-9-4-8-8-8-14-7-8-3z" fill="#7584EB"/><path d="M178 1064h739l7 3 9 3 8 5 10 7 8 7 3 6 8 9 8 16 2 6 1 8 2 2 1 5v20l-3 8-1 9-3 4-1 8-7 8-3 6-15 15-23 11-5 2-7 2-1 1-15 1H183l-13-4-18-10-25-25-7-12-2-8-2-4-1-11-3-5v-13l3-7 1-10 3-6 2-8 5-9 4-5h2l5-10 9-8 11-8 10-5 9-3zm14 40-3 3-8 1-16 16-5 10v28l8 16 5 6 10 6 3 2 8 1 4 3h700l7-2 12-4 10-6 9-10 4-11v-27l-5-11-9-10-6-4-10-4-6-2-2-1z" fill="#9442F2"/><path d="M326 392h731l7 3 9 3 14 7 7 7 2 1v2h2v2h2v2h2v2h2v2h2l6 8 8 15 3 9 1 7v36l-3 4-2 9-5 9-5 6-3 6-9 9-10 6-20 9-7 2-1 1-14 1H336l-8-2-1-1-10-2-21-11-9-7-9-9-13-25-3-15-2-3v-18l3-5 1-11 3-6 2-8 6-7 3-6 11-12 10-8 16-8 9-3zm9 40-9 4-8 7-9 9-5 10v24l9 17 4 5 10 6 11 6h709l11-4 10-6 8-7 4-5 4-10v-25l-5-10-11-12-8-6-6-3z" fill="#A8A6DD"/><path d="M186 164h647l11 4 18 8 10 6 8 7v2h2l6 8 6 9 5 9 3 11 2 9v33l-3 4-2 9-9 17-23 23-19 9-7 3-12 1H182l-4-3-8-1-4-3-7-3-8-5-6-5-7-8-9-9-3-6-5-7-3-10-2-2-1-20-2-5 2-3 1-19 10-20 5-8 9-10 10-9 15-9zm14 40-1 2-13 2-11 6-10 10-5 11-2 12-1 5 4 16 7 12 7 7 15 9h633l6-2v-2h9l12-11v-2l3-1 6-9 1-2 1-10 3-5v-6l-3-5-2-9-6-10-8-8-12-6-17-4z" fill="#00C4FF"/><path d="M115 612h1187l5 3 10 1 16 8 11 6 8 7v2h2l6 8 6 9 5 9 2 9 2 2 1 6v36l-3 4-2 9-5 9-3 4h-2l-2 7-17 17-7 2-16 8-10 3h-36l-163-1 2-1v-2l8 1 1-1h7l12-2 15-1 4-1h7l13-3 15-3 12-2-4-5h-8l-22-5-17-1-13-1-11-2h-7l-4-1-20-1h-10l-15-2 4-2 219-1v-2l9-2 9-5 7-6h2l2-4 5-7 4-11v-18l-4-11-15-15-11-6-9-2-3-2-1149-1v-1l324-1-6-2-18-1-18-3-10-4-13-4-3-6 1-5 9-3 8-3 1-2-25-1-8-1-107-1H125l-12 2-13 5-9 5h-3l5-4 14-7z" fill="#999FD7"/><path d="M740 841h451l54 1 6 2 18 4 10 7 6 4 9 9 5 8 8 13 4 8 3 16 2 8v13l-3 3-1 12-3 5-2 5-9 17-19 19-23 11-9 2-17 1h-28l-19-1H972l-7 1-169 1v-1h9l-1-2-8-3-10-2-16-2-9-3v-2h-4l-3-3-17-4-1-4h2v-2l9-2 11-1 3 1v-3l-15-1-2-1-63-1v-1h353v2l2-1h140l51-2v-1l5-1 1-2 9-1 9-5 10-9 6-7 4-10v-21l-3-9-4-8-7-7-14-7-8-3v-2H935l-143-1-1-2-23-2-6-3-7-1v-2l12-3h2v-2l9-1 2-3-17-6-5-1-8-2-18-2 1-3-3-1 1-2z" fill="#B385E0"/><path d="M178 1064h580v1l-381 1-64 1-5 1-19 1-7 2-2 4-4 2 13 4 14 4 1 3-2 1 2 3-2 4 16 2 13 1 69 2 221 1v1l-429 1-1 3-10 2-15 15-5 10v28l8 16 4 5 10 6 3 2 8 1 4 3h700l7-2 12-4 10-6 6-5-2 4-11 9-9 3-10 3-55 1-129 1-35 1-70 1-7 3-1 1h-6l1 4 36 6 4 2-4 3-7 2v2l-5 1h-3l-1 2 7 1 1 1 36 2 41 2h212l-1 2-15 1H183l-13-4-18-10-25-25-7-12-2-8-2-4-1-11-3-5v-13l3-7 1-10 3-6 2-8 5-9 4-5h2l5-10 9-8 11-8 10-5 9-3z" fill="#4F21F9"/><path d="M186 164h647l11 4 18 8 10 6 8 7v2h2l6 8 6 9 5 9 3 11 2 9v33l-3 4-2 9-9 17-23 23-19 9-7 3-12 1H182l-3-2 1-2 4 1h266v-1l7-1-31-4-41-4-16-1-78-1-8-1 4-2 11-3h3v-2l-4 1-12-2-5-3-18-2-4-3 31-1 5-1h4l46 2h58l21-1 18-2-6-1v-1H204l-14-2v-1l633-1 5-1 1-2 9-1 11-10 8-10 2-4 1-10 3-5v-6l-3-5-2-9-6-10-7-7-12-6-17-4-612-1v-1h612l-1-2-14-4-21-8 1-2-6-3-2-6 5-6h2l-1-3 4-2-379-1H190l-9 1 2-2z" fill="#01BCFE"/><path d="M125 613h155l107 1 26 2 7 1-2 4-14 4-2 1 1 7 1 2 13 4 10 4 18 3 18 1 9 3v1l-327 1-4 3-19 2-11 6-13 13-3 11-2 3v20l9 17 20 12 12 1 2 1v2l170 1 64 1-5 4-25 5-5 2-1 5 2 4 9 4 27 6 9 3 3 3-18 1H133l-22-2-15-6-9-6-8-7-12-12-10-18-4-12-1-2v-42l7-16 7-11 11-13 9-8 5-2 16-8 10-3z" fill="#21E6CE"/><path d="M326 392h341v1l-63 1 10 3-1 6 5-1 3 1 2 2-1 2h11l5 3v2l-4-1-7 3-7 2h-8l4 3 12 2 3 2v2l-12 2-1 1 44 1v1l-327 1v2l-9 4-8 7-8 8-5 10v24l9 17 5 5 8 5 11 6 450 1v1l-163 1-84 1-36 1-12 1 1 6 2 1-1 2h-2l-1 3h-4l-1 3-4 1h-7v2h2l-1 4h9l7 2 22 4 5 2h4v3H334l-17-3-21-11-9-7-9-9-13-25-3-15-2-3v-18l3-5 1-11 3-6 2-8 6-7 3-6 11-12 10-8 16-8 9-3z" fill="#0CA7FA"/><path d="M1216 614h83l18 2 16 8 11 6 8 7v2h2l6 8 6 9 5 9 2 9 2 2 1 6v36l-3 4-2 9-5 9-3 4h-2l-2 7-17 17-7 2-16 8-10 3h-36l-163-1 2-1v-2l8 1 1-1h7l12-2 15-1 4-1h7l13-3 15-3 12-2-4-5h-8l-22-5-17-1-13-1-11-2h-7l-4-1-20-1h-10l-15-2 4-2 219-1v-2l9-2 9-5 7-6h2l2-4 5-7 4-11v-18l-4-11-3-2-2-5-5-6-11-7-11-4-5-2-235-1-9-1v-2l8-1h-5l-1-2 8-2 14-2 10-4 7-1 4-2 4-4-7-4-12-3-17-3v-3l25-2z" fill="#E4CDC0"/><path d="M879 1065h30l21 5 15 8 10 7 5 6 3 5 7 8 8 16 2 6 1 8 2 2 1 5v20l-3 8-1 9-3 4-1 8-7 8-3 6-15 15-23 11-5 2-9 2H704l-46-2-31-2-8-3 1-3h8l-1-3 10-3 1-1-17-3-25-5 2-1v-3l7-2 7-3 70-1 35-1 129-1 55-1 15-4 9-6 7-6 2-5 4-8 1-4v-27l-5-11-9-10-11-6v-2l-7-1v-2l-15-1-10-2-33-1-15-2 1-2-4-2 4-1 5-1 1-2 7-2 2-3-6-2-11-2-18-3-11-3v-2l7-3-8-1v-1l25-1 12-1z" fill="#AF4EF5"/><path d="M740 841h451l54 1 6 2 4 2h-11v3l4 1 15 6v2l4 2 8 7 3 6 4 7-1 6-1 2-5-1-9-4-7-2-6-2h-2v-2l-5 1h-2l-3 3-14-2H935l-143-1-1-2-23-2-6-3-7-1v-2l12-3h2v-2l9-1 2-3-17-6-5-1-8-2-18-2 1-3-3-1 1-2z" fill="#B994D5"/><path d="M397 840h847l16 5 1 2-10-2-6-2-54-1H740l-9 1 2 4 21 3 8 1 9 4 9 3v3l-2 2h-9v2l-4 2-10 1v2h7l6 3 23 2 6 1v1l138 1h292l8 1v1H338v-1l72-1v-2l-6-2-8-3 1-2 13-3v-2h5l1-5 5-1v2h-2v2h3v-6l4-5-8-2h-5l2-4 10-2 29-1-57-1z" fill="#8897E4"/><path d="m1331 677 2 1 4 11v18l-5 13-7 9-12 9-8 4h-7v2l-4 1-641 1 1 2 10 2 1 2-9 2-5 2h-4l2 4 6 2 4 3 4 2 8 3h4v2l3-1 4 4-3 2h-27l-28-1h-8l-4 4 37 1h654l16-4 16-8h3l-8 6-13 5-9 3-16 1H134l-11-1-5-2v-1l15 1h237l12-1-7-3-16-4-17-4-8-4v-3l-1-4 4-4 17-4 11-2 1-2-60-1v-1l984-1 7-2 10-3 9-5 10-9 5-7 4-12v-13l-4-13z" fill="#75A1E7"/><path d="M932 1178v3l-9 8-7 4-15 4-55 1-129 1-35 1-70 1-7 3-1 1h-6l1 4 36 6 4 2-4 3-7 2v2l-5 1h-3l-1 2 7 1 1 1 36 2 41 2h212l-1 2-15 1H183v-1l205-1-31-1-28-1-8-1-11-1-7-3-6-1-3-3-4-2 9-3 1-1-11-1-12-3-11-1-3-2v-2h8v-2l4-2 10-2 5-2 49-1h32l24-1 51-1 452-2 7-2 12-4 10-6z" fill="#6A33F5"/><path d="M186 164h647l11 4 18 8 10 6 8 7v2h2l6 8 6 9 5 9 3 11 2 9v33l-3 4-2 9-9 17-23 23-19 9-7 3-12 1H182l-3-2 1-2 12 2h628l-5-7-2-16 6-5 1-2h2l-1-5 1-1-626-1v-1l627-1 5-1 1-2 9-1 11-10 8-10 2-4 1-10 3-5v-6l-3-5-2-9-6-10-7-7-12-6-17-4-612-1v-1h612l-1-2-14-4-21-8 1-2-6-3-2-6 5-6h2l-1-3 4-2-379-1H190l-9 1 2-2z" fill="#6487EC"/><path d="M625 521h147v1l-16 2 1 2 9 1 10 4-4 2-3 1 1 4 4 1 5 1-5 5-4 3v3l8 2 13 1 7 1h3v3l259-1-1 2-14 1H336l-8-2-1-2 7 1 190 1-1-2-7-1-6-2-12-2-11-2-1-1-9-1 1-4h-2v-2l11-1 1-4h4l1-2h2l-2-5-1-5 19-1 37-1z" fill="#74A0E7"/><path d="M365 972h864v1l-55 2h-140v-2l-290 1 10 2 7 1v3l-14 1-9 1v2h-2v2l5 2 13 3 3 2v2h4v2l13 3 16 2 7 2 8 3v2l165-1 2-1h211l19 1h33l-2 3-21 1H368v-1l354-1-35-1-23-1h-20l-50-1v-2l-7 2-3-1v-2l-17-2v-2h-8l2-4-5-2-3-2-29-4-11-1-6-2-5-1v-2l6-1-4-1-13-2-9-1v-2h-6v-1l-111-1z" fill="#8584E8"/><path d="M667 392h119l43 2v2h13l4 3 5 1-1 2h-5l-1 1-7 1v2l12 5v2l7 1 4 1v2l-4 3 1 3 4-1h23l7-1 12-1h35l11 1 2 2-2 1 5 2v1l88 2 2 1 9 1v1H335v-1l7-1 275-1 2-3 9-1h3l-3-3-12-2-3-1v-2l-2-1 4-1 8-1 5-2h5l1-2 4 2-4-4-3 1-3-1-6-1v-2l-4-2h-5v-5l-9-3-20-1v-1z" fill="#74A0E6"/><path d="M125 613h155l107 1 26 2 7 1-2 4-14 4-2 1 1 7 1 2 13 4 10 4 18 3 18 1 9 3v1l-327 1-18 2-11 3-5 2-4 1 2-5 6-3 2-2 9-1v-2l7-3 14-4 36-3h34v-4h8l-2-4-11-2-4 1-5-1v-2h-22l-11-1h-12l-11-1-15 1-17 5-9 3-11 4-6 3-5 3h-3v2h-2v2h-2v2h-2v2l-4 1 3-5-1-3h2v-2h2l1-4 10-10 10-6 12-5 7-2z" fill="#13E2D9"/><path d="M115 612h1187l3 3-13-1H797l-103 1-13 2h-59l-11 2v2l6 1-4 2-9 3v3h-3l1 2-6-1v2h5l-2 3-1 5 5 1 1 3 9 1 12 1 2 2-2 1 670 1 16 6 11 7 7 8-1 2-11-11-11-6-9-2-3-2-1149-1v-1l324-1-6-2-18-1-18-3-10-4-13-4-3-6 1-5 9-3 8-3 1-2-25-1-8-1-107-1H125l-12 2-13 5-9 5h-3l5-4 14-7z" fill="#70A2EB"/><path d="M377 1065h192v1h-83l7 2-3 2h-3l1 3-1 1-14 2v3l11 1 17 3 10 3v2l8 2v2h34l38 1h32l12 3v2h27l19 1 28 1 17 1 166 1 15 2v2l7 1-4 1-6-2-2-1-708-1v-1l202-1-71-2-9-1-12-2-2-1 1-5-3-2 4-1-3-3-22-6-4-2 3-2 6-5 5-2 19-1 7-1z" fill="#6A34F5"/><path d="M609 166h175l-4 4v2h-2l-1 3-3 3 2 6 6 3v2l19 7 14 4 1 3H682l-9-2-23-2-73-3-82-5-24-2-18-4-7-2 1-2 17-4 49-3 75-3 20-2-5-1v-1z" fill="#00BDFF"/><path d="M880 614h336v1l-128 1-24 2v1l22 4 9 3 7 4-4 2-4 4-5 2-6 1-8 3-14 2-7 2h6l2 2h-11v2h9v1H884l-21-1 2-2-10-2h-4v-2l-12-1 1-4-4-1 2-1-1-3 1-2-5-1-5-5 1-4 2-1 1-3 22-3z" fill="#B5ACD3"/><path d="M329 840h68l60 1-3 2-32 1-8 3 4 1 10 3-3 3h-2l-1 8h-3v-2h2v-2l-5 1-1 5h-5v2l-10 3-4 2 7 1 2 2 10 2v1l16 1v1l-93 1-3 3-16 8-6 7-8 17v19l9 17 1 4-2 4-4-1v-2l-10-2-2 4-7 5-1 4 6 11 8 8 1 4h-2l-1 2-7-1-10-9-9-13-5-8-6-16v-43l3-5 2-8 5-9 6-9 7-8 6-5 13-8 19-9z" fill="#3A8EF2"/><path d="M786 392h271l7 3 9 3 14 7 3 4h-2l1 3-1 2 4 2 5 5 3 2 2 6 2 2 1 4-2 1-2-1v-2l-4-2v-2l-9-2h-4v7l3 11 4 7v4l-3 1-3-2 1 3v24l-2 10-3 3 2-7v-25l-5-10-11-12-7-5-7-4-9-1-2-1-89-2v-2l-6-1 2-3-14-1h-34l-10 1-12 1h-22v-2l-2-1 3-3h2v-2l-7-1-4-1-1-2-11-4v-4l7-1 2-1h4l-5-1-3-3-13-1v-2h-25l-18-1z" fill="#9BA4D4"/><path d="M326 392h341v1l-63 1 10 3-1 6 5-1 3 1 2 2-1 2h11l5 3v2l-4-1-7 3-7 2h-8l4 3 12 2 3 2v2l-12 2-1 1 44 1v1H358v-1l75-1h-5v-2l-14-1-11-3-6-2-4-1v2h-9v-2h-3l-2-5v-9l7-5h20l13-1 10-3 3-2H329l-15 5-5 1 4-3 10-3z" fill="#3B9EF5"/><path d="m1247 845 17 2 7 2 8 6 6 4 9 9 5 8 8 13 4 8 3 16 2 8v13l-3 3-1 12-3 5-2 5-9 17-13 13-11 6-16 8-9 3-21 2-18-1-5-2v-3l10-4 12-2v-3l-10-1-4-1-14-1-1-1-17-2-20-4-18-2-25-1-9-1-3-3 6-1 64-1 51-2v-1l5-1 1-2 9-1 9-5 10-9 6-7 4-10v-21l-3-9-4-8-7-7-14-7-8-3 4-1 4-2 3-2v2l5-1v2l4-1 6 3 10 3 9 4 1-8-6-11-6-7-6-4-2-2-5-2-12-5v-3z" fill="#E891E2"/><path d="M649 745h216l-4 2h-2l1 3-4 1-2-1v2l-17 1-2 3 5 3 10 2 4 3v2l3 1-3 1v2l3 1 5 2h8l18 2 15 1 9 2 11 1v2h66v1H649l-49-1v-1l12-1-1-2 5-2h16l29 1h18v-3l-5-2-9-2-14-8-5-2 1-3 8-2 9-3-10-2z" fill="#8DA4D9"/><path d="m323 512 6 2 9 5 450 1v1l-163 1-84 1-36 1-12 1 1 6 2 1-1 2h-2l-1 3h-4l-1 3-4 1h-7v2h2l-1 4h9l7 2 22 4 5 2h4v3H334l-17-3-6-3 4-1 7 3 9 1-1-3-4-2-11-6-10-7-4-3v-2l-4-2-2-4v-5l3-1 2-4 3-3 9 3 14 3v-2h3l-6-3z" fill="#3C96F6"/><path d="m190 296 634 1-2 4v3h-2l-2 4-4 3 2 16 5 7v1H690l-4-2-8-2-7-1-24-1-14-2v-2h-7v-3l-14-2-9-5v-4l11-3 13-1 1-2 23-2h10l7-1 1-1-7-1-23-1H204l-14-2z" fill="#10A7FA"/><path d="m147 622 13 1h13l9 1h16l5 1v2l11-1 9 2 2 2v3l2 1-10-1v4l-34 1-36 3-17 5-4 1v2l-9 2-3 3-5 2v3l5-3 6-1 7-2 7-1h10l-3 3-19 2-11 6-13 13-3 11-2 3v20l7 13-1 3-6-9-1-2-2 4 2 6 4 2v4h2l6 8 2 1-1 5 2 6 1 7 4 3v8l-2 1-1 4h-2l1 2 10 3v1h-7l-15-6-9-6-8-7-12-12-10-18-4-12-1-2v-42l7-16 7-11 11-13 9-8 2 1-10 10-1 3h-2l-1 5 2 1h-3v3h2v-2h2v-2h2v-2h2v-2l8-4 9-4 10-4 24-7z" fill="#27F1C8"/><path d="M357 166h252l1 3-2 1-20 2-95 4-29 2-17 4 9 3 15 3 54 4 52 3 73 3 23 2 9 2v1H342v-1l121-1-2-2-113-5-58-1-17-1v-1l27-5-4-3 1-1-9-3-3-2-41-4v-1h126l44-1 26-2-35-1h-20l-28-1z" fill="#0cf"/><path d="M740 841h451v1l-286 1 3 3 5 1-2 2 13 2h8l12 3 19 3 2 1 1 4-3 3-4 1h-12l-9 3 14 2 9 1 9 2 26 1 1 2-2 1-60 1-143-1-1-2-23-2-6-3-7-1v-2l12-3h2v-2l9-1 2-3-17-6-5-1-8-2-18-2 1-3-3-1 1-2z" fill="#A096E0"/><path d="M190 165h214v1l-15 1h27l28 1-4 2-30 2-40 1H254l31 3 6 1v2l7 2v3l5 1-3 2-22 4 12 1 58 1 113 5 6 1v1l54 1v1l-321 2-1 3-13 2-6 3-5-2v-2h2l2-5 4-2 12-2 9-2 1-3-2-1v-3l-2-1-16-2 1 3h-3l-1-2h-9v-2l-7 3-10 3-3 1-5-2-5 4h-2l-2 4-5 2-7 8v-3l3-6 11-12 9-8 15-9 12-4z" fill="#14C8F3"/><path d="M846 1197h54v1l-51 2-58 1-18 4h-3v2l15 2 10 3 17 3 3 2v5l1 2-3 2-1 4h17l45 2 4 2H704l-46-2-31-2-8-3 1-3h8l-1-3 10-3 1-1-17-3-25-5 2-1v-3l7-2 7-3 70-1 35-1z" fill="#9442F2"/><path d="M1348 729h4l-3 9-4 9-6 8-4 4h-2v2h-2v2l-4 2-1 2h-5v2h-2v2l-5 3-12 2-4 2 1 1 10 1v1h-36l-163-1 2-1v-2l8 1 1-1h7l12-2 15-1 4-1h7l13-3 15-3 12-2-4-5h-8l-22-5-17-1-13-1-11-2h-7l-4-1-20-1h-10l-15-2 4-2 219-1v-2l9-2 9-5h3l-2 3 12-3 5-1 1-2h7l1-2z" fill="#E4CDC0"/><path d="M1262 614h37l18 2 16 8 11 6 8 7v2h2l6 8 6 9 5 9 2 9 2 2 1 6v36l-3 4-2 9-5 9-3 4h-2l-2 7-17 17-7 2-16 8-8 2h-12l-2-2 5-3 12-2 5-2v-2h2v-2h5l2-4h3v-2h2v-2h2l2-4 4-4 5-7 5-14-3-1-1 2-5 1-7 1-9 4-9 2v-3l6-7h2l2-4 5-7 4-11v-18l-4-11-3-2-2-5-5-6-11-7-11-4-5-2-36-2 4-2-12-1-3-2h8l7-1h11l10-1h15l7 4 15 5 4 3h7l5 2v-7l-3-4v-2l-4-2-3-2v-2l-5-2-12-6-7-4-13-4-27-2-25-1-9-1v-1l9-1 1-1z" fill="#E8D3C4"/><path d="M461 745h66l10 1-2 4v2l-12 2-13 3-3 4 9 3 1 2 3 1v2l15 3 6 3 6 1v4l32 1h724l16-4 16-8h3l-8 6-13 5-9 3-16 1H134l-11-1-5-2v-1l15 1h375l-9-1-2-1-9-1-4-1-28-3-31-4v-2l-10-1-5-2v-2l-4-2 1-3 5-3 8-2 25-3 7-2h4v-2z" fill="#5BABEA"/><path d="M397 840h847l16 5 1 2-10-2-6-2-54-1H516v1l-12 1-5 6-16 2h-5l-4 3 1 4 11 2 2 3 3 2-3 2 20 2 42 2 18 1 8 1 36 1 7 1 4 1 46 1h558l8 1v1H338v-1l72-1v-2l-6-2-8-3 1-2 13-3v-2h5l1-5 5-1v2h-2v2h3v-6l4-5-8-2h-5l2-4 10-2 29-1-57-1z" fill="#6A7DEC"/><path d="M186 164h647l11 4 18 8 10 6 8 7v11l-4 2h-4l-1 8-2 2-2 8 1 7v8l-1 2h-2l1 13-2-1-4-8-2-9-6-10-7-7-12-6-17-4-612-1v-1h612l-1-2-14-4-21-8 1-2-6-3-2-6 5-6h2l-1-3 4-2-379-1H190l-9 1 2-2z" fill="#457FF5"/><path d="M170 186h3v2l9-1 1 3 2-1v-2l17 1 1 4 2 1 1 4-14 4-9 1-5 4-1 2h-2v2l3 1v2l-8 7-6 5-4 7-3 10-5-2v22l4 8v2l4 2 2 6 1 9-1 4-2-1 7 14-1 6-8 1-5-3v-2l-5-2v-2l-4-2-9-9-7-8-5-3h-2l-1-5-4-3-1-20-2-5 2-3 1-19 9-18 5-4 5-6 5-2 4-4 5-3 5 2 7-3z" fill="#01D2EC"/><path d="M387 614h196l-3 2-18 1-6 1-1 3-9 5-6 2-2-1-1 2 4 2 2 12 8 3 9 1v2h9l3 2H472l-9-3-18-1-18-3-10-4-13-4-3-6 1-5 9-3 8-3 1-2-25-1-8-1z" fill="#41B2EB"/><path d="M299 954h7l4 4 3 1 2-5 8 6 9 6 2 1 12 1 2 1v2l39 2-2 3 2 4h-2l1 5 5 2 9 1 10 4 2 3-1 1v8l8 2 25 1h39l31 1 71 1v1l-85 1-149 1-11-1-2-2-15-2-12-5-8-5-5-5 5-3-3-5-3-3v-2l-3-1-6-11 2-5 8-6z" fill="#6488EC"/><path d="M513 841h114l-4 2-9 1 1 3 15 2v2l7-1 1 4 6 4v4l-7 1-5 6h-9v2h-2l1 2 5 1v1l13 1v1h-20l-2 1v-2l-4 1-6-1-33-1-43-3-24-1-21-2 2-3-4-4-10-3-2-5 5-3h8l13-2-1-2 5-3 1-1 9-1z" fill="#7590E1"/><path d="M758 1064h159l7 3 9 3 8 5h-3l-8-4-21-5H779l-110 1-54 2v1l8 2-2 2 4 2 21 2 27 4 2 4-6 3-7 1-5 1-7 1h-1l-20 2h-50l-37-1-23-1v-2l-10-2-4-3-15-3-17-3-1-3 1-1 14-2v-3l3-1-4-1v-2l83-1z" fill="#7A41EC"/><path d="m917 1191 3 1h-2l-2 4-9 3-8 2 1 4 6-1 2 1v2l5-2 5-1 5-4 6-2h4v-2l11 1 4 1v4h-2l-1 6h-2l-1-1-1 5-6 2-4 4-5 2v3h-2l-2 4-4 3-4 1 3 2-3 1h-36l-8-1-41-2-17-1 1-5 2-2-1-3v-3l-6-2-13-2-15-4-10-2v-2l11-3 10-2 60-1 49-2 8-3z" fill="#AA44F3"/><path d="m1055 516 3 1-10 4-35 1-162 1 3 4 17 1 9 2 5 2 6 4 8 4v2l-8 4h-5v2h-6l-2 1-1 3-5 1-1 2-1-3-9 3-4-1-2 1 1 2h-55v-2l-7 1-13-2-9-1-3-2 1-5 4-2 3-4h-6l-3-3 1-4 6-2-10-3-8-1-2-4 17-2 16-1 259-1z" fill="#8C9FDA"/><path d="M1231 842h14l6 2 4 2h-11v3l4 1 15 6v2l4 2 8 7 3 6 4 7-1 6-1 2-5-1-9-4-7-2-6-2h-2v-2l-5 1h-2l-3 3-14-2-44-3h-14l-26-1-1-2 4-2 10-2 2-1-1-2 12-4-7-3-27-6-14-2-10-3v-2l9-3v2l4-2z" fill="#D297D4"/><path d="M855 522h151l-3 2h-12l-9 1-14 1-1 1 15 2 9 2 4 4 11 4v1l-6 1-3 4h-7l-5 5 1 3h5l1 1 28 1v2l7-1 3 2H801v-1l54-1-1-2 4-1 4 1 4-2h4l1 2 3-2h3l1-4 5-1 3 1v-2l10-3 3-1-3-3-10-5-2-2-9-2-4-1-18-1-2-5z" fill="#9CA4D4"/><path d="M1033 974h135v1l-56 1v2l6 1 25 1 18 2 25 5 12 1 1 1 14 1 14 3v3l-12 3-10 4 1 2 16 2 21-1 13-3 16-8 9-5h3l-5 5-23 11-9 2-17 1h-28l-31-2-59-1-10-1-2-2-10-1-4-3 4-2 3-1 1-2-7-1-2 1-10-2-13-2-6-1-10-3-26-4-5-2v-2l3-2z" fill="#CF86DD"/><path d="M591 298h54l17 1 7 1 1 2-9 2h-10l-23 2-6 2-19 3 1 4 8 4 14 3v3h7v2l30 2h8l13 2 7 2-1 2h-65v-1l-25-1-13-2-21-3-66-5-21-2-13-4-9-4v-3l11-2 37-2 53-2 36-2z" fill="#00B4FF"/><path d="M718 745h147l-4 2h-2l1 3-4 1-2-1v2l-17 1-2 3 5 3 10 2 4 3v2l3 1-3 1v2l3 1 5 2h8l18 2 15 1 9 2 11 1v2h66v1H808l-7-1h-25l-7-1-5-2v-2l-5 1-1-2 10-1 4-2h7l1-2-3-3h3l-1-2-7-1-7-2-3-1-3-6 1-2-11-1h-4l-6-1h-3l-5-1h-7l-6-3z" fill="#9CA4D4"/><path d="m691 615 17 1 4 1-3 3-19 3h-22l-8 4h-3v2l6 3v-2l3-1 1-2 10 2h5v2l25 5 13 2 7 2 7 1v2l24 2h8v1l13 1 20 1h15l7 1h22l41 1v1H624v-3l-11-1-9-2-2-3-4-1v-5l2-2-4-1v-2h5l-1-2 4 1v-3l9-4-2-4 12-3h58z" fill="#7FA9E7"/><path d="M905 973h129l-1 2-10 2v1h-8l2 2 20 4 13 2 6 2 6 1 13 2 11 2 2-1 6 2-2 4-4 1 2 2 11 1 2 2 9 1 59 1v1l-103 1h-25l-11-1-43-1-11-1v-2h-7l-1-3 1-2 8-1 7-3v-1l-24-4-16-3-24-4-7-1-13-2-1-3z" fill="#C085DF"/><path d="M786 392h271l4 2-2 1-5-1-134-1v2h2v2l8-1 2 1v2l10-1 12 1 6 1h6v3l-4 2 7 2 2 2 13 2 8 1 1 3-1 2 4 1-2 2-8 1-16 1h-23l-12-1h-34l-10 1-12 1h-22v-2l-2-1 3-3h2v-2l-7-1-4-1-1-2-11-4v-4l7-1 2-1h4l-5-1-3-3-13-1v-2h-25l-18-1z" fill="#8DA4D9"/><path d="m1088 409 4 1 4 3v2h2v2h2v2h2v2h2v2h2l6 8 8 15 3 9 1 7v36l-3 4-2 9-5 9-5 6-12 12-3-1 2-1v-2h2l1-5 2-2 2-3h2l-1-3h2l2-4 3-5v-4l-5 1-2 6-8 9-5 2-3-1 1-5v-2l-3-1 3-3-7 4-5-1-1-3-5 2-7 1-2-1v-2l4-2 5-5 8-9 1-3 3-3 2-10v-27l6 1-4-10-3-7-1-9 1-3 7-1 6 3 4 4v2h3v-2l-2-2-2-5v-3l-4-2v-2l-4-2-4-3z" fill="#B3AAD3"/><path d="M292 614h95l26 2 7 1-2 4-14 4-2 1 1 7 1 2 13 4 10 4 18 3 18 1 9 3v1H369v-3l-22-2-36-9-6-4-2-6 9-5h5v-2l3-2-15-2-13-1z" fill="#11CDF4"/><path d="M584 393h84l8 1v2l2 2-6 2-10 1-4 1h-8v2l-5 1-2 3 3 2v3l7 3 5 1v2l4-1 13 2 14 1 9 3h25l28-1h17l1 2-7 1-14 1-4 1-4-2v2l97 1 207 1 9 1v1H335v-1l7-1 275-1 2-3 9-1h3l-3-3-12-2-3-1v-2l-2-1 4-1 8-1 5-2h5l1-2 4 2-4-4-3 1-3-1-6-1v-2l-4-2h-5v-5l-9-3-20-1z" fill="#5E6AF2"/><path d="M703 297h121l-2 4v3h-2l-2 4-4 3 2 16 5 7v1h-83l-1-5-7-3-2-3-4-2-4-11 4-4 9-4h2v-2l-6-2-26-1z" fill="#3A9EF5"/><path d="M306 744h89l66 1v1h-5v2h-4l-1 2-22 3-13 2-5 2-4 2 1 3 2 1v2l15 3v2l14 1 35 4 12 1 2 1 9 1 2 1 9 1 1 2H370v-1l12-1-7-3-16-4-17-4-8-4v-3l-1-4 4-4 17-4 11-2 1-2-60-1z" fill="#42B2EB"/><path d="M630 1198h87v1l-35 1-70 1-7 3-1 1h-6l1 4 36 6 4 2-4 3-7 2v2l-5 1h-3l-1 2 7 1 1 1 36 2 41 2v1h-78l-43-1-26-1h-7l-9-1-17-2-2-1v-2l4-2 1-2 8-1-1-2 6-2 4 1-1-2-29-5-2-1 1-5 7-1 2-2-1-2 85-1z" fill="#7E34F6"/><path d="M139 744h167l64 1-5 4-25 5-5 2-1 5 2 4 9 4 27 6 9 3 3 3-18 1-89-1v-1l25-1v-2l-34-5-13-4-9-4v-5l6-5 24-6v-2l-137-1z" fill="#00D4EC"/><path d="m858 274 1 3-5 15-1 7 5 15 1 6-1 5-7 3-1 2-6 1v2l-3 2-12 1H182l-3-2 1-2 12 2h628l-5-7-2-16 6-5 1-2h2l-1-5 1-1-626-1v-1l627-1 5-1 1-2 9-1 11-10 3-3 5-2z" fill="#4670F3"/><path d="m541 522 12 3v3l-1-2-8 4-12 2-8 2-4 2-1 2 6 2 3 3v2l3-1 10 2 4 2 15 1 17 2 8 1 9 1v2l5-1 2 2 7 1 403 2v1H336l-8-2-1-2 7 1 190 1-1-2-7-1-6-2-12-2-11-2-1-1-9-1 1-4h-2v-2l11-1 1-4h4l1-2h2l-2-5-1-5 19-1z" fill="#6388EF"/><path d="m102 728 5 2 15 9 12 1 2 1v2l3 1 135 1 2 1v2l-11 4-13 3-4 4h-2l2 5 13 5 7 2 28 4 6 2v2l2 1-27 1-49 1h-62v-1l81-2 3-2-14-3-17-3-5-1-4-2v-2l-9-3-7-2-13-2-13-3-12-1-14-3-1-3h-2v-2l-4 1-4-3v-2l-10-2-10-5-9-7z" fill="#1BD6DC"/><path d="M329 840h68l60 1-3 2-32 1-8 3 4 1 10 3-3 3h-2l-1 8h-3v-2h2v-2l-5 1-1 5h-5v2l-10 3-4 2 7 1 2 2 10 2v1l16 1v1h-77v-1l7-1-2-3-17-1-7-2 1-4 2-6 1-5 8-7 1-5 11-2h-28l-10 2 4-3z" fill="#528AF3"/><path d="M879 1065h30l-1 2-4 1 7 3 1 2-4 2-1 5 5 2 7 4 1 4h-7l-3 1v2l-15 1v1h-6l-2-2v2h-2v2h5l2 2 6 1-1 3-9-1-6-1-33-1-15-2 1-2-4-2 4-1 5-1 1-2 7-2 2-3-6-2-11-2-18-3-11-3v-2l7-3-8-1v-1l25-1 12-1z" fill="#AA43F3"/><path d="m1336 768 2 1-8 6-13 5-9 3-16 1H134l-11-1-5-2v-1l15 1h1170l16-4 16-8z" fill="#6130F4"/><path d="m164 224 1 2-4 9-2 12-1 5 4 16 7 12 9 8 12 7-3 1-3-1 1 5 8 3 9 2 2 2v2h-2v2l3 1v4l7 3 1 2 7 1 2 4-16 1 3 3-2 2-14 1-2 1h-7l-14-2-4-3-7-3-8-5-6-5-7-8-9-9-3-6-5-7-2-10 2 1v5l3-1v2l3-1 7 8 9 10 5 4v2l5 2v2l5 2 7-1 1-5-6-12v-2l2-1v-3l-2-13-5-5-4-8v-15l1-7 4 1 4-11z" fill="#15C4F4"/><path d="M166 613h114l27 2 14 2-2 3h-2v2l-8 2-5 4 2 5 8 4 24 6 17 3 12 1 2 1v3h-57l-1-4h-10l-16-5-12-2-22-5-9-4 1-5 8-3 4-2 6-2-1-2-16-2-78-1z" fill="#1BD6DC"/><path d="M972 1007h211l19 1h33l-2 3-21 1H368v-1l403-1 51-1 148-1z" fill="#7A46EC"/><path d="M236 323h19l50 1h39l40 1 31 3 15 2 3 2 26 1v1H191l2-2 14-1 1-3h-5l3-2h16v-2z" fill="#00CCFE"/><path d="M691 166h93l-4 4v2h-2l-1 3-3 3 2 6 6 3v2l19 7 14 4 1 3h-42l-1-5-10-2-13-3-9-1-12-2-16-3-5-2-4 1-4-5 1-4 22-4 18-2h6v-2l-32-1-24-1z" fill="#0AAAFB"/><path d="M569 166h40l1 3-2 1-20 2-95 4-29 2-17 4 9 3 15 3 54 4 52 3 73 3 23 2 9 2v1h-26l-8-1-25-1-33-2-105-5-49-3-25-2-2-2-15-4 3-3 5-3 58-3 76-3 26-2-11-1v-1z" fill="#00C5FF"/><path d="M694 614h97v1l-16 2-3 1-10 1-3 2 2 1v2l-5 2 3 5v3l2 1-4 2v2l-10 1-6-1v2h-14l-7-2-13-2-20-4-5-2v-2h-2l-1 2-12-4-1 3h-3v2l-4-1-3-2 1-2 11-5h22l19-3 2-2-3 1v-2h-13z" fill="#8EA4D9"/><path d="M673 166h18l46 2 10 1v2l-31 4-8 2h-7l1 6 5 3 1-2 13 4 15 2 9 2 11 1 17 5v3l2 1-1 1h-31v-2h-5v-2l-11-1-16-4-25-3h-13l-27-3-10-3-5-3 1-3 8-2 30-3 19-1 14-2v-1l-15-2-15-1z" fill="#00B4FF"/><path d="M901 420h37l11 1 2 2-2 1 5 2v1l88 2v1H837l-98-1 1-3 6 1 2-1 17-1 8-2 2-2 3 2v-2h61l5 1 5-1h8v2l4-1h23l7-1z" fill="#88A2E5"/><path d="m667 627 10 2h5v2l25 5 13 2 7 2 7 1v2l24 2h8v1l13 1 20 1h15l7 1h22l41 1v1H624v-1l50-2 2-1-15-1v-3l-5-3 1-3 4-2-1-3h3v-2l3-1z" fill="#8CAAE5"/><path d="m495 615 67 1v1l-6 1-1 3-9 5-6 2-2-1-1 2 4 2 2 12 8 3v1h-9l-13-2-20-2-7-2-11-2v-2l-11-1-1-3-5-2 1-5 9-4 8-2 3-1v-2l-2-1z" fill="#5BABEA"/><path d="M299 954h7l4 4 3 1 2-5 8 6 9 6 5 2 6 1-1 2h-6l-3 4-5 2-3 1-2 8v5l9 6 4 2 1 8-10 1-16-6-8-5-5-5 5-3-3-5-3-3v-2l-3-1-6-11 2-5 8-6z" fill="#5286F3"/><path d="m1331 677 2 1 4 11v18l-5 13-7 9-12 9-8 4h-7v2l-4 1-645 1-4 2h-7l-7 1-16-1v-1h-22l-1 2-8 2-25 1h-24l-1-5-7-1-132-1v-1l895-1 7-2 10-3 9-5 10-9 5-7 4-12v-13l-4-13z" fill="#7496EB"/><path d="M1035 393h19l15 3 16 8 5 5h-2l1 3-1 2 4 2 5 5 3 2 2 6 2 2 1 4-2 1-2-1v-2l-4-2v-2l-9-2h-4v7l3 11 4 7v4l-3 1-3-2 1 3v24l-2 10-3 3 2-7v-25l-5-10-11-12-4-6-2-7 4-6 7 2 1-5-4-6-6-3-3-5-2-1v-2l-3-1v-3h-10v-2h-6z" fill="#A29DDE"/><path d="M183 637h31l7 1 7 2 13 2v1l6 1v3h-4v2l-2 1-12 1-84 1-18 2-11 3-5 2-4 1 2-5 6-3 2-2 9-1v-2l7-3 14-4z" fill="#12EFD5"/><path d="m147 622 13 1h13l9 1h16l5 1v2l11-1 9 2 2 2v3l2 1-10-1v4l-34 1-36 3-5 1 1-4-3-1-11-3-9-2-16 1 4-3 24-7z" fill="#21E6CE"/><path d="M313 848h3l1 5-3 4-7 4-8 7-5 4-8 11-5 8-3 6-3 9-2 16 1 15 3 15 2 3 3 10 3 6-2 4-5-6v-2h-3l-6-12v-3h-2l-3-7v-43l3-5 2-8 5-9 6-9 7-8 6-5 13-8z" fill="#3D97F5"/><path d="m863 178 6 2 8 7 3 2v11l-4 2h-4l-1 8-2 2-2 8 1 7v8l-1 2h-2l1 13-2-1-4-8-2-9-6-10-7-7 2-1 7 4v2h3l-3-7-1-3-4-2-5-6v-2h-3v-3h-2l-4-9 4-2 10-2 13-2z" fill="#3C8AF2"/><path d="M115 612h1187l3 3-13-1H125l-12 2-13 5-9 5h-3l5-4 14-7z" fill="#4F21F9"/><path d="M145 651h1150l16 6 11 7 7 8-1 2-11-11-11-6-9-2-3-2-1149-1z" fill="#7C85EA"/><path d="M878 548h23l25 1h55l5 3 6 2 28 1v2l7-1 3 2H801v-1l54-1-1-2 4-1 4 1 4-2h4l1 2 3-2h3z" fill="#9BA9DF"/><path d="M199 769h15l21 4 12 2 4 2 1 2-5 1-81 2h-33l-15-2-10-3-1-3 2-2v-2l12 2 10 2h20l28-2 16-2z" fill="#13E3DA"/><path d="M334 745h36l-5 4-25 5-5 2-1 5 2 4 9 4 27 6 9 3 3 3-18 1-52-1-6-1v-1l7-2 3-1v-8l1-5 1-8-1-4h2v-2h2v-2z" fill="#11CCF4"/><path d="M770 772h8l1 1h19l4 1 7-1 3 1 5-1 12 1h11l4 2 1-1 4-1h8l5-1h8l18 2 15 1 9 2 11 1v2h66v1H808l-7-1h-25l-7-1-5-2v-2l-5 1-1-2 10-1z" fill="#9AA8DE"/><path d="M117 614h14l3 1 52 1 9 2 2 3-10 3-6 1-11-1h-12l-11-1-15 1-17 5-9 3-11 4-6 3-5 3h-3v2h-2v2h-2v2h-2v2l-4 1 3-5-1-3h2v-2h2l1-4 10-10 10-6 12-5z" fill="#13EFD4"/><path d="m102 728 5 2 15 9 12 1 2 1v2l3 1 91 1 5 1-1 2-10 4-12 2-13 4-5 2h-9l-6-2-11-2-12-1-14-3-1-3h-2v-2l-4 1-4-3v-2l-10-2-10-5-9-7z" fill="#13E2DA"/><path d="M244 298h203l-2 3-14 2-8 1-21 1h-58l-46-2h-4l-7-2h-19l-26-1z" fill="#00C5FF"/><path d="M292 614h69v1l-21 2-4 1 1 2 4 1v2l5 1-4 6 2 6 4 2 4 3h-2l1 3-1 1-12-1-27-7-6-4-2-6 9-5h5v-2l3-2-15-2-13-1z" fill="#00D4EB"/><path d="M687 551h45l49 2 13 2h7v3l259-1-1 2-14 1-312-1-30-1-3-2-12-3z" fill="#7E9EE6"/><path d="M397 840h847l16 5 1 2-10-2-6-2-54-1-794-1z" fill="#5626F7"/><path d="M616 775h16l29 1h22l11 3v-2l7 1v-2h28l7-1h20l8 1 5 2v2h34l5 1v1H649l-49-1v-1l12-1-1-2z" fill="#8BA9E4"/><path d="M718 745h147l-4 2h-2l1 3-4 1-2-1v2l-23 1-13-1h-5l-2-1-8 1h-58l-6-1h-3l-5-1h-7l-6-3z" fill="#9CA9DF"/><path d="M523 1092h30l38 1h32l12 3v2h27l19 1 28 1 10 1v1h-60l-55-1-37-1-34-2-8-2-3-3z" fill="#7E36F4"/><path d="m118 780 15 1h233l97 1v2H134l-11-1-5-2z" fill="#6041F3"/><path d="M513 745h14l10 1-2 4v2l-12 2-13 3-3 4 9 3 1 2 3 1v2l15 3 6 3 6 1v4l32 1v1h-70l-2-5-4-2-2-3v-4l-2-1 4-1 1-2-4-1-4-3v-2l10-4 2 1v-2l6-3v-2l2-1z" fill="#62A4EF"/><path d="M981 420h5v2l15-1 12 1h35l7 2 6 4 3 7 2 4-12-6-1-1-9-1-2-1-89-2v-2l-6-1 4-2 1-2h26z" fill="#9AA7E0"/><path d="M920 393h115l4 2 6 1v2h2v2h-75l-15 1-8-1-10-1h-7v-2h-10v-2h-2z" fill="#9CA9DF"/><path d="m757 638 43 4h39l12 2 5 1 12 2-3 2-2 1h-43l-12-1h-12l-32-2v-1l-18-1-12-2v-2l4-1 3 1v-2h10z" fill="#9BAAE0"/><path d="M972 1007h211l39 2v1H822v-1l148-1z" fill="#B24FF5"/><path d="M786 392h271l4 2-2 1-5-1-134-1v2h2v2l-16 2-10 1-18-2-20-2-5-1-1 1h-10l-5 1-8-1v-2h-25l-18-1z" fill="#8A98E6"/><path d="m1331 677 2 1 4 11v18l-5 13-7 9-12 9-8 4h-7v2l-4 1H752v-1l538-1 7-2 10-3 9-5 10-9 5-7 4-12v-13l-4-13z" fill="#8160E9"/><path d="m774 421 4 2v-2h61l5 1 5-1h8v2l4-1-1 2-10 1-2 1-6-1v3l2 2-105-1 1-3 6 1 2-1 17-1 8-2z" fill="#80A9E8"/><path d="M1230 1008h5l-2 3-21 1H988l1-2 72-1h161z" fill="#7B42EC"/><path d="M744 423h24l1 2-7 1-14 1-4 1-4-2v2l97 1v1H662v-1l12-1 1-2 18-1 14-1h16z" fill="#6A9EED"/><path d="M540 772h12l21 2 42 2-3 4 37 1v1h-70l-45-1v-1h13v-4h-6l-3-3z" fill="#72A8EA"/><path d="m109 770 12 2 10 2h20l14-1h10l8 2 3 1v3l-20 2v1h-33l-15-2-10-3-1-3 2-2z" fill="#14EED4"/><path d="m332 424 10 1 4 1v-2h17l5 2-2 3-24 2h-7v2l-9 4-5 2-7 6-5 5-3-1-1-3v-7l6-5 11-6h2v-2z" fill="#03AFFE"/><path d="m179 332 13 2 444 1v1H182l-3-2z" fill="#6744F1"/><path d="M794 745h71l-4 2h-2l1 3-4 1-2-1v2l-23 1-13-1h-5l-2-1-5 1-4-2-2 1v-2h-6l-2-1v-2z" fill="#A8A8DC"/><path d="M859 773h11l18 2 15 1 9 2 11 1v2h-79l-1-4h2v-2l4-1h8z" fill="#A8A7DC"/><path d="m313 889 3 2-1 4-9 17-1 3v19l7 14-1 2-6-11-2-1-1 2-3-2-2-6v-15l2-13 5-9h2l2-4z" fill="#418BF5"/><path d="M616 775h16l29 1h22l1 4h-8l5 1v1h-32l-49-1v-1l12-1-1-2z" fill="#7FA9E7"/><path d="M348 1008h49l102 1 1 2-149 1-4-1z" fill="#538AF2"/><path d="M853 287h2l-2 12 5 15-4 4-14 2-1-5h-2l-1-5 2-3h2l1-5 3-3 6-8z" fill="#528BF3"/><path d="M932 1178v3l-9 8-7 4-15 4-55 1H725l2-2 171-1 7-2 12-4 10-6z" fill="#662EF6"/><path d="M1043 972h186v1l-55 2h-140v-2z" fill="#A171E4"/><path d="M735 393h69l25 1v2l-21 2h-24l-10 1h-11l-16-4-12-1z" fill="#80AAE8"/><path d="m92 714 2 3 5 8 5 5 12 8 15 5 4 4h4v2h2v2l-8-1-9-2-6-3-8-2-8-5-4-5v-2h-2l-2-5-4-4-1-5z" fill="#13EDD5"/><path d="m877 551 11 1 23 3 2 1v2H801v-1l54-1-1-2 4-1 4 1 4-2h4l1 2z" fill="#8DAAE4"/><path d="m266 496 5 2 1 9 5 2 4 8 4 5v2l4 2 7 8 5 5v4l-5-1-10-8-9-11-8-14-3-7z" fill="#02B2FE"/><path d="m861 194 10 2 2 1v2l4 1 1 2h-6l-1 8-2 2-2 8v5l-4-5-5-10-2-5-1-5 2-4z" fill="#528BF3"/><path d="M244 298h137v1l-13 1-49 1h-51l-26-1z" fill="#0bf"/><path d="M583 614h111l-3 2-18 1h-61l-30-1z" fill="#74A0E7"/><path d="m183 294 12 3 29 3v4l-9 2h-13l-15-4-3-2z" fill="#00CCFE"/><path d="M1091 840h153l16 5 1 2-10-2-6-2-54-1-100-1z" fill="#7C53EB"/><path d="m164 224 1 2-4 9-2 12-1 2v10l3 12-1 2-4-1-5-10v-15l1-7 4 1 4-11z" fill="#1AC3F2"/><path d="m691 615 17 1 4 1-3 3-19 3h-13l-8-1v-2l8-4z" fill="#8CAAE4"/><path d="M769 1064h148l7 3 9 3 8 5h-3l-8-4-21-5-140-1z" fill="#6930F6"/><path d="M669 745h49v2l3 1-3 2h-19l-2 1v-2l-11 1-10-1-7-1z" fill="#8DABE5"/><path d="M1122 612h180l3 3-13-1-170-1z" fill="#7B42EC"/><path d="m1118 444 2 2 3 9 1 7v36l-3 2-1-11v-23l-2-5-1-5-1-8z" fill="#A099DF"/><path d="m646 622 13 1 4 2-7 3-3 1-5 1h-14l-5-2-2-3 9-2z" fill="#75A1E7"/><path d="m613 426 3 2 46 1v1H492v-1h119v-2z" fill="#528CF2"/><path d="m1296 874 5 5 7 12 4 10 2 12 2 8v13l-4 3-1-23-4-17-8-17-3-4z" fill="#904EEF"/><path d="M190 165h34l4 2-10 2h-2l2 2-15-1h-15l-2-2z" fill="#03CBFD"/><path d="M1200 651h95l16 6 11 7 7 8-1 2-11-11-11-6-9-2-3-2-94-1z" fill="#9790E2"/><path d="m1271 910 2 2 1 4v17l-3 10-7 11-8 8-7 5-8 3h-8v-2l9-1 9-5 10-9 6-7 4-10z" fill="#6F3AF2"/><path d="M1230 1008h5l-2 3-21 1h-82v-1l57-1 35-1z" fill="#786AEB"/><path d="m833 642 12 1 10 2 13 2-3 2-2 1h-17l1-2-16-3-1-2z" fill="#A9A8DC"/><path d="m1372 674 3 2 1 6v36l-3 4-2 9-5 9-3 4h-2l2-5 6-12 4-13 1-7v-17z" fill="#6E42EF"/><path d="m1331 677 2 1 4 11v18l-5 13-7 9-12 9-8 4-9 1 1-2 10-3 9-5 10-9 5-7 4-12v-13l-4-13z" fill="#5E33F4"/><path d="m607 621 10 1-4 2-9 3v3h-3l1 2-9-1-2-4-2-2z" fill="#75A1E7"/><path d="m60 658 1 2-5 13-2 9v27l3 14 6 15-1 2-6-12-4-11v-42l7-16z" fill="#5343F6"/><path d="M1120 842h111v1l-107 1-4 1z" fill="#BB91D6"/><path d="M134 652h10l-3 3-19 2-11 6-13 13v-3l10-11 9-6 10-3z" fill="#5433F7"/><path d="m63 740 4 4 6 8 11 11 13 8 14 6 7 2v1h-7l-15-6-9-6-8-7-12-12-4-7z" fill="#5144F7"/><path d="M703 393h32l12 1 7 2v1h-22l-9-1-2-1h-15z" fill="#72AAEB"/><path d="m940 1136 2 4 1 3v18l-4 11-5 6v-3l4-8 1-4z" fill="#5122F9"/><path d="M95 678h1l-1 9-2 3v20l7 13-1 3-6-9-3-9v-16l3-10z" fill="#5A39F5"/><path d="M804 393h52l-4 3h-10l-5 1-8-1v-2h-25z" fill="#8CA9E2"/><path d="M592 745h57l-4 3h-7l-7 1-16-1v-1l-23-1z" fill="#7FA9E7"/><path d="m980 1135 3 1 1 5v20l-3 8h-1z" fill="#7940EF"/><path d="m483 425 3 1-7 3h-30l1-3h5v2h4v-2z" fill="#42B4EB"/><path d="m901 228 2 2 1 7v33l-3 2-1-5 2-7 1-19h-2l-1-3v-8z" fill="#686EEF"/><path d="m1282 989 2 1-5 5-23 11-9 2h-11v-1l17-3 18-8 10-6z" fill="#6B34F3"/><path d="M1235 612h67l3 3-13-1-57-1z" fill="#4F21FA"/><path d="M465 393h38v1l-7 1v3l-12-1-7-2-12-1z" fill="#42B4EB"/><path d="m331 877 5 1-1 3-12 6-4 1-1-4 5-2v-2z" fill="#3C9CF5"/><path d="m1261 847 10 2 8 6 6 4 9 9 2 6-5-5-6-7-13-9-11-5z" fill="#6430F5"/><path d="M1199 840h45l16 5 1 2-10-2-6-2-7-1-39-1z" fill="#582EF6"/><path d="m102 728 5 2 15 9 12 1 2 1v2l2 1-10-1-14-5-11-8z" fill="#543AF7"/><path d="m269 509 3 3 6 11 11 13 11 8-2 1-10-7-10-10-9-17z" fill="#5343F6"/><path d="m534 628 5 1 2 2 2 12 5 2v1l-7-1-3-4-2-5v-5l-4-2z" fill="#63A5EF"/><path d="M267 898v3l-1 4v29l1 6v8l-3-3v-43z" fill="#4A5FF5"/><path d="m237 627 5 1v3l5 2v2l-5-1-6-2v3l-5-3-2-4h6l2 1z" fill="#21E6CE"/><path d="m1296 874 5 5 7 12 4 10-1 3h-2l-5-14-7-13z" fill="#713AF3"/><path d="m1360 744 1 2-3 6-16 16-4-1 11-9 9-11z" fill="#592DF6"/><path d="m1294 652 10 2 14 7 8 7 3 4-1 2-11-11-11-6-9-2z" fill="#5930F6"/><path d="M932 1178v3l-9 8-7 4-11 3h-7v-1l7-2 12-4 10-6z" fill="#7142EF"/><path d="M905 1064h12l7 3 9 3 8 5h-3l-8-4-25-6z" fill="#6935F2"/><path d="m1120 450 2 2 2 10v36l-3 2 1-7v-28z" fill="#735AEE"/><path d="M263 468h2l2 2h1v7l-3 9h-2z" fill="#01B2FE"/><path d="m1374 715 1 4-2 3-2 9-5 9-3 4h-2l2-5 6-12 4-11z" fill="#6033F4"/><path d="m1333 625 6 2 6 4 7 6v2h2l6 8 1 4-4-4-7-8-9-8-8-5z" fill="#6341F3"/><path d="m115 612 4 1-2 2-15 5-11 6h-3l5-4 14-7z" fill="#5542F6"/><path d="m1121 467 2 4v22l-2 4-1-2z" fill="#A4A3DE"/><path d="M555 616h7v1l-6 1-1 3-9 5-6 2-2-3 9-3 6-5z" fill="#63A5EE"/><path d="m263 462 1 2-1 3v18l1 1v6l-2-4-2-3v-18z" fill="#5332F7"/><path d="m117 656 2 1v2l-8 4-13 13v-3l10-11z" fill="#523CF7"/><path d="m121 217 1 4-4 9-1 18-1 5-3-2 2-5 1-19z" fill="#4D49F6"/><path d="m60 658 1 2-5 13-3 15h-1v-13l7-16z" fill="#5233F7"/><path d="m1254 960 3 1-8 6-8 3h-8v-2l9-1 9-5z" fill="#8147EF"/><path d="m971 1108 4 5 5 13v7l-2-4-4-10v-5h-2z" fill="#6C37F1"/><path d="M95 678h1l-1 9-2 3-2 15h-1v-13l3-10z" fill="#512FF8"/><path d="M303 464h1l1 22 6 12-1 2-4-6-3-6z" fill="#5C3BF4"/><path d="m164 224 1 2-4 9-2 12-2 2v-11l4-9z" fill="#5649F4"/><path d="m1107 526 1 3-7 8-7 6-3-1 10-9z" fill="#5829F6"/><path d="m301 405 7 1-3 4-3 2-5 1-1 2-2-1 3-5z" fill="#00B4FF"/><path d="m157 252 2 3 3 13 6 10v2l-3-1-6-12-2-8z" fill="#572DF6"/><path d="m1361 651 5 5 5 9 1 9-2-3-8-17z" fill="#5F33F4"/><path d="m1331 677 2 1 4 11v18h-1l-1-15-4-13z" fill="#744EED"/><path d="m266 496 5 2 1 6-4 2-2-4z" fill="#04B0FD"/><path d="m864 251 2 1-1 7-3 3-2 4v-9z" fill="#475CF5"/><path d="m968 1195 2 1-4 8-7 7v-3l4-6h2l1-4z" fill="#6234F4"/><path d="m1257 890 4 2 6 5 4 8v5l-3-4-4-8-7-7z" fill="#8866E8"/><path d="m772 532 3 1-3 3 7 2-3 2h-5l-3-3 1-4z" fill="#8998E4"/><path d="m179 332 24 3v1h-21l-3-2z" fill="#673CF2"/><path d="m1313 914 2 1 1 6v13l-3 2z" fill="#5B2CF5"/><path d="m97 772 21 7v1h-7l-15-6z" fill="#5846F5"/><path d="M1232 842h13l6 2 4 2h-7l-16-3z" fill="#B588DE"/><path d="m917 1191 3 1h-2l-2 4-6 1-5-1 3-2z" fill="#A343F3"/><path d="m889 1102 14 1 4 1v2l7 1-4 1-6-2-2-1-12-1z" fill="#6A35F1"/><path d="M1309 616h8l12 6-3 1-13-5z" fill="#603DF3"/><path d="m322 437 2 1-14 14v-3l7-8z" fill="#4F39F8"/><path d="m1253 1000 4 1-3 2-7 1h-11v-1z" fill="#773FF3"/><path d="m86 627 2 1-10 10-5 3 2-4z" fill="#4588E7"/><path d="m932 1121 3 1 6 10v4h-2l-5-11z" fill="#7347EF"/><path d="m102 728 5 2 10 6-1 3-12-8z" fill="#583AF5"/><path d="m901 228 2 2v11h-2l-1-3v-8z" fill="#5364F4"/><path d="M609 1068h13l1 2-2 1h-10z" fill="#9242F1"/><path d="m1235 880 6 1 8 3 5 2v2l-7-2-12-5z" fill="#6B3DF2"/><path d="m80 761 4 2 13 8v2l-5-2-9-6z" fill="#5335F7"/><path d="m1315 619 7 1 11 4v2l-6-1-12-5z" fill="#D6CBED"/><path d="m303 454 3 3-2 7h-2l-1 2v-11z" fill="#05B0FD"/><path d="m174 286 11 6 5 4-5-1-9-5v-2h-2z" fill="#5465F2"/><path d="M1230 1008h5l-2 3h-13l2-2z" fill="#7138F0"/><path d="m863 259 1 4-1 7-3 2 1-10z" fill="#3E90F2"/><path d="m939 1163 2 1-1 6-6 8v-3l4-8z" fill="#5F2CF5"/><path d="m1261 847 10 2 6 5-1 2-8-5-7-3z" fill="#663DF2"/><path d="M859 267h1l1 7h-3l-1 3-4 1 2-4z" fill="#5669F2"/><path d="M1311 943h1v6l-3 5-2 5-2 1 3-9z" fill="#6136F3"/><path d="M1292 612h10l3 3-13-1z" fill="#5525F8"/><path d="m154 242 2 2v12l-2-1-1-9z" fill="#00D4EC"/><path d="m956 1211 2 1-7 7-7 2v-2l6-3z" fill="#5827F7"/></svg>