<svg id="Layer_1" data-name="Layer 1" xmlns="http://www.w3.org/2000/svg" viewBox="0 0 1000 165.37"><g id="Logo"><path d="M326.63,49.31a8.86,8.86,0,0,0-7.91,5.1l-20.85,52.9L277,54.29a8.88,8.88,0,0,0-7.86-5,8.22,8.22,0,0,0-6.15,2.6,8.58,8.58,0,0,0-2.48,6.18,10,10,0,0,0,.89,3.86l25.82,61.72a11.18,11.18,0,0,0,3.93,4.74,10.27,10.27,0,0,0,6,1.91h1.49a10.27,10.27,0,0,0,6-1.91,11.23,11.23,0,0,0,3.95-4.78L334.37,62a10.1,10.1,0,0,0,.89-3.86,8.63,8.63,0,0,0-2.47-6.18A8.26,8.26,0,0,0,326.63,49.31Z"/><path d="M402,53.71a45,45,0,0,0-41.82,0,35.39,35.39,0,0,0-14,14.66,46.06,46.06,0,0,0-4.89,21.45,46,46,0,0,0,4.89,21.44,35.39,35.39,0,0,0,14,14.66,45,45,0,0,0,41.82,0,35.9,35.9,0,0,0,14.11-14.65,45.4,45.4,0,0,0,5-21.45,45.44,45.44,0,0,0-5-21.46A35.9,35.9,0,0,0,402,53.71Zm-1.68,50.37a20.81,20.81,0,0,1-8.4,8.15,24,24,0,0,1-21.66,0A20.38,20.38,0,0,1,362,104.1c-2.18-3.73-3.29-8.59-3.29-14.43S359.8,79.12,362,75.38a19.84,19.84,0,0,1,8.3-8,24.39,24.39,0,0,1,10.92-2.54A24.11,24.11,0,0,1,392,67.33a20.41,20.41,0,0,1,8.38,8.07c2.22,3.73,3.35,8.53,3.35,14.27S402.57,100.36,400.35,104.08Z"/><path d="M564.45,65.09a27,27,0,0,1,8.08,1,53.49,53.49,0,0,1,8,3.48,7.56,7.56,0,0,0,9.58-1.36,7.83,7.83,0,0,0,2.22-5.4A7.92,7.92,0,0,0,588.49,56a53.09,53.09,0,0,0-11-5.31,42.9,42.9,0,0,0-14.21-2.12,44,44,0,0,0-20.63,5,38.68,38.68,0,0,0-15.22,14.36,41.54,41.54,0,0,0-5.7,21.93,41.53,41.53,0,0,0,5.7,21.92,38.68,38.68,0,0,0,15.22,14.36,44,44,0,0,0,20.63,5A42.9,42.9,0,0,0,577.48,129a53,53,0,0,0,11-5.32,7.87,7.87,0,0,0,1.63-12.24,7.62,7.62,0,0,0-9.53-1.37,54.77,54.77,0,0,1-8.08,3.51,27.37,27.37,0,0,1-8.08,1c-8,0-14.12-2.22-18.62-6.76s-6.7-10.43-6.7-18,2.19-13.42,6.7-18S556.42,65.09,564.45,65.09Z"/><path d="M663.59,52.73a27.68,27.68,0,0,0-15.21-4.17,32.77,32.77,0,0,0-16.39,4A48,48,0,0,0,623.23,59l-.47.42V25.47A8.79,8.79,0,0,0,614,16.69a8.23,8.23,0,0,0-6.16,2.6,8.62,8.62,0,0,0-2.47,6.18v96.22a8.54,8.54,0,0,0,8.63,8.63,8.61,8.61,0,0,0,6.17-2.47,8.23,8.23,0,0,0,2.61-6.16V77.9l.06-.07a45.45,45.45,0,0,1,10.1-9.36,21.79,21.79,0,0,1,12.19-3.53c9.79,0,14.35,5.12,14.35,16.13v40.62a8.55,8.55,0,0,0,8.64,8.63,8.61,8.61,0,0,0,6.17-2.47,8.23,8.23,0,0,0,2.6-6.16V79.58a35.76,35.76,0,0,0-3.37-15.52A27.15,27.15,0,0,0,663.59,52.73Z"/><path d="M819,48.56h-.74c-7.54,0-14.55,3.35-20.84,9.94L797,59v-.92a8.77,8.77,0,0,0-8.78-8.78,8.22,8.22,0,0,0-6.15,2.6,8.63,8.63,0,0,0-2.48,6.18v63.6a8.54,8.54,0,0,0,8.63,8.63,8.63,8.63,0,0,0,6.18-2.47,8.23,8.23,0,0,0,2.6-6.16V77.22l0-.08a28.29,28.29,0,0,1,8.92-8.4A23.51,23.51,0,0,1,818,65.53h.74a8.84,8.84,0,0,0,6.22-2.3,7.88,7.88,0,0,0,2.56-6,8.5,8.5,0,0,0-2.41-6.11A8.11,8.11,0,0,0,819,48.56Z"/><path d="M845,49.31a8.26,8.26,0,0,0-6.16,2.6,8.62,8.62,0,0,0-2.47,6.18v63.6a8.54,8.54,0,0,0,8.63,8.63,8.65,8.65,0,0,0,6.18-2.47,8.26,8.26,0,0,0,2.6-6.16V58.09A8.55,8.55,0,0,0,845,49.31Z"/><path d="M845.57,18.91h-.89a9.56,9.56,0,0,0-9.52,9.52V29a9.56,9.56,0,0,0,9.52,9.53h.89A9.54,9.54,0,0,0,855.09,29v-.59a9.54,9.54,0,0,0-9.52-9.52Z"/><path d="M505.17,76.89a7.62,7.62,0,0,0-6,2.55,10.45,10.45,0,0,0-2.54,7.23v3.48c-.3,5.18-2.3,12.79-7,17.25a22.71,22.71,0,0,1-16.85,6.95h-.36a22.75,22.75,0,0,1-16.87-7c-4.64-4.45-6.64-12-6.94-17.19V86.67c0-3.12-.86-5.55-2.55-7.24a8.24,8.24,0,0,0-6-2.54,7.62,7.62,0,0,0-6,2.55,10.55,10.55,0,0,0-2.54,7.4V89c0,11.75,4.44,23.2,11.87,30.63s16.66,11.33,28.36,12h1.77c11.31-.52,20.85-4.57,28.32-12S513.53,100.9,513.72,89V86.84c0-3.18-.88-5.74-2.55-7.41A8.21,8.21,0,0,0,505.17,76.89Z"/><path d="M748.48,54a36.6,36.6,0,0,0-20-5.43c-8.17,0-15.18,2-20.83,5.83a35.21,35.21,0,0,0-12.55,15.22,50.6,50.6,0,0,0-4,20.21c0,12.93,3.6,23.14,10.71,30.36s17.1,10.89,29.65,10.89a48.22,48.22,0,0,0,26.92-6.79c4-2.3,4.84-5.18,4.84-7.18a7.41,7.41,0,0,0-2.42-5.6,7.87,7.87,0,0,0-5.47-2.14,7.78,7.78,0,0,0-3.55.8,43.88,43.88,0,0,1-8.72,3.26,42.71,42.71,0,0,1-10.42,1.13c-7.28,0-13-1.78-16.94-5.29-3.2-2.84-5.14-6.62-6.4-11.31l-.34-1.43h48a8.43,8.43,0,0,0,8.78-8.63,44,44,0,0,0-4.35-19.47A35.22,35.22,0,0,0,748.48,54Zm-39.7,27.67c.14-1,.33-1.79.33-1.79A20.19,20.19,0,0,1,712,72.52,18.09,18.09,0,0,1,719.34,66a20.83,20.83,0,0,1,18.2,0A18.67,18.67,0,0,1,745,72.53a20.77,20.77,0,0,1,3.2,8.78l0,.32Z"/><path d="M897.31,34.65c1.7-1.58,4.4-2.38,8-2.38.09,0,.66,0,3.71.42a16.26,16.26,0,0,0,3.76.47,6.88,6.88,0,0,0,5.13-2.24A7.27,7.27,0,0,0,920,25.76a7.07,7.07,0,0,0-1.27-4A8.2,8.2,0,0,0,915.64,19a30.37,30.37,0,0,0-13.75-3.17,25.45,25.45,0,0,0-11.61,2.8,21.59,21.59,0,0,0-9.08,9.06c-2.28,4.07-3.43,9.29-3.43,15.54v6.93h-7.08a7.42,7.42,0,0,0-5.3,2.13,7.58,7.58,0,0,0,0,10.75,7.3,7.3,0,0,0,5.33,2.22h7.08v56.79a8.35,8.35,0,0,0,8.44,8.45,8.45,8.45,0,0,0,6-2.43,8,8,0,0,0,2.54-6V65.26h16.94A7.17,7.17,0,0,0,917.16,63a7.51,7.51,0,0,0-5.42-12.85H894.8V43.68C894.8,39.23,895.65,36.19,897.31,34.65Z"/><path d="M997.58,52.6a8.06,8.06,0,0,0-6-2.54c-3.57,0-6.29,1.91-7.85,5.54L961.9,108.37,940.51,55.3a8.6,8.6,0,0,0-3.07-3.74,8.2,8.2,0,0,0-4.79-1.5,8,8,0,0,0-6,2.54,8.42,8.42,0,0,0-2.42,6,9.4,9.4,0,0,0,.72,3.49l27.78,67.67-9.45,24.29a8.46,8.46,0,0,0-.56,3,8.14,8.14,0,0,0,2.35,5.82,7.78,7.78,0,0,0,5.79,2.47c2.41,0,5.73-1,7.85-5.69l40.74-97.9a8.83,8.83,0,0,0,.56-3.14A8.44,8.44,0,0,0,997.58,52.6Z"/><path d="M69.3,69.13A38.9,38.9,0,0,0,81.09,40.46,38.86,38.86,0,0,0,69.3,11.79,39.15,39.15,0,0,0,40.63,0,39.26,39.26,0,0,0,11.79,11.79,39.53,39.53,0,0,0,0,40.63c0,11.08,3.87,20.76,12,28.5A38.92,38.92,0,0,0,40.63,80.91,38.89,38.89,0,0,0,69.3,69.13ZM16.53,40.46a23.11,23.11,0,0,1,7-17.07,23.13,23.13,0,0,1,17.06-7,23.77,23.77,0,0,1,17.06,7,23.11,23.11,0,0,1,7,17.07,23.11,23.11,0,0,1-7,17.06,23.07,23.07,0,0,1-17.06,7,23.11,23.11,0,0,1-17.06-7A23.11,23.11,0,0,1,16.53,40.46Z"/><path d="M163.06,10.91a8.17,8.17,0,0,0-11.79,0L16.89,145.12a8.16,8.16,0,0,0,0,11.78,9,9,0,0,0,6,2.46,8.67,8.67,0,0,0,6-2.46L163.06,22.69A8.18,8.18,0,0,0,163.06,10.91Z"/><path d="M168.06,108.5a7.62,7.62,0,0,0-6,2.55,10.41,10.41,0,0,0-2.54,7.23v3.48c-.3,5.18-2.31,12.79-7,17.25a22.74,22.74,0,0,1-16.86,7h-.35a22.75,22.75,0,0,1-16.87-7c-4.64-4.45-6.64-12-7-17.19v-3.53c0-3.12-.85-5.55-2.54-7.24a8.24,8.24,0,0,0-6-2.54,7.65,7.65,0,0,0-6,2.55,10.59,10.59,0,0,0-2.53,7.4v2.11c0,11.75,4.43,23.2,11.87,30.63s16.66,11.32,28.35,12h1.77c11.32-.52,20.85-4.57,28.32-12s11.67-18.68,11.87-30.63v-2.11c0-3.18-.89-5.75-2.55-7.41A8.24,8.24,0,0,0,168.06,108.5Z"/></g></svg>
