<svg xmlns="http://www.w3.org/2000/svg" width="512" height="512" fill="none"><path fill="url(#a)" d="M.5 128.5c0-44.804 0-67.206 8.72-84.32A80 80 0 0 1 44.18 9.22C61.295.5 83.697.5 128.5.5H384c44.804 0 67.206 0 84.319 8.72a80.002 80.002 0 0 1 34.962 34.96C512 61.295 512 83.697 512 128.5V512H128.5c-44.804 0-67.206 0-84.32-8.719a80.002 80.002 0 0 1-34.96-34.962C.5 451.206.5 428.804.5 384V128.5Z"/><path fill="#fff" fill-rule="evenodd" d="M117.794 75.397c-23.372 0-42.318 18.946-42.318 42.317v123.943h166.26V75.397H117.794Zm123.942 195.342H75.476v123.943c0 23.372 18.946 42.318 42.318 42.318h123.942V270.739Zm28.61 0h44.407c67.298 0 121.854 54.556 121.854 121.854V437H270.346V270.739Zm83.13-195.342h-83.13v166.26h83.13c45.912 0 83.131-37.218 83.131-83.13 0-45.912-37.219-83.13-83.131-83.13Z" clip-rule="evenodd" style="fill:#fff;fill-opacity:1"/><defs><linearGradient id="a" x1="47.996" x2="556.824" y1="24.248" y2="388.685" gradientUnits="userSpaceOnUse"><stop stop-color="#FF2775" style="stop-color:#ff2775;stop-color:color(display-p3 1 .1542 .4587);stop-opacity:1"/><stop offset="0" stop-color="#FF2775" style="stop-color:#ff2775;stop-color:color(display-p3 1 .1542 .4587);stop-opacity:1"/><stop offset=".292" stop-color="#FF2F66" style="stop-color:#ff2f66;stop-color:color(display-p3 1 .1845 .4003);stop-opacity:1"/><stop offset="1" stop-color="#FF4242" style="stop-color:#ff4242;stop-color:color(display-p3 1 .2583 .2583);stop-opacity:1"/></linearGradient></defs></svg>